G04 #@! TF.GenerationSoftware,KiCad,Pcbnew,(5.1.4)-1*
G04 #@! TF.CreationDate,2020-10-13T18:20:07+11:00*
G04 #@! TF.ProjectId,27C160_Adapter,32374331-3630-45f4-9164-61707465722e,rev?*
G04 #@! TF.SameCoordinates,Original*
G04 #@! TF.FileFunction,Copper,L1,Top*
G04 #@! TF.FilePolarity,Positive*
%FSLAX46Y46*%
G04 Gerber Fmt 4.6, Leading zero omitted, Abs format (unit mm)*
G04 Created by KiCad (PCBNEW (5.1.4)-1) date 2020-10-13 18:20:07*
%MOMM*%
%LPD*%
G04 APERTURE LIST*
%ADD10O,1.600000X1.600000*%
%ADD11C,1.600000*%
%ADD12R,1.500000X1.050000*%
%ADD13O,1.500000X1.050000*%
%ADD14R,1.600000X1.600000*%
%ADD15O,1.500000X3.000000*%
%ADD16C,0.685800*%
%ADD17C,0.254000*%
%ADD18C,0.250000*%
G04 APERTURE END LIST*
D10*
X174498000Y-124460000D03*
D11*
X174498000Y-114300000D03*
D12*
X161925000Y-120015000D03*
D13*
X161925000Y-117475000D03*
X161925000Y-118745000D03*
D10*
X178308000Y-124460000D03*
D11*
X178308000Y-114300000D03*
D10*
X182118000Y-124460000D03*
D11*
X182118000Y-114300000D03*
D10*
X170688000Y-114300000D03*
D11*
X170688000Y-124460000D03*
D10*
X166878000Y-114300000D03*
D11*
X166878000Y-124460000D03*
D10*
X149098000Y-115062000D03*
X154178000Y-122682000D03*
X151638000Y-115062000D03*
X151638000Y-122682000D03*
X154178000Y-115062000D03*
D14*
X149098000Y-122682000D03*
D11*
X133604000Y-116499000D03*
X133604000Y-118999000D03*
X133604000Y-121499000D03*
X130404000Y-116499000D03*
X130404000Y-118999000D03*
D14*
X130404000Y-121499000D03*
D15*
X130086000Y-109959000D03*
X132626000Y-109959000D03*
X135166000Y-109959000D03*
X137706000Y-109959000D03*
X140246000Y-109959000D03*
X142786000Y-109959000D03*
X145326000Y-109959000D03*
X147866000Y-109959000D03*
X150406000Y-109959000D03*
X152946000Y-109959000D03*
X155486000Y-109959000D03*
X158026000Y-109959000D03*
X160566000Y-109959000D03*
X163106000Y-109959000D03*
X165646000Y-109959000D03*
X168186000Y-109959000D03*
X170726000Y-109959000D03*
X173266000Y-109959000D03*
X175806000Y-109959000D03*
X178346000Y-109959000D03*
X178346000Y-94969000D03*
X175806000Y-94969000D03*
X173266000Y-94969000D03*
X170726000Y-94969000D03*
X168186000Y-94969000D03*
X165646000Y-94969000D03*
X163106000Y-94969000D03*
X160566000Y-94969000D03*
X158026000Y-94969000D03*
X155486000Y-94969000D03*
X152946000Y-94969000D03*
X150406000Y-94969000D03*
X147866000Y-94969000D03*
X145326000Y-94969000D03*
X142786000Y-94969000D03*
X140246000Y-94969000D03*
X137706000Y-94969000D03*
X135166000Y-94969000D03*
X132626000Y-94969000D03*
X130086000Y-94969000D03*
X118021000Y-103733600D03*
X120561000Y-103733600D03*
X123101000Y-103733600D03*
X125641000Y-103733600D03*
X128181000Y-103733600D03*
X130721000Y-103733600D03*
X133261000Y-103733600D03*
X135801000Y-103733600D03*
X138341000Y-103733600D03*
X140881000Y-103733600D03*
X143421000Y-103733600D03*
X145961000Y-103733600D03*
X148501000Y-103733600D03*
X151041000Y-103733600D03*
X153581000Y-103733600D03*
X156121000Y-103733600D03*
X158661000Y-103733600D03*
X161201000Y-103733600D03*
X163741000Y-103733600D03*
X166281000Y-103733600D03*
X168821000Y-103733600D03*
X171361000Y-103733600D03*
X173901000Y-103733600D03*
X176441000Y-103733600D03*
X176441000Y-88493600D03*
X173901000Y-88493600D03*
X171361000Y-88493600D03*
X168821000Y-88493600D03*
X166281000Y-88493600D03*
X163741000Y-88493600D03*
X161201000Y-88493600D03*
X158661000Y-88493600D03*
X156121000Y-88493600D03*
X153581000Y-88493600D03*
X151041000Y-88493600D03*
X148501000Y-88493600D03*
X145961000Y-88493600D03*
X143421000Y-88493600D03*
X140881000Y-88493600D03*
X138341000Y-88493600D03*
X135801000Y-88493600D03*
X133261000Y-88493600D03*
X130721000Y-88493600D03*
X128181000Y-88493600D03*
X125641000Y-88493600D03*
X123101000Y-88493600D03*
X120561000Y-88493600D03*
X118021000Y-88493600D03*
D16*
X157030534Y-101990177D03*
X152007618Y-96856632D03*
X160931314Y-101663975D03*
X156591000Y-106982401D03*
D17*
X162929000Y-117475000D02*
X161925000Y-117475000D01*
X163056010Y-117602010D02*
X162929000Y-117475000D01*
X163056010Y-120844792D02*
X163056010Y-117602010D01*
X162742832Y-121157970D02*
X163056010Y-120844792D01*
X155868838Y-121157970D02*
X162742832Y-121157970D01*
X146814197Y-122680001D02*
X149054632Y-120439566D01*
X132639001Y-122680001D02*
X146814197Y-122680001D01*
X131458000Y-121499000D02*
X132639001Y-122680001D01*
X130404000Y-121499000D02*
X131458000Y-121499000D01*
X149054632Y-120439566D02*
X155150434Y-120439566D01*
X155150434Y-120439566D02*
X155868838Y-121157970D01*
X129350000Y-121499000D02*
X130404000Y-121499000D01*
X129222999Y-121371999D02*
X129350000Y-121499000D01*
X129222999Y-112576001D02*
X129222999Y-121371999D01*
X130086000Y-111713000D02*
X129222999Y-112576001D01*
X130086000Y-109959000D02*
X130086000Y-111713000D01*
X173736000Y-122682000D02*
X182118000Y-114300000D01*
X154178000Y-122682000D02*
X173736000Y-122682000D01*
X178308000Y-117391566D02*
X178308000Y-116586000D01*
X173525576Y-122173990D02*
X178308000Y-117391566D01*
X178308000Y-116586000D02*
X178308000Y-113919000D01*
X178308000Y-117010566D02*
X178308000Y-116586000D01*
X151638000Y-122682000D02*
X152819001Y-121500999D01*
X152819001Y-121500999D02*
X154774999Y-121500999D01*
X154774999Y-121500999D02*
X155447990Y-122173990D01*
X155447990Y-122173990D02*
X173525576Y-122173990D01*
X174498000Y-118237000D02*
X174498000Y-113919000D01*
X174498000Y-118578132D02*
X174498000Y-118237000D01*
X174498000Y-120483132D02*
X174498000Y-119888000D01*
X173315152Y-121665980D02*
X174498000Y-120483132D01*
X155658414Y-121665980D02*
X173315152Y-121665980D01*
X174498000Y-119888000D02*
X174498000Y-120102132D01*
X174498000Y-118237000D02*
X174498000Y-119888000D01*
X149098000Y-122682000D02*
X149098000Y-121628000D01*
X149098000Y-121628000D02*
X149733011Y-120992989D01*
X149733011Y-120992989D02*
X154985423Y-120992989D01*
X154985423Y-120992989D02*
X155658414Y-121665980D01*
X151041000Y-89243600D02*
X151041000Y-88493600D01*
X146734990Y-93549610D02*
X151041000Y-89243600D01*
X146734990Y-95909499D02*
X146734990Y-93549610D01*
X145286469Y-97358020D02*
X146734990Y-95909499D01*
X132730286Y-97358020D02*
X145286469Y-97358020D01*
X129589990Y-100498316D02*
X132730286Y-97358020D01*
X131086000Y-118974000D02*
X132305201Y-117754799D01*
X132305201Y-117754799D02*
X132305201Y-111987690D01*
X132305201Y-111987690D02*
X131494990Y-111177479D01*
X131494990Y-109018501D02*
X131494990Y-110730490D01*
X129589990Y-104471010D02*
X129589990Y-107113501D01*
X129589990Y-104952079D02*
X129589990Y-104471010D01*
X129589990Y-107113501D02*
X131494990Y-109018501D01*
X129589990Y-104471010D02*
X129589990Y-100498316D01*
X131494990Y-111177479D02*
X131494990Y-110730490D01*
X134464199Y-118135801D02*
X133626000Y-118974000D01*
X134845201Y-117754799D02*
X134464199Y-118135801D01*
X134845201Y-115848783D02*
X134845201Y-117754799D01*
X134034990Y-108740521D02*
X134034990Y-115038572D01*
X134034990Y-115038572D02*
X134845201Y-115848783D01*
X136652891Y-106122620D02*
X134034990Y-108740521D01*
X154481980Y-106122620D02*
X136652891Y-106122620D01*
X156121000Y-104483600D02*
X154481980Y-106122620D01*
X156121000Y-103733600D02*
X156121000Y-104483600D01*
X178346000Y-110709000D02*
X178346000Y-109959000D01*
X176198971Y-112856029D02*
X178346000Y-110709000D01*
X165037679Y-112856030D02*
X176198971Y-112856029D01*
X133604000Y-121499000D02*
X133604000Y-121539000D01*
X133604000Y-121539000D02*
X134236991Y-122171991D01*
X134236991Y-122171991D02*
X146603773Y-122171991D01*
X146603773Y-122171991D02*
X148844208Y-119931556D01*
X148844208Y-119931556D02*
X157962153Y-119931556D01*
X157962153Y-119931556D02*
X165037679Y-112856030D01*
X132626000Y-109209000D02*
X132626000Y-109959000D01*
X136220390Y-105614610D02*
X132626000Y-109209000D01*
X150913990Y-105614610D02*
X136220390Y-105614610D01*
X151041000Y-105487600D02*
X150913990Y-105614610D01*
X151041000Y-103733600D02*
X151041000Y-105487600D01*
X135166000Y-109209000D02*
X135166000Y-109959000D01*
X137684715Y-106690285D02*
X135166000Y-109209000D01*
X154632749Y-106690285D02*
X137684715Y-106690285D01*
X155572544Y-105750490D02*
X154632749Y-106690285D01*
X156758510Y-105750490D02*
X155572544Y-105750490D01*
X157252010Y-105256990D02*
X156758510Y-105750490D01*
X157252010Y-102211653D02*
X157252010Y-105256990D01*
X157030534Y-101990177D02*
X157252010Y-102211653D01*
X165149990Y-90374610D02*
X166281000Y-89243600D01*
X166281000Y-89243600D02*
X166281000Y-88493600D01*
X162810901Y-90374610D02*
X165149990Y-90374610D01*
X159434990Y-93750521D02*
X162810901Y-90374610D01*
X159434990Y-95909499D02*
X159434990Y-93750521D01*
X158487857Y-96856632D02*
X159434990Y-95909499D01*
X152007618Y-96856632D02*
X158487857Y-96856632D01*
X142786000Y-109209000D02*
X142786000Y-109959000D01*
X155183705Y-107198295D02*
X144796705Y-107198295D01*
X156123500Y-106258500D02*
X155183705Y-107198295D01*
X158707666Y-106258500D02*
X156123500Y-106258500D01*
X159792010Y-105174156D02*
X158707666Y-106258500D01*
X159792010Y-102793101D02*
X159792010Y-105174156D01*
X160921136Y-101663975D02*
X159792010Y-102793101D01*
X144796705Y-107198295D02*
X142786000Y-109209000D01*
X160931314Y-101663975D02*
X160921136Y-101663975D01*
X145326000Y-110709000D02*
X145326000Y-109959000D01*
X146965020Y-112348020D02*
X145326000Y-110709000D01*
X175766469Y-112348020D02*
X146965020Y-112348020D01*
X176937010Y-111177479D02*
X175766469Y-112348020D01*
X176441000Y-105487600D02*
X176937010Y-105983610D01*
X176937010Y-105983610D02*
X176937010Y-111177479D01*
X176441000Y-103733600D02*
X176441000Y-105487600D01*
X148997010Y-111840010D02*
X147866000Y-110709000D01*
X147866000Y-110709000D02*
X147866000Y-109959000D01*
X174397010Y-108740521D02*
X174397010Y-111177479D01*
X173734479Y-111840010D02*
X148997010Y-111840010D01*
X174397010Y-111177479D02*
X173734479Y-111840010D01*
X171361000Y-103733600D02*
X171361000Y-105704511D01*
X171361000Y-105704511D02*
X174397010Y-108740521D01*
X166281000Y-104483600D02*
X166281000Y-103733600D01*
X163058299Y-107706301D02*
X166281000Y-104483600D01*
X151908699Y-107706301D02*
X163058299Y-107706301D01*
X150406000Y-109209000D02*
X151908699Y-107706301D01*
X150406000Y-109959000D02*
X150406000Y-109209000D01*
X158702199Y-106982401D02*
X156591000Y-106982401D01*
X161201000Y-103733600D02*
X161201000Y-104483600D01*
X161201000Y-104483600D02*
X158702199Y-106982401D01*
D18*
X170726000Y-109959000D02*
X170726000Y-108181300D01*
X168821000Y-103733600D02*
X168821000Y-106276300D01*
X168821000Y-106276300D02*
X170726000Y-108181300D01*
D17*
X173266000Y-109209000D02*
X173266000Y-109959000D01*
X163741000Y-101979600D02*
X163868010Y-101852590D01*
X163868010Y-101852590D02*
X169567459Y-101852590D01*
X169567459Y-101852590D02*
X170229990Y-102515121D01*
X170229990Y-102515121D02*
X170229990Y-106172990D01*
X170229990Y-106172990D02*
X173266000Y-109209000D01*
X163741000Y-103733600D02*
X163741000Y-101979600D01*
X153613839Y-101422095D02*
X154115222Y-100920712D01*
X150062505Y-101422095D02*
X153613839Y-101422095D01*
X148501000Y-103733600D02*
X148501000Y-102983600D01*
X148501000Y-102983600D02*
X150062505Y-101422095D01*
X178346000Y-95719000D02*
X178346000Y-94969000D01*
X173144288Y-100920712D02*
X178346000Y-95719000D01*
X154115222Y-100920712D02*
X173144288Y-100920712D01*
X153403415Y-100914085D02*
X153904798Y-100412702D01*
X148971026Y-100914085D02*
X153403415Y-100914085D01*
X145961000Y-103733600D02*
X146151511Y-103733600D01*
X146151511Y-103733600D02*
X148971026Y-100914085D01*
X175806000Y-95719000D02*
X175806000Y-94969000D01*
X171112298Y-100412702D02*
X175806000Y-95719000D01*
X153904798Y-100412702D02*
X171112298Y-100412702D01*
X153169358Y-100406076D02*
X153670742Y-99904692D01*
X145998523Y-100406077D02*
X153169358Y-100406076D01*
X143421000Y-103733600D02*
X143421000Y-102983600D01*
X143421000Y-102983600D02*
X145998523Y-100406077D01*
X173266000Y-95719000D02*
X173266000Y-94969000D01*
X169080308Y-99904692D02*
X173266000Y-95719000D01*
X153670742Y-99904692D02*
X169080308Y-99904692D01*
X152958933Y-99898067D02*
X153460318Y-99396682D01*
X144907044Y-99898067D02*
X152958933Y-99898067D01*
X140881000Y-103733600D02*
X141071511Y-103733600D01*
X141071511Y-103733600D02*
X144907044Y-99898067D01*
X170726000Y-95719000D02*
X170726000Y-94969000D01*
X167048318Y-99396682D02*
X170726000Y-95719000D01*
X153460318Y-99396682D02*
X167048318Y-99396682D01*
X152700868Y-99390058D02*
X153202254Y-98888672D01*
X141934542Y-99390058D02*
X152700868Y-99390058D01*
X138341000Y-103733600D02*
X138341000Y-102983600D01*
X138341000Y-102983600D02*
X141934542Y-99390058D01*
X168186000Y-95719000D02*
X168186000Y-94969000D01*
X165016328Y-98888672D02*
X168186000Y-95719000D01*
X153202254Y-98888672D02*
X165016328Y-98888672D01*
X152490444Y-98882048D02*
X152991830Y-98380662D01*
X139902552Y-98882048D02*
X152490444Y-98882048D01*
X135801000Y-103733600D02*
X135801000Y-102983600D01*
X135801000Y-102983600D02*
X139902552Y-98882048D01*
X165646000Y-95719000D02*
X165646000Y-94969000D01*
X162984338Y-98380662D02*
X165646000Y-95719000D01*
X152991830Y-98380662D02*
X162984338Y-98380662D01*
X152280019Y-98374039D02*
X152781406Y-97872652D01*
X137870560Y-98374040D02*
X152280019Y-98374039D01*
X133261000Y-103733600D02*
X133261000Y-102983600D01*
X133261000Y-102983600D02*
X137870560Y-98374040D01*
X163106000Y-95719000D02*
X163106000Y-94969000D01*
X160952348Y-97872652D02*
X163106000Y-95719000D01*
X152781406Y-97872652D02*
X160952348Y-97872652D01*
X130721000Y-102983600D02*
X130721000Y-103733600D01*
X160566000Y-96723000D02*
X159924358Y-97364642D01*
X159924358Y-97364642D02*
X152570982Y-97364642D01*
X160566000Y-94969000D02*
X160566000Y-96723000D01*
X152570982Y-97364642D02*
X152069594Y-97866030D01*
X152069594Y-97866030D02*
X135838570Y-97866030D01*
X135838570Y-97866030D02*
X130721000Y-102983600D01*
X158026000Y-94219000D02*
X158026000Y-94969000D01*
X154712010Y-90905010D02*
X158026000Y-94219000D01*
X154712010Y-87275121D02*
X154712010Y-90905010D01*
X153033459Y-85596570D02*
X154712010Y-87275121D01*
X130328030Y-85596570D02*
X153033459Y-85596570D01*
X128181000Y-87743600D02*
X130328030Y-85596570D01*
X128181000Y-88493600D02*
X128181000Y-87743600D01*
X152946000Y-93215000D02*
X152946000Y-94969000D01*
X152172010Y-92441010D02*
X152946000Y-93215000D01*
X151001469Y-86104580D02*
X152172010Y-87275121D01*
X152172010Y-87275121D02*
X152172010Y-92441010D01*
X132360020Y-86104580D02*
X151001469Y-86104580D01*
X130721000Y-87743600D02*
X132360020Y-86104580D01*
X130721000Y-88493600D02*
X130721000Y-87743600D01*
X138341000Y-90247600D02*
X138341000Y-88493600D01*
X138837010Y-90743610D02*
X138341000Y-90247600D01*
X138837010Y-96187479D02*
X138837010Y-90743610D01*
X139499541Y-96850010D02*
X138837010Y-96187479D01*
X144194990Y-96850010D02*
X139499541Y-96850010D01*
X145326000Y-95719000D02*
X144194990Y-96850010D01*
X145326000Y-94969000D02*
X145326000Y-95719000D01*
D18*
X143421000Y-88493600D02*
X143421000Y-90271300D01*
X140246000Y-94969000D02*
X140246000Y-93191300D01*
X143421000Y-90271300D02*
X143166000Y-90271300D01*
X143166000Y-90271300D02*
X140246000Y-93191300D01*
D17*
X148501000Y-87743600D02*
X148501000Y-88493600D01*
X147369990Y-86612590D02*
X148501000Y-87743600D01*
X137872521Y-86612590D02*
X147369990Y-86612590D01*
X137209990Y-87275121D02*
X137872521Y-86612590D01*
X137209990Y-92175010D02*
X137209990Y-87275121D01*
X135166000Y-94219000D02*
X137209990Y-92175010D01*
X135166000Y-94969000D02*
X135166000Y-94219000D01*
D18*
X132626000Y-94969000D02*
X132626000Y-96746700D01*
X128181000Y-103733600D02*
X128181000Y-101191700D01*
X128181000Y-101191700D02*
X132626000Y-96746700D01*
D17*
G36*
X188670300Y-83687326D02*
G01*
X188864889Y-83746077D01*
X189044364Y-83841505D01*
X189201883Y-83969975D01*
X189331451Y-84126596D01*
X189428130Y-84305400D01*
X189488238Y-84499577D01*
X189510600Y-84712344D01*
X189510601Y-125337866D01*
X189492092Y-125526632D01*
X189440507Y-125697489D01*
X189356714Y-125855083D01*
X189243909Y-125993394D01*
X189106386Y-126107163D01*
X188949385Y-126192054D01*
X188778888Y-126244832D01*
X188590800Y-126264600D01*
X128789124Y-126264600D01*
X128600368Y-126246092D01*
X128429511Y-126194507D01*
X128271917Y-126110714D01*
X128133606Y-125997909D01*
X128019837Y-125860386D01*
X127934946Y-125703385D01*
X127882168Y-125532888D01*
X127873741Y-125452702D01*
X166064903Y-125452702D01*
X166136486Y-125696671D01*
X166391996Y-125817571D01*
X166666184Y-125886300D01*
X166948512Y-125900217D01*
X167228130Y-125858787D01*
X167494292Y-125763603D01*
X167619514Y-125696671D01*
X167691097Y-125452702D01*
X166878000Y-124639605D01*
X166064903Y-125452702D01*
X127873741Y-125452702D01*
X127862400Y-125344800D01*
X127862400Y-124530512D01*
X165437783Y-124530512D01*
X165479213Y-124810130D01*
X165574397Y-125076292D01*
X165641329Y-125201514D01*
X165885298Y-125273097D01*
X166698395Y-124460000D01*
X167057605Y-124460000D01*
X167870702Y-125273097D01*
X168114671Y-125201514D01*
X168235571Y-124946004D01*
X168304300Y-124671816D01*
X168318217Y-124389488D01*
X168311431Y-124343682D01*
X169507000Y-124343682D01*
X169507000Y-124576318D01*
X169552386Y-124804485D01*
X169641412Y-125019413D01*
X169770658Y-125212843D01*
X169935157Y-125377342D01*
X170128587Y-125506588D01*
X170343515Y-125595614D01*
X170571682Y-125641000D01*
X170804318Y-125641000D01*
X171032485Y-125595614D01*
X171247413Y-125506588D01*
X171440843Y-125377342D01*
X171605342Y-125212843D01*
X171734588Y-125019413D01*
X171821727Y-124809040D01*
X173106091Y-124809040D01*
X173200930Y-125073881D01*
X173345615Y-125315131D01*
X173534586Y-125523519D01*
X173760580Y-125691037D01*
X174014913Y-125811246D01*
X174148961Y-125851904D01*
X174371000Y-125729915D01*
X174371000Y-124587000D01*
X174625000Y-124587000D01*
X174625000Y-125729915D01*
X174847039Y-125851904D01*
X174981087Y-125811246D01*
X175235420Y-125691037D01*
X175461414Y-125523519D01*
X175650385Y-125315131D01*
X175795070Y-125073881D01*
X175889909Y-124809040D01*
X176916091Y-124809040D01*
X177010930Y-125073881D01*
X177155615Y-125315131D01*
X177344586Y-125523519D01*
X177570580Y-125691037D01*
X177824913Y-125811246D01*
X177958961Y-125851904D01*
X178181000Y-125729915D01*
X178181000Y-124587000D01*
X178435000Y-124587000D01*
X178435000Y-125729915D01*
X178657039Y-125851904D01*
X178791087Y-125811246D01*
X179045420Y-125691037D01*
X179271414Y-125523519D01*
X179460385Y-125315131D01*
X179605070Y-125073881D01*
X179699909Y-124809040D01*
X180726091Y-124809040D01*
X180820930Y-125073881D01*
X180965615Y-125315131D01*
X181154586Y-125523519D01*
X181380580Y-125691037D01*
X181634913Y-125811246D01*
X181768961Y-125851904D01*
X181991000Y-125729915D01*
X181991000Y-124587000D01*
X182245000Y-124587000D01*
X182245000Y-125729915D01*
X182467039Y-125851904D01*
X182601087Y-125811246D01*
X182855420Y-125691037D01*
X183081414Y-125523519D01*
X183270385Y-125315131D01*
X183415070Y-125073881D01*
X183509909Y-124809040D01*
X183388624Y-124587000D01*
X182245000Y-124587000D01*
X181991000Y-124587000D01*
X180847376Y-124587000D01*
X180726091Y-124809040D01*
X179699909Y-124809040D01*
X179578624Y-124587000D01*
X178435000Y-124587000D01*
X178181000Y-124587000D01*
X177037376Y-124587000D01*
X176916091Y-124809040D01*
X175889909Y-124809040D01*
X175768624Y-124587000D01*
X174625000Y-124587000D01*
X174371000Y-124587000D01*
X173227376Y-124587000D01*
X173106091Y-124809040D01*
X171821727Y-124809040D01*
X171823614Y-124804485D01*
X171869000Y-124576318D01*
X171869000Y-124343682D01*
X171823614Y-124115515D01*
X171734588Y-123900587D01*
X171605342Y-123707157D01*
X171440843Y-123542658D01*
X171247413Y-123413412D01*
X171032485Y-123324386D01*
X170804318Y-123279000D01*
X170571682Y-123279000D01*
X170343515Y-123324386D01*
X170128587Y-123413412D01*
X169935157Y-123542658D01*
X169770658Y-123707157D01*
X169641412Y-123900587D01*
X169552386Y-124115515D01*
X169507000Y-124343682D01*
X168311431Y-124343682D01*
X168276787Y-124109870D01*
X168181603Y-123843708D01*
X168114671Y-123718486D01*
X167870702Y-123646903D01*
X167057605Y-124460000D01*
X166698395Y-124460000D01*
X165885298Y-123646903D01*
X165641329Y-123718486D01*
X165520429Y-123973996D01*
X165451700Y-124248184D01*
X165437783Y-124530512D01*
X127862400Y-124530512D01*
X127862400Y-109970833D01*
X127861386Y-109960541D01*
X127861436Y-109953411D01*
X127861126Y-109950251D01*
X127837809Y-109728399D01*
X127833670Y-109708236D01*
X127829803Y-109687963D01*
X127828885Y-109684924D01*
X127762920Y-109471826D01*
X127754948Y-109452861D01*
X127747213Y-109433716D01*
X127745722Y-109430913D01*
X127639622Y-109234686D01*
X127628102Y-109217606D01*
X127616812Y-109200354D01*
X127614805Y-109197893D01*
X127472612Y-109026011D01*
X127458008Y-109011509D01*
X127443567Y-108996762D01*
X127441121Y-108994739D01*
X127268251Y-108853749D01*
X127251094Y-108842350D01*
X127234077Y-108830698D01*
X127231284Y-108829188D01*
X127034320Y-108724461D01*
X127015290Y-108716618D01*
X126996322Y-108708488D01*
X126993289Y-108707550D01*
X126779736Y-108643074D01*
X126759573Y-108639082D01*
X126739358Y-108634785D01*
X126736200Y-108634453D01*
X126514190Y-108612685D01*
X126514182Y-108612685D01*
X126503167Y-108611600D01*
X108469124Y-108611600D01*
X108280368Y-108593092D01*
X108109511Y-108541507D01*
X107951917Y-108457714D01*
X107813606Y-108344909D01*
X107699837Y-108207386D01*
X107614946Y-108050385D01*
X107562168Y-107879888D01*
X107542400Y-107691800D01*
X107542400Y-102928043D01*
X116890000Y-102928043D01*
X116890000Y-104539158D01*
X116906365Y-104705315D01*
X116971038Y-104918509D01*
X117076059Y-105114990D01*
X117217394Y-105287207D01*
X117389611Y-105428542D01*
X117586092Y-105533563D01*
X117799286Y-105598235D01*
X118021000Y-105620072D01*
X118242715Y-105598235D01*
X118455909Y-105533563D01*
X118652390Y-105428542D01*
X118824607Y-105287207D01*
X118965942Y-105114990D01*
X119070963Y-104918509D01*
X119135635Y-104705315D01*
X119152000Y-104539158D01*
X119152000Y-102928043D01*
X119430000Y-102928043D01*
X119430000Y-104539158D01*
X119446365Y-104705315D01*
X119511038Y-104918509D01*
X119616059Y-105114990D01*
X119757394Y-105287207D01*
X119929611Y-105428542D01*
X120126092Y-105533563D01*
X120339286Y-105598235D01*
X120561000Y-105620072D01*
X120782715Y-105598235D01*
X120995909Y-105533563D01*
X121192390Y-105428542D01*
X121364607Y-105287207D01*
X121505942Y-105114990D01*
X121610963Y-104918509D01*
X121675635Y-104705315D01*
X121692000Y-104539158D01*
X121692000Y-102928043D01*
X121970000Y-102928043D01*
X121970000Y-104539158D01*
X121986365Y-104705315D01*
X122051038Y-104918509D01*
X122156059Y-105114990D01*
X122297394Y-105287207D01*
X122469611Y-105428542D01*
X122666092Y-105533563D01*
X122879286Y-105598235D01*
X123101000Y-105620072D01*
X123322715Y-105598235D01*
X123535909Y-105533563D01*
X123732390Y-105428542D01*
X123904607Y-105287207D01*
X124045942Y-105114990D01*
X124150963Y-104918509D01*
X124215635Y-104705315D01*
X124232000Y-104539158D01*
X124232000Y-102928043D01*
X124510000Y-102928043D01*
X124510000Y-104539158D01*
X124526365Y-104705315D01*
X124591038Y-104918509D01*
X124696059Y-105114990D01*
X124837394Y-105287207D01*
X125009611Y-105428542D01*
X125206092Y-105533563D01*
X125419286Y-105598235D01*
X125641000Y-105620072D01*
X125862715Y-105598235D01*
X126075909Y-105533563D01*
X126272390Y-105428542D01*
X126444607Y-105287207D01*
X126585942Y-105114990D01*
X126690963Y-104918509D01*
X126755635Y-104705315D01*
X126772000Y-104539158D01*
X126772000Y-102928042D01*
X126755635Y-102761885D01*
X126690963Y-102548691D01*
X126585942Y-102352210D01*
X126444607Y-102179993D01*
X126272390Y-102038658D01*
X126075908Y-101933637D01*
X125862714Y-101868965D01*
X125641000Y-101847128D01*
X125419285Y-101868965D01*
X125206091Y-101933637D01*
X125009610Y-102038658D01*
X124837393Y-102179993D01*
X124696058Y-102352210D01*
X124591037Y-102548692D01*
X124526365Y-102761886D01*
X124510000Y-102928043D01*
X124232000Y-102928043D01*
X124232000Y-102928042D01*
X124215635Y-102761885D01*
X124150963Y-102548691D01*
X124045942Y-102352210D01*
X123904607Y-102179993D01*
X123732390Y-102038658D01*
X123535908Y-101933637D01*
X123322714Y-101868965D01*
X123101000Y-101847128D01*
X122879285Y-101868965D01*
X122666091Y-101933637D01*
X122469610Y-102038658D01*
X122297393Y-102179993D01*
X122156058Y-102352210D01*
X122051037Y-102548692D01*
X121986365Y-102761886D01*
X121970000Y-102928043D01*
X121692000Y-102928043D01*
X121692000Y-102928042D01*
X121675635Y-102761885D01*
X121610963Y-102548691D01*
X121505942Y-102352210D01*
X121364607Y-102179993D01*
X121192390Y-102038658D01*
X120995908Y-101933637D01*
X120782714Y-101868965D01*
X120561000Y-101847128D01*
X120339285Y-101868965D01*
X120126091Y-101933637D01*
X119929610Y-102038658D01*
X119757393Y-102179993D01*
X119616058Y-102352210D01*
X119511037Y-102548692D01*
X119446365Y-102761886D01*
X119430000Y-102928043D01*
X119152000Y-102928043D01*
X119152000Y-102928042D01*
X119135635Y-102761885D01*
X119070963Y-102548691D01*
X118965942Y-102352210D01*
X118824607Y-102179993D01*
X118652390Y-102038658D01*
X118455908Y-101933637D01*
X118242714Y-101868965D01*
X118021000Y-101847128D01*
X117799285Y-101868965D01*
X117586091Y-101933637D01*
X117389610Y-102038658D01*
X117217393Y-102179993D01*
X117076058Y-102352210D01*
X116971037Y-102548692D01*
X116906365Y-102761886D01*
X116890000Y-102928043D01*
X107542400Y-102928043D01*
X107542400Y-95096000D01*
X128701000Y-95096000D01*
X128701000Y-95846000D01*
X128752389Y-96113760D01*
X128855028Y-96366349D01*
X129004972Y-96594061D01*
X129196460Y-96788145D01*
X129422132Y-96941142D01*
X129673316Y-97047173D01*
X129744815Y-97061318D01*
X129959000Y-96938656D01*
X129959000Y-95096000D01*
X130213000Y-95096000D01*
X130213000Y-96938656D01*
X130427185Y-97061318D01*
X130498684Y-97047173D01*
X130749868Y-96941142D01*
X130975540Y-96788145D01*
X131167028Y-96594061D01*
X131316972Y-96366349D01*
X131419611Y-96113760D01*
X131471000Y-95846000D01*
X131471000Y-95096000D01*
X130213000Y-95096000D01*
X129959000Y-95096000D01*
X128701000Y-95096000D01*
X107542400Y-95096000D01*
X107542400Y-94092000D01*
X128701000Y-94092000D01*
X128701000Y-94842000D01*
X129959000Y-94842000D01*
X129959000Y-92999344D01*
X130213000Y-92999344D01*
X130213000Y-94842000D01*
X131471000Y-94842000D01*
X131471000Y-94092000D01*
X131419611Y-93824240D01*
X131316972Y-93571651D01*
X131167028Y-93343939D01*
X130975540Y-93149855D01*
X130749868Y-92996858D01*
X130498684Y-92890827D01*
X130427185Y-92876682D01*
X130213000Y-92999344D01*
X129959000Y-92999344D01*
X129744815Y-92876682D01*
X129673316Y-92890827D01*
X129422132Y-92996858D01*
X129196460Y-93149855D01*
X129004972Y-93343939D01*
X128855028Y-93571651D01*
X128752389Y-93824240D01*
X128701000Y-94092000D01*
X107542400Y-94092000D01*
X107542400Y-87688043D01*
X116890000Y-87688043D01*
X116890000Y-89299158D01*
X116906365Y-89465315D01*
X116971038Y-89678509D01*
X117076059Y-89874990D01*
X117217394Y-90047207D01*
X117389611Y-90188542D01*
X117586092Y-90293563D01*
X117799286Y-90358235D01*
X118021000Y-90380072D01*
X118242715Y-90358235D01*
X118455909Y-90293563D01*
X118652390Y-90188542D01*
X118824607Y-90047207D01*
X118965942Y-89874990D01*
X119070963Y-89678509D01*
X119135635Y-89465315D01*
X119152000Y-89299158D01*
X119152000Y-87688043D01*
X119430000Y-87688043D01*
X119430000Y-89299158D01*
X119446365Y-89465315D01*
X119511038Y-89678509D01*
X119616059Y-89874990D01*
X119757394Y-90047207D01*
X119929611Y-90188542D01*
X120126092Y-90293563D01*
X120339286Y-90358235D01*
X120561000Y-90380072D01*
X120782715Y-90358235D01*
X120995909Y-90293563D01*
X121192390Y-90188542D01*
X121364607Y-90047207D01*
X121505942Y-89874990D01*
X121610963Y-89678509D01*
X121675635Y-89465315D01*
X121692000Y-89299158D01*
X121692000Y-87688043D01*
X121970000Y-87688043D01*
X121970000Y-89299158D01*
X121986365Y-89465315D01*
X122051038Y-89678509D01*
X122156059Y-89874990D01*
X122297394Y-90047207D01*
X122469611Y-90188542D01*
X122666092Y-90293563D01*
X122879286Y-90358235D01*
X123101000Y-90380072D01*
X123322715Y-90358235D01*
X123535909Y-90293563D01*
X123732390Y-90188542D01*
X123904607Y-90047207D01*
X124045942Y-89874990D01*
X124150963Y-89678509D01*
X124215635Y-89465315D01*
X124232000Y-89299158D01*
X124232000Y-87688043D01*
X124510000Y-87688043D01*
X124510000Y-89299158D01*
X124526365Y-89465315D01*
X124591038Y-89678509D01*
X124696059Y-89874990D01*
X124837394Y-90047207D01*
X125009611Y-90188542D01*
X125206092Y-90293563D01*
X125419286Y-90358235D01*
X125641000Y-90380072D01*
X125862715Y-90358235D01*
X126075909Y-90293563D01*
X126272390Y-90188542D01*
X126444607Y-90047207D01*
X126585942Y-89874990D01*
X126690963Y-89678509D01*
X126755635Y-89465315D01*
X126772000Y-89299158D01*
X126772000Y-87688043D01*
X127050000Y-87688043D01*
X127050000Y-89299158D01*
X127066365Y-89465315D01*
X127131038Y-89678509D01*
X127236059Y-89874990D01*
X127377394Y-90047207D01*
X127549611Y-90188542D01*
X127746092Y-90293563D01*
X127959286Y-90358235D01*
X128181000Y-90380072D01*
X128402715Y-90358235D01*
X128615909Y-90293563D01*
X128812390Y-90188542D01*
X128984607Y-90047207D01*
X129125942Y-89874990D01*
X129230963Y-89678509D01*
X129295635Y-89465315D01*
X129312000Y-89299158D01*
X129312000Y-87688042D01*
X129295635Y-87521885D01*
X129255021Y-87387999D01*
X130538451Y-86104570D01*
X131641609Y-86104570D01*
X131076600Y-86669579D01*
X130942714Y-86628965D01*
X130721000Y-86607128D01*
X130499285Y-86628965D01*
X130286091Y-86693637D01*
X130089610Y-86798658D01*
X129917393Y-86939993D01*
X129776058Y-87112210D01*
X129671037Y-87308692D01*
X129606365Y-87521886D01*
X129590000Y-87688043D01*
X129590000Y-89299158D01*
X129606365Y-89465315D01*
X129671038Y-89678509D01*
X129776059Y-89874990D01*
X129917394Y-90047207D01*
X130089611Y-90188542D01*
X130286092Y-90293563D01*
X130499286Y-90358235D01*
X130721000Y-90380072D01*
X130942715Y-90358235D01*
X131155909Y-90293563D01*
X131352390Y-90188542D01*
X131524607Y-90047207D01*
X131665942Y-89874990D01*
X131770963Y-89678509D01*
X131835635Y-89465315D01*
X131852000Y-89299158D01*
X131852000Y-87688042D01*
X131835635Y-87521885D01*
X131795021Y-87387999D01*
X132570441Y-86612580D01*
X133205645Y-86612580D01*
X133039285Y-86628965D01*
X132826091Y-86693637D01*
X132629610Y-86798658D01*
X132457393Y-86939993D01*
X132316058Y-87112210D01*
X132211037Y-87308692D01*
X132146365Y-87521886D01*
X132130000Y-87688043D01*
X132130000Y-89299158D01*
X132146365Y-89465315D01*
X132211038Y-89678509D01*
X132316059Y-89874990D01*
X132457394Y-90047207D01*
X132629611Y-90188542D01*
X132826092Y-90293563D01*
X133039286Y-90358235D01*
X133261000Y-90380072D01*
X133482715Y-90358235D01*
X133695909Y-90293563D01*
X133892390Y-90188542D01*
X134064607Y-90047207D01*
X134205942Y-89874990D01*
X134310963Y-89678509D01*
X134375635Y-89465315D01*
X134392000Y-89299158D01*
X134392000Y-87688042D01*
X134375635Y-87521885D01*
X134310963Y-87308691D01*
X134205942Y-87112210D01*
X134064607Y-86939993D01*
X133892390Y-86798658D01*
X133695908Y-86693637D01*
X133482714Y-86628965D01*
X133316355Y-86612580D01*
X135745645Y-86612580D01*
X135579285Y-86628965D01*
X135366091Y-86693637D01*
X135169610Y-86798658D01*
X134997393Y-86939993D01*
X134856058Y-87112210D01*
X134751037Y-87308692D01*
X134686365Y-87521886D01*
X134670000Y-87688043D01*
X134670000Y-89299158D01*
X134686365Y-89465315D01*
X134751038Y-89678509D01*
X134856059Y-89874990D01*
X134997394Y-90047207D01*
X135169611Y-90188542D01*
X135366092Y-90293563D01*
X135579286Y-90358235D01*
X135801000Y-90380072D01*
X136022715Y-90358235D01*
X136235909Y-90293563D01*
X136432390Y-90188542D01*
X136604607Y-90047207D01*
X136701990Y-89928545D01*
X136701990Y-91964589D01*
X135521601Y-93144979D01*
X135387715Y-93104365D01*
X135166000Y-93082528D01*
X134944286Y-93104365D01*
X134731092Y-93169037D01*
X134534611Y-93274058D01*
X134362394Y-93415393D01*
X134221059Y-93587610D01*
X134116038Y-93784091D01*
X134051365Y-93997285D01*
X134035000Y-94163442D01*
X134035000Y-95774557D01*
X134051365Y-95940714D01*
X134116037Y-96153908D01*
X134221058Y-96350390D01*
X134362393Y-96522607D01*
X134534610Y-96663942D01*
X134731091Y-96768963D01*
X134944285Y-96833635D01*
X135110645Y-96850020D01*
X133123426Y-96850020D01*
X133124678Y-96845894D01*
X133126974Y-96822585D01*
X133132000Y-96771554D01*
X133132000Y-96771547D01*
X133134447Y-96746701D01*
X133132852Y-96730508D01*
X133257390Y-96663942D01*
X133429607Y-96522607D01*
X133570942Y-96350390D01*
X133675963Y-96153909D01*
X133740635Y-95940715D01*
X133757000Y-95774558D01*
X133757000Y-94163442D01*
X133740635Y-93997285D01*
X133675963Y-93784091D01*
X133570942Y-93587610D01*
X133429607Y-93415393D01*
X133257390Y-93274058D01*
X133060909Y-93169037D01*
X132847715Y-93104365D01*
X132626000Y-93082528D01*
X132404286Y-93104365D01*
X132191092Y-93169037D01*
X131994611Y-93274058D01*
X131822394Y-93415393D01*
X131681059Y-93587610D01*
X131576038Y-93784091D01*
X131511365Y-93997285D01*
X131495000Y-94163442D01*
X131495000Y-95774557D01*
X131511365Y-95940714D01*
X131576037Y-96153908D01*
X131681058Y-96350390D01*
X131822393Y-96522607D01*
X131993817Y-96663291D01*
X127840781Y-100816328D01*
X127821474Y-100832173D01*
X127758242Y-100909221D01*
X127750792Y-100923159D01*
X127711255Y-100997126D01*
X127682322Y-101092508D01*
X127672553Y-101191700D01*
X127675001Y-101216556D01*
X127675001Y-101971635D01*
X127549610Y-102038658D01*
X127377393Y-102179993D01*
X127236058Y-102352210D01*
X127131037Y-102548692D01*
X127066365Y-102761886D01*
X127050000Y-102928043D01*
X127050000Y-104539158D01*
X127066365Y-104705315D01*
X127131038Y-104918509D01*
X127236059Y-105114990D01*
X127377394Y-105287207D01*
X127549611Y-105428542D01*
X127746092Y-105533563D01*
X127959286Y-105598235D01*
X128181000Y-105620072D01*
X128402715Y-105598235D01*
X128615909Y-105533563D01*
X128812390Y-105428542D01*
X128984607Y-105287207D01*
X129081990Y-105168545D01*
X129081991Y-107088547D01*
X129079533Y-107113501D01*
X129089342Y-107213085D01*
X129118390Y-107308844D01*
X129165561Y-107397096D01*
X129203940Y-107443861D01*
X129229043Y-107474449D01*
X129248420Y-107490351D01*
X129855192Y-108097123D01*
X129651091Y-108159037D01*
X129454610Y-108264058D01*
X129282393Y-108405393D01*
X129141058Y-108577610D01*
X129036037Y-108774092D01*
X128971365Y-108987286D01*
X128955000Y-109153443D01*
X128955000Y-110764558D01*
X128971365Y-110930715D01*
X129036038Y-111143909D01*
X129141059Y-111340390D01*
X129282394Y-111512607D01*
X129439247Y-111641333D01*
X128881434Y-112199146D01*
X128862051Y-112215053D01*
X128798570Y-112292406D01*
X128751398Y-112380659D01*
X128722350Y-112476417D01*
X128715757Y-112543363D01*
X128712542Y-112576001D01*
X128714999Y-112600945D01*
X128715000Y-121347045D01*
X128712542Y-121371999D01*
X128717016Y-121417418D01*
X128722351Y-121471584D01*
X128739591Y-121528415D01*
X128751399Y-121567342D01*
X128798570Y-121655594D01*
X128836974Y-121702389D01*
X128862052Y-121732947D01*
X128881430Y-121748850D01*
X128973142Y-121840561D01*
X128989052Y-121859948D01*
X129066405Y-121923429D01*
X129154657Y-121970601D01*
X129221157Y-121990774D01*
X129221157Y-122299000D01*
X129228513Y-122373689D01*
X129250299Y-122445508D01*
X129285678Y-122511696D01*
X129333289Y-122569711D01*
X129391304Y-122617322D01*
X129457492Y-122652701D01*
X129529311Y-122674487D01*
X129604000Y-122681843D01*
X131204000Y-122681843D01*
X131278689Y-122674487D01*
X131350508Y-122652701D01*
X131416696Y-122617322D01*
X131474711Y-122569711D01*
X131522322Y-122511696D01*
X131557701Y-122445508D01*
X131579487Y-122373689D01*
X131582605Y-122342025D01*
X132262146Y-123021566D01*
X132278053Y-123040949D01*
X132355406Y-123104430D01*
X132443658Y-123151602D01*
X132539416Y-123180650D01*
X132614054Y-123188001D01*
X132614057Y-123188001D01*
X132639001Y-123190458D01*
X132663945Y-123188001D01*
X146789253Y-123188001D01*
X146814197Y-123190458D01*
X146839141Y-123188001D01*
X146839144Y-123188001D01*
X146913782Y-123180650D01*
X147009540Y-123151602D01*
X147097792Y-123104430D01*
X147175145Y-123040949D01*
X147191052Y-123021566D01*
X147915157Y-122297461D01*
X147915157Y-123482000D01*
X147922513Y-123556689D01*
X147944299Y-123628508D01*
X147979678Y-123694696D01*
X148027289Y-123752711D01*
X148085304Y-123800322D01*
X148151492Y-123835701D01*
X148223311Y-123857487D01*
X148298000Y-123864843D01*
X149898000Y-123864843D01*
X149972689Y-123857487D01*
X150044508Y-123835701D01*
X150110696Y-123800322D01*
X150168711Y-123752711D01*
X150216322Y-123694696D01*
X150251701Y-123628508D01*
X150273487Y-123556689D01*
X150280843Y-123482000D01*
X150280843Y-121882000D01*
X150273487Y-121807311D01*
X150251701Y-121735492D01*
X150216322Y-121669304D01*
X150168711Y-121611289D01*
X150110696Y-121563678D01*
X150044508Y-121528299D01*
X149972689Y-121506513D01*
X149941026Y-121503395D01*
X149943432Y-121500989D01*
X152100591Y-121500989D01*
X152033690Y-121567890D01*
X151869516Y-121518088D01*
X151696016Y-121501000D01*
X151579984Y-121501000D01*
X151406484Y-121518088D01*
X151183864Y-121585619D01*
X150978697Y-121695283D01*
X150798866Y-121842866D01*
X150651283Y-122022697D01*
X150541619Y-122227864D01*
X150474088Y-122450484D01*
X150451286Y-122682000D01*
X150474088Y-122913516D01*
X150541619Y-123136136D01*
X150651283Y-123341303D01*
X150798866Y-123521134D01*
X150978697Y-123668717D01*
X151183864Y-123778381D01*
X151406484Y-123845912D01*
X151579984Y-123863000D01*
X151696016Y-123863000D01*
X151869516Y-123845912D01*
X152092136Y-123778381D01*
X152297303Y-123668717D01*
X152477134Y-123521134D01*
X152624717Y-123341303D01*
X152734381Y-123136136D01*
X152801912Y-122913516D01*
X152824714Y-122682000D01*
X152801912Y-122450484D01*
X152752110Y-122286310D01*
X153029421Y-122008999D01*
X153202525Y-122008999D01*
X153191283Y-122022697D01*
X153081619Y-122227864D01*
X153014088Y-122450484D01*
X152991286Y-122682000D01*
X153014088Y-122913516D01*
X153081619Y-123136136D01*
X153191283Y-123341303D01*
X153338866Y-123521134D01*
X153518697Y-123668717D01*
X153723864Y-123778381D01*
X153946484Y-123845912D01*
X154119984Y-123863000D01*
X154236016Y-123863000D01*
X154409516Y-123845912D01*
X154632136Y-123778381D01*
X154837303Y-123668717D01*
X155017134Y-123521134D01*
X155164717Y-123341303D01*
X155245590Y-123190000D01*
X166198841Y-123190000D01*
X166136486Y-123223329D01*
X166064903Y-123467298D01*
X166878000Y-124280395D01*
X167691097Y-123467298D01*
X167619514Y-123223329D01*
X167549077Y-123190000D01*
X173711056Y-123190000D01*
X173736000Y-123192457D01*
X173760944Y-123190000D01*
X173760947Y-123190000D01*
X173835585Y-123182649D01*
X173899753Y-123163184D01*
X173760580Y-123228963D01*
X173534586Y-123396481D01*
X173345615Y-123604869D01*
X173200930Y-123846119D01*
X173106091Y-124110960D01*
X173227376Y-124333000D01*
X174371000Y-124333000D01*
X174371000Y-123190085D01*
X174625000Y-123190085D01*
X174625000Y-124333000D01*
X175768624Y-124333000D01*
X175889909Y-124110960D01*
X176916091Y-124110960D01*
X177037376Y-124333000D01*
X178181000Y-124333000D01*
X178181000Y-123190085D01*
X178435000Y-123190085D01*
X178435000Y-124333000D01*
X179578624Y-124333000D01*
X179699909Y-124110960D01*
X180726091Y-124110960D01*
X180847376Y-124333000D01*
X181991000Y-124333000D01*
X181991000Y-123190085D01*
X182245000Y-123190085D01*
X182245000Y-124333000D01*
X183388624Y-124333000D01*
X183509909Y-124110960D01*
X183415070Y-123846119D01*
X183270385Y-123604869D01*
X183081414Y-123396481D01*
X182855420Y-123228963D01*
X182601087Y-123108754D01*
X182467039Y-123068096D01*
X182245000Y-123190085D01*
X181991000Y-123190085D01*
X181768961Y-123068096D01*
X181634913Y-123108754D01*
X181380580Y-123228963D01*
X181154586Y-123396481D01*
X180965615Y-123604869D01*
X180820930Y-123846119D01*
X180726091Y-124110960D01*
X179699909Y-124110960D01*
X179605070Y-123846119D01*
X179460385Y-123604869D01*
X179271414Y-123396481D01*
X179045420Y-123228963D01*
X178791087Y-123108754D01*
X178657039Y-123068096D01*
X178435000Y-123190085D01*
X178181000Y-123190085D01*
X177958961Y-123068096D01*
X177824913Y-123108754D01*
X177570580Y-123228963D01*
X177344586Y-123396481D01*
X177155615Y-123604869D01*
X177010930Y-123846119D01*
X176916091Y-124110960D01*
X175889909Y-124110960D01*
X175795070Y-123846119D01*
X175650385Y-123604869D01*
X175461414Y-123396481D01*
X175235420Y-123228963D01*
X174981087Y-123108754D01*
X174847039Y-123068096D01*
X174625000Y-123190085D01*
X174371000Y-123190085D01*
X174148961Y-123068096D01*
X174015681Y-123108521D01*
X174019595Y-123106429D01*
X174096948Y-123042948D01*
X174112855Y-123023565D01*
X181722103Y-115414318D01*
X181773515Y-115435614D01*
X182001682Y-115481000D01*
X182234318Y-115481000D01*
X182462485Y-115435614D01*
X182677413Y-115346588D01*
X182870843Y-115217342D01*
X183035342Y-115052843D01*
X183164588Y-114859413D01*
X183253614Y-114644485D01*
X183299000Y-114416318D01*
X183299000Y-114183682D01*
X183253614Y-113955515D01*
X183164588Y-113740587D01*
X183035342Y-113547157D01*
X182870843Y-113382658D01*
X182677413Y-113253412D01*
X182462485Y-113164386D01*
X182234318Y-113119000D01*
X182001682Y-113119000D01*
X181773515Y-113164386D01*
X181558587Y-113253412D01*
X181365157Y-113382658D01*
X181200658Y-113547157D01*
X181071412Y-113740587D01*
X180982386Y-113955515D01*
X180937000Y-114183682D01*
X180937000Y-114416318D01*
X180982386Y-114644485D01*
X181003682Y-114695897D01*
X178816000Y-116883579D01*
X178816000Y-115367884D01*
X178867413Y-115346588D01*
X179060843Y-115217342D01*
X179225342Y-115052843D01*
X179354588Y-114859413D01*
X179443614Y-114644485D01*
X179489000Y-114416318D01*
X179489000Y-114183682D01*
X179443614Y-113955515D01*
X179354588Y-113740587D01*
X179225342Y-113547157D01*
X179060843Y-113382658D01*
X178867413Y-113253412D01*
X178652485Y-113164386D01*
X178424318Y-113119000D01*
X178191682Y-113119000D01*
X177963515Y-113164386D01*
X177748587Y-113253412D01*
X177555157Y-113382658D01*
X177390658Y-113547157D01*
X177261412Y-113740587D01*
X177172386Y-113955515D01*
X177127000Y-114183682D01*
X177127000Y-114416318D01*
X177172386Y-114644485D01*
X177261412Y-114859413D01*
X177390658Y-115052843D01*
X177555157Y-115217342D01*
X177748587Y-115346588D01*
X177800000Y-115367884D01*
X177800000Y-117181146D01*
X175006000Y-119975146D01*
X175006000Y-115367884D01*
X175057413Y-115346588D01*
X175250843Y-115217342D01*
X175415342Y-115052843D01*
X175544588Y-114859413D01*
X175633614Y-114644485D01*
X175679000Y-114416318D01*
X175679000Y-114183682D01*
X175633614Y-113955515D01*
X175544588Y-113740587D01*
X175415342Y-113547157D01*
X175250843Y-113382658D01*
X175222962Y-113364028D01*
X176174017Y-113364028D01*
X176198971Y-113366486D01*
X176289645Y-113357555D01*
X176298556Y-113356677D01*
X176394314Y-113327629D01*
X176482566Y-113280458D01*
X176540541Y-113232879D01*
X176540542Y-113232878D01*
X176559919Y-113216976D01*
X176575821Y-113197599D01*
X177990399Y-111783021D01*
X178124286Y-111823635D01*
X178346000Y-111845472D01*
X178567715Y-111823635D01*
X178780909Y-111758963D01*
X178977390Y-111653942D01*
X179149607Y-111512607D01*
X179290942Y-111340390D01*
X179395963Y-111143909D01*
X179460635Y-110930715D01*
X179477000Y-110764558D01*
X179477000Y-109153442D01*
X179460635Y-108987285D01*
X179395963Y-108774091D01*
X179290942Y-108577610D01*
X179149607Y-108405393D01*
X178977390Y-108264058D01*
X178780908Y-108159037D01*
X178567714Y-108094365D01*
X178346000Y-108072528D01*
X178124285Y-108094365D01*
X177911091Y-108159037D01*
X177714610Y-108264058D01*
X177542393Y-108405393D01*
X177445010Y-108524054D01*
X177445010Y-106008553D01*
X177447467Y-105983609D01*
X177445010Y-105958663D01*
X177437659Y-105884025D01*
X177408611Y-105788267D01*
X177377177Y-105729458D01*
X177361439Y-105700014D01*
X177313860Y-105642039D01*
X177297958Y-105622662D01*
X177278580Y-105606759D01*
X177087754Y-105415933D01*
X177244607Y-105287207D01*
X177385942Y-105114990D01*
X177490963Y-104918509D01*
X177555635Y-104705315D01*
X177572000Y-104539158D01*
X177572000Y-102928042D01*
X177555635Y-102761885D01*
X177490963Y-102548691D01*
X177385942Y-102352210D01*
X177244607Y-102179993D01*
X177072390Y-102038658D01*
X176875908Y-101933637D01*
X176662714Y-101868965D01*
X176441000Y-101847128D01*
X176219285Y-101868965D01*
X176006091Y-101933637D01*
X175809610Y-102038658D01*
X175637393Y-102179993D01*
X175496058Y-102352210D01*
X175391037Y-102548692D01*
X175326365Y-102761886D01*
X175310000Y-102928043D01*
X175310000Y-104539158D01*
X175326365Y-104705315D01*
X175391038Y-104918509D01*
X175496059Y-105114990D01*
X175637394Y-105287207D01*
X175809611Y-105428542D01*
X175931123Y-105493492D01*
X175937594Y-105559181D01*
X175940352Y-105587185D01*
X175949681Y-105617938D01*
X175969400Y-105682943D01*
X176016571Y-105771195D01*
X176064150Y-105829170D01*
X176080053Y-105848548D01*
X176099430Y-105864450D01*
X176429010Y-106194031D01*
X176429010Y-108259579D01*
X176240908Y-108159037D01*
X176027714Y-108094365D01*
X175806000Y-108072528D01*
X175584285Y-108094365D01*
X175371091Y-108159037D01*
X175174610Y-108264058D01*
X175002393Y-108405393D01*
X174873756Y-108562138D01*
X174868611Y-108545178D01*
X174821439Y-108456926D01*
X174757958Y-108379573D01*
X174738575Y-108363666D01*
X171869263Y-105494354D01*
X171992390Y-105428542D01*
X172164607Y-105287207D01*
X172305942Y-105114990D01*
X172410963Y-104918509D01*
X172475635Y-104705315D01*
X172492000Y-104539158D01*
X172492000Y-102928043D01*
X172770000Y-102928043D01*
X172770000Y-104539158D01*
X172786365Y-104705315D01*
X172851038Y-104918509D01*
X172956059Y-105114990D01*
X173097394Y-105287207D01*
X173269611Y-105428542D01*
X173466092Y-105533563D01*
X173679286Y-105598235D01*
X173901000Y-105620072D01*
X174122715Y-105598235D01*
X174335909Y-105533563D01*
X174532390Y-105428542D01*
X174704607Y-105287207D01*
X174845942Y-105114990D01*
X174950963Y-104918509D01*
X175015635Y-104705315D01*
X175032000Y-104539158D01*
X175032000Y-102928042D01*
X175015635Y-102761885D01*
X174950963Y-102548691D01*
X174845942Y-102352210D01*
X174704607Y-102179993D01*
X174532390Y-102038658D01*
X174335908Y-101933637D01*
X174122714Y-101868965D01*
X173901000Y-101847128D01*
X173679285Y-101868965D01*
X173466091Y-101933637D01*
X173269610Y-102038658D01*
X173097393Y-102179993D01*
X172956058Y-102352210D01*
X172851037Y-102548692D01*
X172786365Y-102761886D01*
X172770000Y-102928043D01*
X172492000Y-102928043D01*
X172492000Y-102928042D01*
X172475635Y-102761885D01*
X172410963Y-102548691D01*
X172305942Y-102352210D01*
X172164607Y-102179993D01*
X171992390Y-102038658D01*
X171795908Y-101933637D01*
X171582714Y-101868965D01*
X171361000Y-101847128D01*
X171139285Y-101868965D01*
X170926091Y-101933637D01*
X170729610Y-102038658D01*
X170589896Y-102153318D01*
X170571560Y-102138270D01*
X169944314Y-101511025D01*
X169928407Y-101491642D01*
X169851725Y-101428712D01*
X173119344Y-101428712D01*
X173144288Y-101431169D01*
X173169232Y-101428712D01*
X173169235Y-101428712D01*
X173243873Y-101421361D01*
X173339631Y-101392313D01*
X173427883Y-101345141D01*
X173505236Y-101281660D01*
X173521143Y-101262277D01*
X177990399Y-96793021D01*
X178124286Y-96833635D01*
X178346000Y-96855472D01*
X178567715Y-96833635D01*
X178780909Y-96768963D01*
X178977390Y-96663942D01*
X179149607Y-96522607D01*
X179290942Y-96350390D01*
X179395963Y-96153909D01*
X179460635Y-95940715D01*
X179477000Y-95774558D01*
X179477000Y-94163442D01*
X179460635Y-93997285D01*
X179395963Y-93784091D01*
X179290942Y-93587610D01*
X179149607Y-93415393D01*
X178977390Y-93274058D01*
X178780908Y-93169037D01*
X178567714Y-93104365D01*
X178346000Y-93082528D01*
X178124285Y-93104365D01*
X177911091Y-93169037D01*
X177714610Y-93274058D01*
X177542393Y-93415393D01*
X177401058Y-93587610D01*
X177296037Y-93784092D01*
X177231365Y-93997286D01*
X177215000Y-94163443D01*
X177215000Y-95774558D01*
X177231365Y-95940715D01*
X177271980Y-96074600D01*
X172933868Y-100412712D01*
X171830708Y-100412712D01*
X175450400Y-96793021D01*
X175584285Y-96833635D01*
X175806000Y-96855472D01*
X176027714Y-96833635D01*
X176240908Y-96768963D01*
X176437390Y-96663942D01*
X176609607Y-96522607D01*
X176750942Y-96350390D01*
X176855963Y-96153909D01*
X176920635Y-95940715D01*
X176937000Y-95774558D01*
X176937000Y-94163442D01*
X176920635Y-93997285D01*
X176855963Y-93784091D01*
X176750942Y-93587610D01*
X176609607Y-93415393D01*
X176437390Y-93274058D01*
X176240909Y-93169037D01*
X176027715Y-93104365D01*
X175806000Y-93082528D01*
X175584286Y-93104365D01*
X175371092Y-93169037D01*
X175174611Y-93274058D01*
X175002394Y-93415393D01*
X174861059Y-93587610D01*
X174756038Y-93784091D01*
X174691365Y-93997285D01*
X174675000Y-94163442D01*
X174675000Y-95774557D01*
X174691365Y-95940714D01*
X174731979Y-96074600D01*
X170901878Y-99904702D01*
X169798718Y-99904702D01*
X172910400Y-96793021D01*
X173044285Y-96833635D01*
X173266000Y-96855472D01*
X173487714Y-96833635D01*
X173700908Y-96768963D01*
X173897390Y-96663942D01*
X174069607Y-96522607D01*
X174210942Y-96350390D01*
X174315963Y-96153909D01*
X174380635Y-95940715D01*
X174397000Y-95774558D01*
X174397000Y-94163442D01*
X174380635Y-93997285D01*
X174315963Y-93784091D01*
X174210942Y-93587610D01*
X174069607Y-93415393D01*
X173897390Y-93274058D01*
X173700909Y-93169037D01*
X173487715Y-93104365D01*
X173266000Y-93082528D01*
X173044286Y-93104365D01*
X172831092Y-93169037D01*
X172634611Y-93274058D01*
X172462394Y-93415393D01*
X172321059Y-93587610D01*
X172216038Y-93784091D01*
X172151365Y-93997285D01*
X172135000Y-94163442D01*
X172135000Y-95774557D01*
X172151365Y-95940714D01*
X172191979Y-96074600D01*
X168869888Y-99396692D01*
X167766728Y-99396692D01*
X170370399Y-96793021D01*
X170504285Y-96833635D01*
X170726000Y-96855472D01*
X170947714Y-96833635D01*
X171160908Y-96768963D01*
X171357390Y-96663942D01*
X171529607Y-96522607D01*
X171670942Y-96350390D01*
X171775963Y-96153909D01*
X171840635Y-95940715D01*
X171857000Y-95774558D01*
X171857000Y-94163442D01*
X171840635Y-93997285D01*
X171775963Y-93784091D01*
X171670942Y-93587610D01*
X171529607Y-93415393D01*
X171357390Y-93274058D01*
X171160909Y-93169037D01*
X170947715Y-93104365D01*
X170726000Y-93082528D01*
X170504286Y-93104365D01*
X170291092Y-93169037D01*
X170094611Y-93274058D01*
X169922394Y-93415393D01*
X169781059Y-93587610D01*
X169676038Y-93784091D01*
X169611365Y-93997285D01*
X169595000Y-94163442D01*
X169595000Y-95774557D01*
X169611365Y-95940714D01*
X169651979Y-96074601D01*
X166837898Y-98888682D01*
X165734738Y-98888682D01*
X167830400Y-96793021D01*
X167964285Y-96833635D01*
X168186000Y-96855472D01*
X168407714Y-96833635D01*
X168620908Y-96768963D01*
X168817390Y-96663942D01*
X168989607Y-96522607D01*
X169130942Y-96350390D01*
X169235963Y-96153909D01*
X169300635Y-95940715D01*
X169317000Y-95774558D01*
X169317000Y-94163442D01*
X169300635Y-93997285D01*
X169235963Y-93784091D01*
X169130942Y-93587610D01*
X168989607Y-93415393D01*
X168817390Y-93274058D01*
X168620909Y-93169037D01*
X168407715Y-93104365D01*
X168186000Y-93082528D01*
X167964286Y-93104365D01*
X167751092Y-93169037D01*
X167554611Y-93274058D01*
X167382394Y-93415393D01*
X167241059Y-93587610D01*
X167136038Y-93784091D01*
X167071365Y-93997285D01*
X167055000Y-94163442D01*
X167055000Y-95774557D01*
X167071365Y-95940714D01*
X167111979Y-96074600D01*
X164805908Y-98380672D01*
X163702748Y-98380672D01*
X165290400Y-96793021D01*
X165424285Y-96833635D01*
X165646000Y-96855472D01*
X165867714Y-96833635D01*
X166080908Y-96768963D01*
X166277390Y-96663942D01*
X166449607Y-96522607D01*
X166590942Y-96350390D01*
X166695963Y-96153909D01*
X166760635Y-95940715D01*
X166777000Y-95774558D01*
X166777000Y-94163442D01*
X166760635Y-93997285D01*
X166695963Y-93784091D01*
X166590942Y-93587610D01*
X166449607Y-93415393D01*
X166277390Y-93274058D01*
X166080909Y-93169037D01*
X165867715Y-93104365D01*
X165646000Y-93082528D01*
X165424286Y-93104365D01*
X165211092Y-93169037D01*
X165014611Y-93274058D01*
X164842394Y-93415393D01*
X164701059Y-93587610D01*
X164596038Y-93784091D01*
X164531365Y-93997285D01*
X164515000Y-94163442D01*
X164515000Y-95774557D01*
X164531365Y-95940714D01*
X164571979Y-96074600D01*
X162773918Y-97872662D01*
X161670758Y-97872662D01*
X162750399Y-96793021D01*
X162884285Y-96833635D01*
X163106000Y-96855472D01*
X163327714Y-96833635D01*
X163540908Y-96768963D01*
X163737390Y-96663942D01*
X163909607Y-96522607D01*
X164050942Y-96350390D01*
X164155963Y-96153909D01*
X164220635Y-95940715D01*
X164237000Y-95774558D01*
X164237000Y-94163442D01*
X164220635Y-93997285D01*
X164155963Y-93784091D01*
X164050942Y-93587610D01*
X163909607Y-93415393D01*
X163737390Y-93274058D01*
X163540909Y-93169037D01*
X163327715Y-93104365D01*
X163106000Y-93082528D01*
X162884286Y-93104365D01*
X162671092Y-93169037D01*
X162474611Y-93274058D01*
X162302394Y-93415393D01*
X162161059Y-93587610D01*
X162056038Y-93784091D01*
X161991365Y-93997285D01*
X161975000Y-94163442D01*
X161975000Y-95774557D01*
X161991365Y-95940714D01*
X162031979Y-96074601D01*
X160741928Y-97364652D01*
X160642768Y-97364652D01*
X160907565Y-97099855D01*
X160926948Y-97083948D01*
X160990429Y-97006595D01*
X161037601Y-96918343D01*
X161066649Y-96822585D01*
X161074000Y-96747947D01*
X161074000Y-96747944D01*
X161075877Y-96728892D01*
X161197390Y-96663942D01*
X161369607Y-96522607D01*
X161510942Y-96350390D01*
X161615963Y-96153909D01*
X161680635Y-95940715D01*
X161697000Y-95774558D01*
X161697000Y-94163442D01*
X161680635Y-93997285D01*
X161615963Y-93784091D01*
X161510942Y-93587610D01*
X161369607Y-93415393D01*
X161197390Y-93274058D01*
X161000909Y-93169037D01*
X160796808Y-93107123D01*
X163021322Y-90882610D01*
X165125046Y-90882610D01*
X165149990Y-90885067D01*
X165174934Y-90882610D01*
X165174937Y-90882610D01*
X165249575Y-90875259D01*
X165345333Y-90846211D01*
X165433585Y-90799039D01*
X165510938Y-90735558D01*
X165526845Y-90716175D01*
X165925399Y-90317621D01*
X166059286Y-90358235D01*
X166281000Y-90380072D01*
X166502715Y-90358235D01*
X166715909Y-90293563D01*
X166912390Y-90188542D01*
X167084607Y-90047207D01*
X167225942Y-89874990D01*
X167330963Y-89678509D01*
X167395635Y-89465315D01*
X167412000Y-89299158D01*
X167412000Y-87688043D01*
X167690000Y-87688043D01*
X167690000Y-89299158D01*
X167706365Y-89465315D01*
X167771038Y-89678509D01*
X167876059Y-89874990D01*
X168017394Y-90047207D01*
X168189611Y-90188542D01*
X168386092Y-90293563D01*
X168599286Y-90358235D01*
X168821000Y-90380072D01*
X169042715Y-90358235D01*
X169255909Y-90293563D01*
X169452390Y-90188542D01*
X169624607Y-90047207D01*
X169765942Y-89874990D01*
X169870963Y-89678509D01*
X169935635Y-89465315D01*
X169952000Y-89299158D01*
X169952000Y-87688043D01*
X170230000Y-87688043D01*
X170230000Y-89299158D01*
X170246365Y-89465315D01*
X170311038Y-89678509D01*
X170416059Y-89874990D01*
X170557394Y-90047207D01*
X170729611Y-90188542D01*
X170926092Y-90293563D01*
X171139286Y-90358235D01*
X171361000Y-90380072D01*
X171582715Y-90358235D01*
X171795909Y-90293563D01*
X171992390Y-90188542D01*
X172164607Y-90047207D01*
X172305942Y-89874990D01*
X172410963Y-89678509D01*
X172475635Y-89465315D01*
X172492000Y-89299158D01*
X172492000Y-87688043D01*
X172770000Y-87688043D01*
X172770000Y-89299158D01*
X172786365Y-89465315D01*
X172851038Y-89678509D01*
X172956059Y-89874990D01*
X173097394Y-90047207D01*
X173269611Y-90188542D01*
X173466092Y-90293563D01*
X173679286Y-90358235D01*
X173901000Y-90380072D01*
X174122715Y-90358235D01*
X174335909Y-90293563D01*
X174532390Y-90188542D01*
X174704607Y-90047207D01*
X174845942Y-89874990D01*
X174950963Y-89678509D01*
X175015635Y-89465315D01*
X175032000Y-89299158D01*
X175032000Y-88620600D01*
X175056000Y-88620600D01*
X175056000Y-89370600D01*
X175107389Y-89638360D01*
X175210028Y-89890949D01*
X175359972Y-90118661D01*
X175551460Y-90312745D01*
X175777132Y-90465742D01*
X176028316Y-90571773D01*
X176099815Y-90585918D01*
X176314000Y-90463256D01*
X176314000Y-88620600D01*
X176568000Y-88620600D01*
X176568000Y-90463256D01*
X176782185Y-90585918D01*
X176853684Y-90571773D01*
X177104868Y-90465742D01*
X177330540Y-90312745D01*
X177522028Y-90118661D01*
X177671972Y-89890949D01*
X177774611Y-89638360D01*
X177826000Y-89370600D01*
X177826000Y-88620600D01*
X176568000Y-88620600D01*
X176314000Y-88620600D01*
X175056000Y-88620600D01*
X175032000Y-88620600D01*
X175032000Y-87688042D01*
X175024964Y-87616600D01*
X175056000Y-87616600D01*
X175056000Y-88366600D01*
X176314000Y-88366600D01*
X176314000Y-86523944D01*
X176568000Y-86523944D01*
X176568000Y-88366600D01*
X177826000Y-88366600D01*
X177826000Y-87616600D01*
X177774611Y-87348840D01*
X177671972Y-87096251D01*
X177522028Y-86868539D01*
X177330540Y-86674455D01*
X177104868Y-86521458D01*
X176853684Y-86415427D01*
X176782185Y-86401282D01*
X176568000Y-86523944D01*
X176314000Y-86523944D01*
X176099815Y-86401282D01*
X176028316Y-86415427D01*
X175777132Y-86521458D01*
X175551460Y-86674455D01*
X175359972Y-86868539D01*
X175210028Y-87096251D01*
X175107389Y-87348840D01*
X175056000Y-87616600D01*
X175024964Y-87616600D01*
X175015635Y-87521885D01*
X174950963Y-87308691D01*
X174845942Y-87112210D01*
X174704607Y-86939993D01*
X174532390Y-86798658D01*
X174335908Y-86693637D01*
X174122714Y-86628965D01*
X173901000Y-86607128D01*
X173679285Y-86628965D01*
X173466091Y-86693637D01*
X173269610Y-86798658D01*
X173097393Y-86939993D01*
X172956058Y-87112210D01*
X172851037Y-87308692D01*
X172786365Y-87521886D01*
X172770000Y-87688043D01*
X172492000Y-87688043D01*
X172492000Y-87688042D01*
X172475635Y-87521885D01*
X172410963Y-87308691D01*
X172305942Y-87112210D01*
X172164607Y-86939993D01*
X171992390Y-86798658D01*
X171795908Y-86693637D01*
X171582714Y-86628965D01*
X171361000Y-86607128D01*
X171139285Y-86628965D01*
X170926091Y-86693637D01*
X170729610Y-86798658D01*
X170557393Y-86939993D01*
X170416058Y-87112210D01*
X170311037Y-87308692D01*
X170246365Y-87521886D01*
X170230000Y-87688043D01*
X169952000Y-87688043D01*
X169952000Y-87688042D01*
X169935635Y-87521885D01*
X169870963Y-87308691D01*
X169765942Y-87112210D01*
X169624607Y-86939993D01*
X169452390Y-86798658D01*
X169255908Y-86693637D01*
X169042714Y-86628965D01*
X168821000Y-86607128D01*
X168599285Y-86628965D01*
X168386091Y-86693637D01*
X168189610Y-86798658D01*
X168017393Y-86939993D01*
X167876058Y-87112210D01*
X167771037Y-87308692D01*
X167706365Y-87521886D01*
X167690000Y-87688043D01*
X167412000Y-87688043D01*
X167412000Y-87688042D01*
X167395635Y-87521885D01*
X167330963Y-87308691D01*
X167225942Y-87112210D01*
X167084607Y-86939993D01*
X166912390Y-86798658D01*
X166715908Y-86693637D01*
X166502714Y-86628965D01*
X166281000Y-86607128D01*
X166059285Y-86628965D01*
X165846091Y-86693637D01*
X165649610Y-86798658D01*
X165477393Y-86939993D01*
X165336058Y-87112210D01*
X165231037Y-87308692D01*
X165166365Y-87521886D01*
X165150000Y-87688043D01*
X165150000Y-89299158D01*
X165166365Y-89465315D01*
X165206980Y-89599200D01*
X164939570Y-89866610D01*
X164690421Y-89866610D01*
X164790963Y-89678509D01*
X164855635Y-89465315D01*
X164872000Y-89299158D01*
X164872000Y-87688042D01*
X164855635Y-87521885D01*
X164790963Y-87308691D01*
X164685942Y-87112210D01*
X164544607Y-86939993D01*
X164372390Y-86798658D01*
X164175908Y-86693637D01*
X163962714Y-86628965D01*
X163741000Y-86607128D01*
X163519285Y-86628965D01*
X163306091Y-86693637D01*
X163109610Y-86798658D01*
X162937393Y-86939993D01*
X162796058Y-87112210D01*
X162691037Y-87308692D01*
X162626365Y-87521886D01*
X162610000Y-87688043D01*
X162610000Y-89299158D01*
X162626365Y-89465315D01*
X162691038Y-89678509D01*
X162791299Y-89866084D01*
X162785956Y-89866610D01*
X162785954Y-89866610D01*
X162711316Y-89873961D01*
X162615558Y-89903009D01*
X162599162Y-89911773D01*
X162527305Y-89950181D01*
X162480222Y-89988821D01*
X162449953Y-90013662D01*
X162434051Y-90033039D01*
X159093420Y-93373671D01*
X159074043Y-93389573D01*
X159058141Y-93408950D01*
X159058140Y-93408951D01*
X159010561Y-93466926D01*
X158966366Y-93549610D01*
X158963390Y-93555178D01*
X158958245Y-93572139D01*
X158829607Y-93415393D01*
X158657390Y-93274058D01*
X158460909Y-93169037D01*
X158247715Y-93104365D01*
X158026000Y-93082528D01*
X157804286Y-93104365D01*
X157670399Y-93144979D01*
X155220010Y-90694590D01*
X155220010Y-89928544D01*
X155317394Y-90047207D01*
X155489611Y-90188542D01*
X155686092Y-90293563D01*
X155899286Y-90358235D01*
X156121000Y-90380072D01*
X156342715Y-90358235D01*
X156555909Y-90293563D01*
X156752390Y-90188542D01*
X156924607Y-90047207D01*
X157065942Y-89874990D01*
X157170963Y-89678509D01*
X157235635Y-89465315D01*
X157252000Y-89299158D01*
X157252000Y-87688043D01*
X157530000Y-87688043D01*
X157530000Y-89299158D01*
X157546365Y-89465315D01*
X157611038Y-89678509D01*
X157716059Y-89874990D01*
X157857394Y-90047207D01*
X158029611Y-90188542D01*
X158226092Y-90293563D01*
X158439286Y-90358235D01*
X158661000Y-90380072D01*
X158882715Y-90358235D01*
X159095909Y-90293563D01*
X159292390Y-90188542D01*
X159464607Y-90047207D01*
X159605942Y-89874990D01*
X159710963Y-89678509D01*
X159775635Y-89465315D01*
X159792000Y-89299158D01*
X159792000Y-87688043D01*
X160070000Y-87688043D01*
X160070000Y-89299158D01*
X160086365Y-89465315D01*
X160151038Y-89678509D01*
X160256059Y-89874990D01*
X160397394Y-90047207D01*
X160569611Y-90188542D01*
X160766092Y-90293563D01*
X160979286Y-90358235D01*
X161201000Y-90380072D01*
X161422715Y-90358235D01*
X161635909Y-90293563D01*
X161832390Y-90188542D01*
X162004607Y-90047207D01*
X162145942Y-89874990D01*
X162250963Y-89678509D01*
X162315635Y-89465315D01*
X162332000Y-89299158D01*
X162332000Y-87688042D01*
X162315635Y-87521885D01*
X162250963Y-87308691D01*
X162145942Y-87112210D01*
X162004607Y-86939993D01*
X161832390Y-86798658D01*
X161635908Y-86693637D01*
X161422714Y-86628965D01*
X161201000Y-86607128D01*
X160979285Y-86628965D01*
X160766091Y-86693637D01*
X160569610Y-86798658D01*
X160397393Y-86939993D01*
X160256058Y-87112210D01*
X160151037Y-87308692D01*
X160086365Y-87521886D01*
X160070000Y-87688043D01*
X159792000Y-87688043D01*
X159792000Y-87688042D01*
X159775635Y-87521885D01*
X159710963Y-87308691D01*
X159605942Y-87112210D01*
X159464607Y-86939993D01*
X159292390Y-86798658D01*
X159095908Y-86693637D01*
X158882714Y-86628965D01*
X158661000Y-86607128D01*
X158439285Y-86628965D01*
X158226091Y-86693637D01*
X158029610Y-86798658D01*
X157857393Y-86939993D01*
X157716058Y-87112210D01*
X157611037Y-87308692D01*
X157546365Y-87521886D01*
X157530000Y-87688043D01*
X157252000Y-87688043D01*
X157252000Y-87688042D01*
X157235635Y-87521885D01*
X157170963Y-87308691D01*
X157065942Y-87112210D01*
X156924607Y-86939993D01*
X156752390Y-86798658D01*
X156555908Y-86693637D01*
X156342714Y-86628965D01*
X156121000Y-86607128D01*
X155899285Y-86628965D01*
X155686091Y-86693637D01*
X155489610Y-86798658D01*
X155317393Y-86939993D01*
X155188756Y-87096738D01*
X155183611Y-87079778D01*
X155136439Y-86991526D01*
X155072958Y-86914173D01*
X155053575Y-86898266D01*
X153410314Y-85255005D01*
X153394407Y-85235622D01*
X153317054Y-85172141D01*
X153228802Y-85124969D01*
X153133044Y-85095921D01*
X153058406Y-85088570D01*
X153058403Y-85088570D01*
X153033459Y-85086113D01*
X153008515Y-85088570D01*
X130352974Y-85088570D01*
X130328030Y-85086113D01*
X130303086Y-85088570D01*
X130303083Y-85088570D01*
X130228445Y-85095921D01*
X130132687Y-85124969D01*
X130091606Y-85146927D01*
X130044434Y-85172141D01*
X129989840Y-85216946D01*
X129967082Y-85235622D01*
X129951180Y-85254999D01*
X128536600Y-86669579D01*
X128402714Y-86628965D01*
X128181000Y-86607128D01*
X127959285Y-86628965D01*
X127746091Y-86693637D01*
X127549610Y-86798658D01*
X127377393Y-86939993D01*
X127236058Y-87112210D01*
X127131037Y-87308692D01*
X127066365Y-87521886D01*
X127050000Y-87688043D01*
X126772000Y-87688043D01*
X126772000Y-87688042D01*
X126755635Y-87521885D01*
X126690963Y-87308691D01*
X126585942Y-87112210D01*
X126444607Y-86939993D01*
X126272390Y-86798658D01*
X126075908Y-86693637D01*
X125862714Y-86628965D01*
X125641000Y-86607128D01*
X125419285Y-86628965D01*
X125206091Y-86693637D01*
X125009610Y-86798658D01*
X124837393Y-86939993D01*
X124696058Y-87112210D01*
X124591037Y-87308692D01*
X124526365Y-87521886D01*
X124510000Y-87688043D01*
X124232000Y-87688043D01*
X124232000Y-87688042D01*
X124215635Y-87521885D01*
X124150963Y-87308691D01*
X124045942Y-87112210D01*
X123904607Y-86939993D01*
X123732390Y-86798658D01*
X123535908Y-86693637D01*
X123322714Y-86628965D01*
X123101000Y-86607128D01*
X122879285Y-86628965D01*
X122666091Y-86693637D01*
X122469610Y-86798658D01*
X122297393Y-86939993D01*
X122156058Y-87112210D01*
X122051037Y-87308692D01*
X121986365Y-87521886D01*
X121970000Y-87688043D01*
X121692000Y-87688043D01*
X121692000Y-87688042D01*
X121675635Y-87521885D01*
X121610963Y-87308691D01*
X121505942Y-87112210D01*
X121364607Y-86939993D01*
X121192390Y-86798658D01*
X120995908Y-86693637D01*
X120782714Y-86628965D01*
X120561000Y-86607128D01*
X120339285Y-86628965D01*
X120126091Y-86693637D01*
X119929610Y-86798658D01*
X119757393Y-86939993D01*
X119616058Y-87112210D01*
X119511037Y-87308692D01*
X119446365Y-87521886D01*
X119430000Y-87688043D01*
X119152000Y-87688043D01*
X119152000Y-87688042D01*
X119135635Y-87521885D01*
X119070963Y-87308691D01*
X118965942Y-87112210D01*
X118824607Y-86939993D01*
X118652390Y-86798658D01*
X118455908Y-86693637D01*
X118242714Y-86628965D01*
X118021000Y-86607128D01*
X117799285Y-86628965D01*
X117586091Y-86693637D01*
X117389610Y-86798658D01*
X117217393Y-86939993D01*
X117076058Y-87112210D01*
X116971037Y-87308692D01*
X116906365Y-87521886D01*
X116890000Y-87688043D01*
X107542400Y-87688043D01*
X107542400Y-84720124D01*
X107563326Y-84506700D01*
X107622077Y-84312111D01*
X107717505Y-84132636D01*
X107845975Y-83975117D01*
X108002596Y-83845549D01*
X108181400Y-83748870D01*
X108375577Y-83688762D01*
X108588344Y-83666400D01*
X188456876Y-83666400D01*
X188670300Y-83687326D01*
X188670300Y-83687326D01*
G37*
X188670300Y-83687326D02*
X188864889Y-83746077D01*
X189044364Y-83841505D01*
X189201883Y-83969975D01*
X189331451Y-84126596D01*
X189428130Y-84305400D01*
X189488238Y-84499577D01*
X189510600Y-84712344D01*
X189510601Y-125337866D01*
X189492092Y-125526632D01*
X189440507Y-125697489D01*
X189356714Y-125855083D01*
X189243909Y-125993394D01*
X189106386Y-126107163D01*
X188949385Y-126192054D01*
X188778888Y-126244832D01*
X188590800Y-126264600D01*
X128789124Y-126264600D01*
X128600368Y-126246092D01*
X128429511Y-126194507D01*
X128271917Y-126110714D01*
X128133606Y-125997909D01*
X128019837Y-125860386D01*
X127934946Y-125703385D01*
X127882168Y-125532888D01*
X127873741Y-125452702D01*
X166064903Y-125452702D01*
X166136486Y-125696671D01*
X166391996Y-125817571D01*
X166666184Y-125886300D01*
X166948512Y-125900217D01*
X167228130Y-125858787D01*
X167494292Y-125763603D01*
X167619514Y-125696671D01*
X167691097Y-125452702D01*
X166878000Y-124639605D01*
X166064903Y-125452702D01*
X127873741Y-125452702D01*
X127862400Y-125344800D01*
X127862400Y-124530512D01*
X165437783Y-124530512D01*
X165479213Y-124810130D01*
X165574397Y-125076292D01*
X165641329Y-125201514D01*
X165885298Y-125273097D01*
X166698395Y-124460000D01*
X167057605Y-124460000D01*
X167870702Y-125273097D01*
X168114671Y-125201514D01*
X168235571Y-124946004D01*
X168304300Y-124671816D01*
X168318217Y-124389488D01*
X168311431Y-124343682D01*
X169507000Y-124343682D01*
X169507000Y-124576318D01*
X169552386Y-124804485D01*
X169641412Y-125019413D01*
X169770658Y-125212843D01*
X169935157Y-125377342D01*
X170128587Y-125506588D01*
X170343515Y-125595614D01*
X170571682Y-125641000D01*
X170804318Y-125641000D01*
X171032485Y-125595614D01*
X171247413Y-125506588D01*
X171440843Y-125377342D01*
X171605342Y-125212843D01*
X171734588Y-125019413D01*
X171821727Y-124809040D01*
X173106091Y-124809040D01*
X173200930Y-125073881D01*
X173345615Y-125315131D01*
X173534586Y-125523519D01*
X173760580Y-125691037D01*
X174014913Y-125811246D01*
X174148961Y-125851904D01*
X174371000Y-125729915D01*
X174371000Y-124587000D01*
X174625000Y-124587000D01*
X174625000Y-125729915D01*
X174847039Y-125851904D01*
X174981087Y-125811246D01*
X175235420Y-125691037D01*
X175461414Y-125523519D01*
X175650385Y-125315131D01*
X175795070Y-125073881D01*
X175889909Y-124809040D01*
X176916091Y-124809040D01*
X177010930Y-125073881D01*
X177155615Y-125315131D01*
X177344586Y-125523519D01*
X177570580Y-125691037D01*
X177824913Y-125811246D01*
X177958961Y-125851904D01*
X178181000Y-125729915D01*
X178181000Y-124587000D01*
X178435000Y-124587000D01*
X178435000Y-125729915D01*
X178657039Y-125851904D01*
X178791087Y-125811246D01*
X179045420Y-125691037D01*
X179271414Y-125523519D01*
X179460385Y-125315131D01*
X179605070Y-125073881D01*
X179699909Y-124809040D01*
X180726091Y-124809040D01*
X180820930Y-125073881D01*
X180965615Y-125315131D01*
X181154586Y-125523519D01*
X181380580Y-125691037D01*
X181634913Y-125811246D01*
X181768961Y-125851904D01*
X181991000Y-125729915D01*
X181991000Y-124587000D01*
X182245000Y-124587000D01*
X182245000Y-125729915D01*
X182467039Y-125851904D01*
X182601087Y-125811246D01*
X182855420Y-125691037D01*
X183081414Y-125523519D01*
X183270385Y-125315131D01*
X183415070Y-125073881D01*
X183509909Y-124809040D01*
X183388624Y-124587000D01*
X182245000Y-124587000D01*
X181991000Y-124587000D01*
X180847376Y-124587000D01*
X180726091Y-124809040D01*
X179699909Y-124809040D01*
X179578624Y-124587000D01*
X178435000Y-124587000D01*
X178181000Y-124587000D01*
X177037376Y-124587000D01*
X176916091Y-124809040D01*
X175889909Y-124809040D01*
X175768624Y-124587000D01*
X174625000Y-124587000D01*
X174371000Y-124587000D01*
X173227376Y-124587000D01*
X173106091Y-124809040D01*
X171821727Y-124809040D01*
X171823614Y-124804485D01*
X171869000Y-124576318D01*
X171869000Y-124343682D01*
X171823614Y-124115515D01*
X171734588Y-123900587D01*
X171605342Y-123707157D01*
X171440843Y-123542658D01*
X171247413Y-123413412D01*
X171032485Y-123324386D01*
X170804318Y-123279000D01*
X170571682Y-123279000D01*
X170343515Y-123324386D01*
X170128587Y-123413412D01*
X169935157Y-123542658D01*
X169770658Y-123707157D01*
X169641412Y-123900587D01*
X169552386Y-124115515D01*
X169507000Y-124343682D01*
X168311431Y-124343682D01*
X168276787Y-124109870D01*
X168181603Y-123843708D01*
X168114671Y-123718486D01*
X167870702Y-123646903D01*
X167057605Y-124460000D01*
X166698395Y-124460000D01*
X165885298Y-123646903D01*
X165641329Y-123718486D01*
X165520429Y-123973996D01*
X165451700Y-124248184D01*
X165437783Y-124530512D01*
X127862400Y-124530512D01*
X127862400Y-109970833D01*
X127861386Y-109960541D01*
X127861436Y-109953411D01*
X127861126Y-109950251D01*
X127837809Y-109728399D01*
X127833670Y-109708236D01*
X127829803Y-109687963D01*
X127828885Y-109684924D01*
X127762920Y-109471826D01*
X127754948Y-109452861D01*
X127747213Y-109433716D01*
X127745722Y-109430913D01*
X127639622Y-109234686D01*
X127628102Y-109217606D01*
X127616812Y-109200354D01*
X127614805Y-109197893D01*
X127472612Y-109026011D01*
X127458008Y-109011509D01*
X127443567Y-108996762D01*
X127441121Y-108994739D01*
X127268251Y-108853749D01*
X127251094Y-108842350D01*
X127234077Y-108830698D01*
X127231284Y-108829188D01*
X127034320Y-108724461D01*
X127015290Y-108716618D01*
X126996322Y-108708488D01*
X126993289Y-108707550D01*
X126779736Y-108643074D01*
X126759573Y-108639082D01*
X126739358Y-108634785D01*
X126736200Y-108634453D01*
X126514190Y-108612685D01*
X126514182Y-108612685D01*
X126503167Y-108611600D01*
X108469124Y-108611600D01*
X108280368Y-108593092D01*
X108109511Y-108541507D01*
X107951917Y-108457714D01*
X107813606Y-108344909D01*
X107699837Y-108207386D01*
X107614946Y-108050385D01*
X107562168Y-107879888D01*
X107542400Y-107691800D01*
X107542400Y-102928043D01*
X116890000Y-102928043D01*
X116890000Y-104539158D01*
X116906365Y-104705315D01*
X116971038Y-104918509D01*
X117076059Y-105114990D01*
X117217394Y-105287207D01*
X117389611Y-105428542D01*
X117586092Y-105533563D01*
X117799286Y-105598235D01*
X118021000Y-105620072D01*
X118242715Y-105598235D01*
X118455909Y-105533563D01*
X118652390Y-105428542D01*
X118824607Y-105287207D01*
X118965942Y-105114990D01*
X119070963Y-104918509D01*
X119135635Y-104705315D01*
X119152000Y-104539158D01*
X119152000Y-102928043D01*
X119430000Y-102928043D01*
X119430000Y-104539158D01*
X119446365Y-104705315D01*
X119511038Y-104918509D01*
X119616059Y-105114990D01*
X119757394Y-105287207D01*
X119929611Y-105428542D01*
X120126092Y-105533563D01*
X120339286Y-105598235D01*
X120561000Y-105620072D01*
X120782715Y-105598235D01*
X120995909Y-105533563D01*
X121192390Y-105428542D01*
X121364607Y-105287207D01*
X121505942Y-105114990D01*
X121610963Y-104918509D01*
X121675635Y-104705315D01*
X121692000Y-104539158D01*
X121692000Y-102928043D01*
X121970000Y-102928043D01*
X121970000Y-104539158D01*
X121986365Y-104705315D01*
X122051038Y-104918509D01*
X122156059Y-105114990D01*
X122297394Y-105287207D01*
X122469611Y-105428542D01*
X122666092Y-105533563D01*
X122879286Y-105598235D01*
X123101000Y-105620072D01*
X123322715Y-105598235D01*
X123535909Y-105533563D01*
X123732390Y-105428542D01*
X123904607Y-105287207D01*
X124045942Y-105114990D01*
X124150963Y-104918509D01*
X124215635Y-104705315D01*
X124232000Y-104539158D01*
X124232000Y-102928043D01*
X124510000Y-102928043D01*
X124510000Y-104539158D01*
X124526365Y-104705315D01*
X124591038Y-104918509D01*
X124696059Y-105114990D01*
X124837394Y-105287207D01*
X125009611Y-105428542D01*
X125206092Y-105533563D01*
X125419286Y-105598235D01*
X125641000Y-105620072D01*
X125862715Y-105598235D01*
X126075909Y-105533563D01*
X126272390Y-105428542D01*
X126444607Y-105287207D01*
X126585942Y-105114990D01*
X126690963Y-104918509D01*
X126755635Y-104705315D01*
X126772000Y-104539158D01*
X126772000Y-102928042D01*
X126755635Y-102761885D01*
X126690963Y-102548691D01*
X126585942Y-102352210D01*
X126444607Y-102179993D01*
X126272390Y-102038658D01*
X126075908Y-101933637D01*
X125862714Y-101868965D01*
X125641000Y-101847128D01*
X125419285Y-101868965D01*
X125206091Y-101933637D01*
X125009610Y-102038658D01*
X124837393Y-102179993D01*
X124696058Y-102352210D01*
X124591037Y-102548692D01*
X124526365Y-102761886D01*
X124510000Y-102928043D01*
X124232000Y-102928043D01*
X124232000Y-102928042D01*
X124215635Y-102761885D01*
X124150963Y-102548691D01*
X124045942Y-102352210D01*
X123904607Y-102179993D01*
X123732390Y-102038658D01*
X123535908Y-101933637D01*
X123322714Y-101868965D01*
X123101000Y-101847128D01*
X122879285Y-101868965D01*
X122666091Y-101933637D01*
X122469610Y-102038658D01*
X122297393Y-102179993D01*
X122156058Y-102352210D01*
X122051037Y-102548692D01*
X121986365Y-102761886D01*
X121970000Y-102928043D01*
X121692000Y-102928043D01*
X121692000Y-102928042D01*
X121675635Y-102761885D01*
X121610963Y-102548691D01*
X121505942Y-102352210D01*
X121364607Y-102179993D01*
X121192390Y-102038658D01*
X120995908Y-101933637D01*
X120782714Y-101868965D01*
X120561000Y-101847128D01*
X120339285Y-101868965D01*
X120126091Y-101933637D01*
X119929610Y-102038658D01*
X119757393Y-102179993D01*
X119616058Y-102352210D01*
X119511037Y-102548692D01*
X119446365Y-102761886D01*
X119430000Y-102928043D01*
X119152000Y-102928043D01*
X119152000Y-102928042D01*
X119135635Y-102761885D01*
X119070963Y-102548691D01*
X118965942Y-102352210D01*
X118824607Y-102179993D01*
X118652390Y-102038658D01*
X118455908Y-101933637D01*
X118242714Y-101868965D01*
X118021000Y-101847128D01*
X117799285Y-101868965D01*
X117586091Y-101933637D01*
X117389610Y-102038658D01*
X117217393Y-102179993D01*
X117076058Y-102352210D01*
X116971037Y-102548692D01*
X116906365Y-102761886D01*
X116890000Y-102928043D01*
X107542400Y-102928043D01*
X107542400Y-95096000D01*
X128701000Y-95096000D01*
X128701000Y-95846000D01*
X128752389Y-96113760D01*
X128855028Y-96366349D01*
X129004972Y-96594061D01*
X129196460Y-96788145D01*
X129422132Y-96941142D01*
X129673316Y-97047173D01*
X129744815Y-97061318D01*
X129959000Y-96938656D01*
X129959000Y-95096000D01*
X130213000Y-95096000D01*
X130213000Y-96938656D01*
X130427185Y-97061318D01*
X130498684Y-97047173D01*
X130749868Y-96941142D01*
X130975540Y-96788145D01*
X131167028Y-96594061D01*
X131316972Y-96366349D01*
X131419611Y-96113760D01*
X131471000Y-95846000D01*
X131471000Y-95096000D01*
X130213000Y-95096000D01*
X129959000Y-95096000D01*
X128701000Y-95096000D01*
X107542400Y-95096000D01*
X107542400Y-94092000D01*
X128701000Y-94092000D01*
X128701000Y-94842000D01*
X129959000Y-94842000D01*
X129959000Y-92999344D01*
X130213000Y-92999344D01*
X130213000Y-94842000D01*
X131471000Y-94842000D01*
X131471000Y-94092000D01*
X131419611Y-93824240D01*
X131316972Y-93571651D01*
X131167028Y-93343939D01*
X130975540Y-93149855D01*
X130749868Y-92996858D01*
X130498684Y-92890827D01*
X130427185Y-92876682D01*
X130213000Y-92999344D01*
X129959000Y-92999344D01*
X129744815Y-92876682D01*
X129673316Y-92890827D01*
X129422132Y-92996858D01*
X129196460Y-93149855D01*
X129004972Y-93343939D01*
X128855028Y-93571651D01*
X128752389Y-93824240D01*
X128701000Y-94092000D01*
X107542400Y-94092000D01*
X107542400Y-87688043D01*
X116890000Y-87688043D01*
X116890000Y-89299158D01*
X116906365Y-89465315D01*
X116971038Y-89678509D01*
X117076059Y-89874990D01*
X117217394Y-90047207D01*
X117389611Y-90188542D01*
X117586092Y-90293563D01*
X117799286Y-90358235D01*
X118021000Y-90380072D01*
X118242715Y-90358235D01*
X118455909Y-90293563D01*
X118652390Y-90188542D01*
X118824607Y-90047207D01*
X118965942Y-89874990D01*
X119070963Y-89678509D01*
X119135635Y-89465315D01*
X119152000Y-89299158D01*
X119152000Y-87688043D01*
X119430000Y-87688043D01*
X119430000Y-89299158D01*
X119446365Y-89465315D01*
X119511038Y-89678509D01*
X119616059Y-89874990D01*
X119757394Y-90047207D01*
X119929611Y-90188542D01*
X120126092Y-90293563D01*
X120339286Y-90358235D01*
X120561000Y-90380072D01*
X120782715Y-90358235D01*
X120995909Y-90293563D01*
X121192390Y-90188542D01*
X121364607Y-90047207D01*
X121505942Y-89874990D01*
X121610963Y-89678509D01*
X121675635Y-89465315D01*
X121692000Y-89299158D01*
X121692000Y-87688043D01*
X121970000Y-87688043D01*
X121970000Y-89299158D01*
X121986365Y-89465315D01*
X122051038Y-89678509D01*
X122156059Y-89874990D01*
X122297394Y-90047207D01*
X122469611Y-90188542D01*
X122666092Y-90293563D01*
X122879286Y-90358235D01*
X123101000Y-90380072D01*
X123322715Y-90358235D01*
X123535909Y-90293563D01*
X123732390Y-90188542D01*
X123904607Y-90047207D01*
X124045942Y-89874990D01*
X124150963Y-89678509D01*
X124215635Y-89465315D01*
X124232000Y-89299158D01*
X124232000Y-87688043D01*
X124510000Y-87688043D01*
X124510000Y-89299158D01*
X124526365Y-89465315D01*
X124591038Y-89678509D01*
X124696059Y-89874990D01*
X124837394Y-90047207D01*
X125009611Y-90188542D01*
X125206092Y-90293563D01*
X125419286Y-90358235D01*
X125641000Y-90380072D01*
X125862715Y-90358235D01*
X126075909Y-90293563D01*
X126272390Y-90188542D01*
X126444607Y-90047207D01*
X126585942Y-89874990D01*
X126690963Y-89678509D01*
X126755635Y-89465315D01*
X126772000Y-89299158D01*
X126772000Y-87688043D01*
X127050000Y-87688043D01*
X127050000Y-89299158D01*
X127066365Y-89465315D01*
X127131038Y-89678509D01*
X127236059Y-89874990D01*
X127377394Y-90047207D01*
X127549611Y-90188542D01*
X127746092Y-90293563D01*
X127959286Y-90358235D01*
X128181000Y-90380072D01*
X128402715Y-90358235D01*
X128615909Y-90293563D01*
X128812390Y-90188542D01*
X128984607Y-90047207D01*
X129125942Y-89874990D01*
X129230963Y-89678509D01*
X129295635Y-89465315D01*
X129312000Y-89299158D01*
X129312000Y-87688042D01*
X129295635Y-87521885D01*
X129255021Y-87387999D01*
X130538451Y-86104570D01*
X131641609Y-86104570D01*
X131076600Y-86669579D01*
X130942714Y-86628965D01*
X130721000Y-86607128D01*
X130499285Y-86628965D01*
X130286091Y-86693637D01*
X130089610Y-86798658D01*
X129917393Y-86939993D01*
X129776058Y-87112210D01*
X129671037Y-87308692D01*
X129606365Y-87521886D01*
X129590000Y-87688043D01*
X129590000Y-89299158D01*
X129606365Y-89465315D01*
X129671038Y-89678509D01*
X129776059Y-89874990D01*
X129917394Y-90047207D01*
X130089611Y-90188542D01*
X130286092Y-90293563D01*
X130499286Y-90358235D01*
X130721000Y-90380072D01*
X130942715Y-90358235D01*
X131155909Y-90293563D01*
X131352390Y-90188542D01*
X131524607Y-90047207D01*
X131665942Y-89874990D01*
X131770963Y-89678509D01*
X131835635Y-89465315D01*
X131852000Y-89299158D01*
X131852000Y-87688042D01*
X131835635Y-87521885D01*
X131795021Y-87387999D01*
X132570441Y-86612580D01*
X133205645Y-86612580D01*
X133039285Y-86628965D01*
X132826091Y-86693637D01*
X132629610Y-86798658D01*
X132457393Y-86939993D01*
X132316058Y-87112210D01*
X132211037Y-87308692D01*
X132146365Y-87521886D01*
X132130000Y-87688043D01*
X132130000Y-89299158D01*
X132146365Y-89465315D01*
X132211038Y-89678509D01*
X132316059Y-89874990D01*
X132457394Y-90047207D01*
X132629611Y-90188542D01*
X132826092Y-90293563D01*
X133039286Y-90358235D01*
X133261000Y-90380072D01*
X133482715Y-90358235D01*
X133695909Y-90293563D01*
X133892390Y-90188542D01*
X134064607Y-90047207D01*
X134205942Y-89874990D01*
X134310963Y-89678509D01*
X134375635Y-89465315D01*
X134392000Y-89299158D01*
X134392000Y-87688042D01*
X134375635Y-87521885D01*
X134310963Y-87308691D01*
X134205942Y-87112210D01*
X134064607Y-86939993D01*
X133892390Y-86798658D01*
X133695908Y-86693637D01*
X133482714Y-86628965D01*
X133316355Y-86612580D01*
X135745645Y-86612580D01*
X135579285Y-86628965D01*
X135366091Y-86693637D01*
X135169610Y-86798658D01*
X134997393Y-86939993D01*
X134856058Y-87112210D01*
X134751037Y-87308692D01*
X134686365Y-87521886D01*
X134670000Y-87688043D01*
X134670000Y-89299158D01*
X134686365Y-89465315D01*
X134751038Y-89678509D01*
X134856059Y-89874990D01*
X134997394Y-90047207D01*
X135169611Y-90188542D01*
X135366092Y-90293563D01*
X135579286Y-90358235D01*
X135801000Y-90380072D01*
X136022715Y-90358235D01*
X136235909Y-90293563D01*
X136432390Y-90188542D01*
X136604607Y-90047207D01*
X136701990Y-89928545D01*
X136701990Y-91964589D01*
X135521601Y-93144979D01*
X135387715Y-93104365D01*
X135166000Y-93082528D01*
X134944286Y-93104365D01*
X134731092Y-93169037D01*
X134534611Y-93274058D01*
X134362394Y-93415393D01*
X134221059Y-93587610D01*
X134116038Y-93784091D01*
X134051365Y-93997285D01*
X134035000Y-94163442D01*
X134035000Y-95774557D01*
X134051365Y-95940714D01*
X134116037Y-96153908D01*
X134221058Y-96350390D01*
X134362393Y-96522607D01*
X134534610Y-96663942D01*
X134731091Y-96768963D01*
X134944285Y-96833635D01*
X135110645Y-96850020D01*
X133123426Y-96850020D01*
X133124678Y-96845894D01*
X133126974Y-96822585D01*
X133132000Y-96771554D01*
X133132000Y-96771547D01*
X133134447Y-96746701D01*
X133132852Y-96730508D01*
X133257390Y-96663942D01*
X133429607Y-96522607D01*
X133570942Y-96350390D01*
X133675963Y-96153909D01*
X133740635Y-95940715D01*
X133757000Y-95774558D01*
X133757000Y-94163442D01*
X133740635Y-93997285D01*
X133675963Y-93784091D01*
X133570942Y-93587610D01*
X133429607Y-93415393D01*
X133257390Y-93274058D01*
X133060909Y-93169037D01*
X132847715Y-93104365D01*
X132626000Y-93082528D01*
X132404286Y-93104365D01*
X132191092Y-93169037D01*
X131994611Y-93274058D01*
X131822394Y-93415393D01*
X131681059Y-93587610D01*
X131576038Y-93784091D01*
X131511365Y-93997285D01*
X131495000Y-94163442D01*
X131495000Y-95774557D01*
X131511365Y-95940714D01*
X131576037Y-96153908D01*
X131681058Y-96350390D01*
X131822393Y-96522607D01*
X131993817Y-96663291D01*
X127840781Y-100816328D01*
X127821474Y-100832173D01*
X127758242Y-100909221D01*
X127750792Y-100923159D01*
X127711255Y-100997126D01*
X127682322Y-101092508D01*
X127672553Y-101191700D01*
X127675001Y-101216556D01*
X127675001Y-101971635D01*
X127549610Y-102038658D01*
X127377393Y-102179993D01*
X127236058Y-102352210D01*
X127131037Y-102548692D01*
X127066365Y-102761886D01*
X127050000Y-102928043D01*
X127050000Y-104539158D01*
X127066365Y-104705315D01*
X127131038Y-104918509D01*
X127236059Y-105114990D01*
X127377394Y-105287207D01*
X127549611Y-105428542D01*
X127746092Y-105533563D01*
X127959286Y-105598235D01*
X128181000Y-105620072D01*
X128402715Y-105598235D01*
X128615909Y-105533563D01*
X128812390Y-105428542D01*
X128984607Y-105287207D01*
X129081990Y-105168545D01*
X129081991Y-107088547D01*
X129079533Y-107113501D01*
X129089342Y-107213085D01*
X129118390Y-107308844D01*
X129165561Y-107397096D01*
X129203940Y-107443861D01*
X129229043Y-107474449D01*
X129248420Y-107490351D01*
X129855192Y-108097123D01*
X129651091Y-108159037D01*
X129454610Y-108264058D01*
X129282393Y-108405393D01*
X129141058Y-108577610D01*
X129036037Y-108774092D01*
X128971365Y-108987286D01*
X128955000Y-109153443D01*
X128955000Y-110764558D01*
X128971365Y-110930715D01*
X129036038Y-111143909D01*
X129141059Y-111340390D01*
X129282394Y-111512607D01*
X129439247Y-111641333D01*
X128881434Y-112199146D01*
X128862051Y-112215053D01*
X128798570Y-112292406D01*
X128751398Y-112380659D01*
X128722350Y-112476417D01*
X128715757Y-112543363D01*
X128712542Y-112576001D01*
X128714999Y-112600945D01*
X128715000Y-121347045D01*
X128712542Y-121371999D01*
X128717016Y-121417418D01*
X128722351Y-121471584D01*
X128739591Y-121528415D01*
X128751399Y-121567342D01*
X128798570Y-121655594D01*
X128836974Y-121702389D01*
X128862052Y-121732947D01*
X128881430Y-121748850D01*
X128973142Y-121840561D01*
X128989052Y-121859948D01*
X129066405Y-121923429D01*
X129154657Y-121970601D01*
X129221157Y-121990774D01*
X129221157Y-122299000D01*
X129228513Y-122373689D01*
X129250299Y-122445508D01*
X129285678Y-122511696D01*
X129333289Y-122569711D01*
X129391304Y-122617322D01*
X129457492Y-122652701D01*
X129529311Y-122674487D01*
X129604000Y-122681843D01*
X131204000Y-122681843D01*
X131278689Y-122674487D01*
X131350508Y-122652701D01*
X131416696Y-122617322D01*
X131474711Y-122569711D01*
X131522322Y-122511696D01*
X131557701Y-122445508D01*
X131579487Y-122373689D01*
X131582605Y-122342025D01*
X132262146Y-123021566D01*
X132278053Y-123040949D01*
X132355406Y-123104430D01*
X132443658Y-123151602D01*
X132539416Y-123180650D01*
X132614054Y-123188001D01*
X132614057Y-123188001D01*
X132639001Y-123190458D01*
X132663945Y-123188001D01*
X146789253Y-123188001D01*
X146814197Y-123190458D01*
X146839141Y-123188001D01*
X146839144Y-123188001D01*
X146913782Y-123180650D01*
X147009540Y-123151602D01*
X147097792Y-123104430D01*
X147175145Y-123040949D01*
X147191052Y-123021566D01*
X147915157Y-122297461D01*
X147915157Y-123482000D01*
X147922513Y-123556689D01*
X147944299Y-123628508D01*
X147979678Y-123694696D01*
X148027289Y-123752711D01*
X148085304Y-123800322D01*
X148151492Y-123835701D01*
X148223311Y-123857487D01*
X148298000Y-123864843D01*
X149898000Y-123864843D01*
X149972689Y-123857487D01*
X150044508Y-123835701D01*
X150110696Y-123800322D01*
X150168711Y-123752711D01*
X150216322Y-123694696D01*
X150251701Y-123628508D01*
X150273487Y-123556689D01*
X150280843Y-123482000D01*
X150280843Y-121882000D01*
X150273487Y-121807311D01*
X150251701Y-121735492D01*
X150216322Y-121669304D01*
X150168711Y-121611289D01*
X150110696Y-121563678D01*
X150044508Y-121528299D01*
X149972689Y-121506513D01*
X149941026Y-121503395D01*
X149943432Y-121500989D01*
X152100591Y-121500989D01*
X152033690Y-121567890D01*
X151869516Y-121518088D01*
X151696016Y-121501000D01*
X151579984Y-121501000D01*
X151406484Y-121518088D01*
X151183864Y-121585619D01*
X150978697Y-121695283D01*
X150798866Y-121842866D01*
X150651283Y-122022697D01*
X150541619Y-122227864D01*
X150474088Y-122450484D01*
X150451286Y-122682000D01*
X150474088Y-122913516D01*
X150541619Y-123136136D01*
X150651283Y-123341303D01*
X150798866Y-123521134D01*
X150978697Y-123668717D01*
X151183864Y-123778381D01*
X151406484Y-123845912D01*
X151579984Y-123863000D01*
X151696016Y-123863000D01*
X151869516Y-123845912D01*
X152092136Y-123778381D01*
X152297303Y-123668717D01*
X152477134Y-123521134D01*
X152624717Y-123341303D01*
X152734381Y-123136136D01*
X152801912Y-122913516D01*
X152824714Y-122682000D01*
X152801912Y-122450484D01*
X152752110Y-122286310D01*
X153029421Y-122008999D01*
X153202525Y-122008999D01*
X153191283Y-122022697D01*
X153081619Y-122227864D01*
X153014088Y-122450484D01*
X152991286Y-122682000D01*
X153014088Y-122913516D01*
X153081619Y-123136136D01*
X153191283Y-123341303D01*
X153338866Y-123521134D01*
X153518697Y-123668717D01*
X153723864Y-123778381D01*
X153946484Y-123845912D01*
X154119984Y-123863000D01*
X154236016Y-123863000D01*
X154409516Y-123845912D01*
X154632136Y-123778381D01*
X154837303Y-123668717D01*
X155017134Y-123521134D01*
X155164717Y-123341303D01*
X155245590Y-123190000D01*
X166198841Y-123190000D01*
X166136486Y-123223329D01*
X166064903Y-123467298D01*
X166878000Y-124280395D01*
X167691097Y-123467298D01*
X167619514Y-123223329D01*
X167549077Y-123190000D01*
X173711056Y-123190000D01*
X173736000Y-123192457D01*
X173760944Y-123190000D01*
X173760947Y-123190000D01*
X173835585Y-123182649D01*
X173899753Y-123163184D01*
X173760580Y-123228963D01*
X173534586Y-123396481D01*
X173345615Y-123604869D01*
X173200930Y-123846119D01*
X173106091Y-124110960D01*
X173227376Y-124333000D01*
X174371000Y-124333000D01*
X174371000Y-123190085D01*
X174625000Y-123190085D01*
X174625000Y-124333000D01*
X175768624Y-124333000D01*
X175889909Y-124110960D01*
X176916091Y-124110960D01*
X177037376Y-124333000D01*
X178181000Y-124333000D01*
X178181000Y-123190085D01*
X178435000Y-123190085D01*
X178435000Y-124333000D01*
X179578624Y-124333000D01*
X179699909Y-124110960D01*
X180726091Y-124110960D01*
X180847376Y-124333000D01*
X181991000Y-124333000D01*
X181991000Y-123190085D01*
X182245000Y-123190085D01*
X182245000Y-124333000D01*
X183388624Y-124333000D01*
X183509909Y-124110960D01*
X183415070Y-123846119D01*
X183270385Y-123604869D01*
X183081414Y-123396481D01*
X182855420Y-123228963D01*
X182601087Y-123108754D01*
X182467039Y-123068096D01*
X182245000Y-123190085D01*
X181991000Y-123190085D01*
X181768961Y-123068096D01*
X181634913Y-123108754D01*
X181380580Y-123228963D01*
X181154586Y-123396481D01*
X180965615Y-123604869D01*
X180820930Y-123846119D01*
X180726091Y-124110960D01*
X179699909Y-124110960D01*
X179605070Y-123846119D01*
X179460385Y-123604869D01*
X179271414Y-123396481D01*
X179045420Y-123228963D01*
X178791087Y-123108754D01*
X178657039Y-123068096D01*
X178435000Y-123190085D01*
X178181000Y-123190085D01*
X177958961Y-123068096D01*
X177824913Y-123108754D01*
X177570580Y-123228963D01*
X177344586Y-123396481D01*
X177155615Y-123604869D01*
X177010930Y-123846119D01*
X176916091Y-124110960D01*
X175889909Y-124110960D01*
X175795070Y-123846119D01*
X175650385Y-123604869D01*
X175461414Y-123396481D01*
X175235420Y-123228963D01*
X174981087Y-123108754D01*
X174847039Y-123068096D01*
X174625000Y-123190085D01*
X174371000Y-123190085D01*
X174148961Y-123068096D01*
X174015681Y-123108521D01*
X174019595Y-123106429D01*
X174096948Y-123042948D01*
X174112855Y-123023565D01*
X181722103Y-115414318D01*
X181773515Y-115435614D01*
X182001682Y-115481000D01*
X182234318Y-115481000D01*
X182462485Y-115435614D01*
X182677413Y-115346588D01*
X182870843Y-115217342D01*
X183035342Y-115052843D01*
X183164588Y-114859413D01*
X183253614Y-114644485D01*
X183299000Y-114416318D01*
X183299000Y-114183682D01*
X183253614Y-113955515D01*
X183164588Y-113740587D01*
X183035342Y-113547157D01*
X182870843Y-113382658D01*
X182677413Y-113253412D01*
X182462485Y-113164386D01*
X182234318Y-113119000D01*
X182001682Y-113119000D01*
X181773515Y-113164386D01*
X181558587Y-113253412D01*
X181365157Y-113382658D01*
X181200658Y-113547157D01*
X181071412Y-113740587D01*
X180982386Y-113955515D01*
X180937000Y-114183682D01*
X180937000Y-114416318D01*
X180982386Y-114644485D01*
X181003682Y-114695897D01*
X178816000Y-116883579D01*
X178816000Y-115367884D01*
X178867413Y-115346588D01*
X179060843Y-115217342D01*
X179225342Y-115052843D01*
X179354588Y-114859413D01*
X179443614Y-114644485D01*
X179489000Y-114416318D01*
X179489000Y-114183682D01*
X179443614Y-113955515D01*
X179354588Y-113740587D01*
X179225342Y-113547157D01*
X179060843Y-113382658D01*
X178867413Y-113253412D01*
X178652485Y-113164386D01*
X178424318Y-113119000D01*
X178191682Y-113119000D01*
X177963515Y-113164386D01*
X177748587Y-113253412D01*
X177555157Y-113382658D01*
X177390658Y-113547157D01*
X177261412Y-113740587D01*
X177172386Y-113955515D01*
X177127000Y-114183682D01*
X177127000Y-114416318D01*
X177172386Y-114644485D01*
X177261412Y-114859413D01*
X177390658Y-115052843D01*
X177555157Y-115217342D01*
X177748587Y-115346588D01*
X177800000Y-115367884D01*
X177800000Y-117181146D01*
X175006000Y-119975146D01*
X175006000Y-115367884D01*
X175057413Y-115346588D01*
X175250843Y-115217342D01*
X175415342Y-115052843D01*
X175544588Y-114859413D01*
X175633614Y-114644485D01*
X175679000Y-114416318D01*
X175679000Y-114183682D01*
X175633614Y-113955515D01*
X175544588Y-113740587D01*
X175415342Y-113547157D01*
X175250843Y-113382658D01*
X175222962Y-113364028D01*
X176174017Y-113364028D01*
X176198971Y-113366486D01*
X176289645Y-113357555D01*
X176298556Y-113356677D01*
X176394314Y-113327629D01*
X176482566Y-113280458D01*
X176540541Y-113232879D01*
X176540542Y-113232878D01*
X176559919Y-113216976D01*
X176575821Y-113197599D01*
X177990399Y-111783021D01*
X178124286Y-111823635D01*
X178346000Y-111845472D01*
X178567715Y-111823635D01*
X178780909Y-111758963D01*
X178977390Y-111653942D01*
X179149607Y-111512607D01*
X179290942Y-111340390D01*
X179395963Y-111143909D01*
X179460635Y-110930715D01*
X179477000Y-110764558D01*
X179477000Y-109153442D01*
X179460635Y-108987285D01*
X179395963Y-108774091D01*
X179290942Y-108577610D01*
X179149607Y-108405393D01*
X178977390Y-108264058D01*
X178780908Y-108159037D01*
X178567714Y-108094365D01*
X178346000Y-108072528D01*
X178124285Y-108094365D01*
X177911091Y-108159037D01*
X177714610Y-108264058D01*
X177542393Y-108405393D01*
X177445010Y-108524054D01*
X177445010Y-106008553D01*
X177447467Y-105983609D01*
X177445010Y-105958663D01*
X177437659Y-105884025D01*
X177408611Y-105788267D01*
X177377177Y-105729458D01*
X177361439Y-105700014D01*
X177313860Y-105642039D01*
X177297958Y-105622662D01*
X177278580Y-105606759D01*
X177087754Y-105415933D01*
X177244607Y-105287207D01*
X177385942Y-105114990D01*
X177490963Y-104918509D01*
X177555635Y-104705315D01*
X177572000Y-104539158D01*
X177572000Y-102928042D01*
X177555635Y-102761885D01*
X177490963Y-102548691D01*
X177385942Y-102352210D01*
X177244607Y-102179993D01*
X177072390Y-102038658D01*
X176875908Y-101933637D01*
X176662714Y-101868965D01*
X176441000Y-101847128D01*
X176219285Y-101868965D01*
X176006091Y-101933637D01*
X175809610Y-102038658D01*
X175637393Y-102179993D01*
X175496058Y-102352210D01*
X175391037Y-102548692D01*
X175326365Y-102761886D01*
X175310000Y-102928043D01*
X175310000Y-104539158D01*
X175326365Y-104705315D01*
X175391038Y-104918509D01*
X175496059Y-105114990D01*
X175637394Y-105287207D01*
X175809611Y-105428542D01*
X175931123Y-105493492D01*
X175937594Y-105559181D01*
X175940352Y-105587185D01*
X175949681Y-105617938D01*
X175969400Y-105682943D01*
X176016571Y-105771195D01*
X176064150Y-105829170D01*
X176080053Y-105848548D01*
X176099430Y-105864450D01*
X176429010Y-106194031D01*
X176429010Y-108259579D01*
X176240908Y-108159037D01*
X176027714Y-108094365D01*
X175806000Y-108072528D01*
X175584285Y-108094365D01*
X175371091Y-108159037D01*
X175174610Y-108264058D01*
X175002393Y-108405393D01*
X174873756Y-108562138D01*
X174868611Y-108545178D01*
X174821439Y-108456926D01*
X174757958Y-108379573D01*
X174738575Y-108363666D01*
X171869263Y-105494354D01*
X171992390Y-105428542D01*
X172164607Y-105287207D01*
X172305942Y-105114990D01*
X172410963Y-104918509D01*
X172475635Y-104705315D01*
X172492000Y-104539158D01*
X172492000Y-102928043D01*
X172770000Y-102928043D01*
X172770000Y-104539158D01*
X172786365Y-104705315D01*
X172851038Y-104918509D01*
X172956059Y-105114990D01*
X173097394Y-105287207D01*
X173269611Y-105428542D01*
X173466092Y-105533563D01*
X173679286Y-105598235D01*
X173901000Y-105620072D01*
X174122715Y-105598235D01*
X174335909Y-105533563D01*
X174532390Y-105428542D01*
X174704607Y-105287207D01*
X174845942Y-105114990D01*
X174950963Y-104918509D01*
X175015635Y-104705315D01*
X175032000Y-104539158D01*
X175032000Y-102928042D01*
X175015635Y-102761885D01*
X174950963Y-102548691D01*
X174845942Y-102352210D01*
X174704607Y-102179993D01*
X174532390Y-102038658D01*
X174335908Y-101933637D01*
X174122714Y-101868965D01*
X173901000Y-101847128D01*
X173679285Y-101868965D01*
X173466091Y-101933637D01*
X173269610Y-102038658D01*
X173097393Y-102179993D01*
X172956058Y-102352210D01*
X172851037Y-102548692D01*
X172786365Y-102761886D01*
X172770000Y-102928043D01*
X172492000Y-102928043D01*
X172492000Y-102928042D01*
X172475635Y-102761885D01*
X172410963Y-102548691D01*
X172305942Y-102352210D01*
X172164607Y-102179993D01*
X171992390Y-102038658D01*
X171795908Y-101933637D01*
X171582714Y-101868965D01*
X171361000Y-101847128D01*
X171139285Y-101868965D01*
X170926091Y-101933637D01*
X170729610Y-102038658D01*
X170589896Y-102153318D01*
X170571560Y-102138270D01*
X169944314Y-101511025D01*
X169928407Y-101491642D01*
X169851725Y-101428712D01*
X173119344Y-101428712D01*
X173144288Y-101431169D01*
X173169232Y-101428712D01*
X173169235Y-101428712D01*
X173243873Y-101421361D01*
X173339631Y-101392313D01*
X173427883Y-101345141D01*
X173505236Y-101281660D01*
X173521143Y-101262277D01*
X177990399Y-96793021D01*
X178124286Y-96833635D01*
X178346000Y-96855472D01*
X178567715Y-96833635D01*
X178780909Y-96768963D01*
X178977390Y-96663942D01*
X179149607Y-96522607D01*
X179290942Y-96350390D01*
X179395963Y-96153909D01*
X179460635Y-95940715D01*
X179477000Y-95774558D01*
X179477000Y-94163442D01*
X179460635Y-93997285D01*
X179395963Y-93784091D01*
X179290942Y-93587610D01*
X179149607Y-93415393D01*
X178977390Y-93274058D01*
X178780908Y-93169037D01*
X178567714Y-93104365D01*
X178346000Y-93082528D01*
X178124285Y-93104365D01*
X177911091Y-93169037D01*
X177714610Y-93274058D01*
X177542393Y-93415393D01*
X177401058Y-93587610D01*
X177296037Y-93784092D01*
X177231365Y-93997286D01*
X177215000Y-94163443D01*
X177215000Y-95774558D01*
X177231365Y-95940715D01*
X177271980Y-96074600D01*
X172933868Y-100412712D01*
X171830708Y-100412712D01*
X175450400Y-96793021D01*
X175584285Y-96833635D01*
X175806000Y-96855472D01*
X176027714Y-96833635D01*
X176240908Y-96768963D01*
X176437390Y-96663942D01*
X176609607Y-96522607D01*
X176750942Y-96350390D01*
X176855963Y-96153909D01*
X176920635Y-95940715D01*
X176937000Y-95774558D01*
X176937000Y-94163442D01*
X176920635Y-93997285D01*
X176855963Y-93784091D01*
X176750942Y-93587610D01*
X176609607Y-93415393D01*
X176437390Y-93274058D01*
X176240909Y-93169037D01*
X176027715Y-93104365D01*
X175806000Y-93082528D01*
X175584286Y-93104365D01*
X175371092Y-93169037D01*
X175174611Y-93274058D01*
X175002394Y-93415393D01*
X174861059Y-93587610D01*
X174756038Y-93784091D01*
X174691365Y-93997285D01*
X174675000Y-94163442D01*
X174675000Y-95774557D01*
X174691365Y-95940714D01*
X174731979Y-96074600D01*
X170901878Y-99904702D01*
X169798718Y-99904702D01*
X172910400Y-96793021D01*
X173044285Y-96833635D01*
X173266000Y-96855472D01*
X173487714Y-96833635D01*
X173700908Y-96768963D01*
X173897390Y-96663942D01*
X174069607Y-96522607D01*
X174210942Y-96350390D01*
X174315963Y-96153909D01*
X174380635Y-95940715D01*
X174397000Y-95774558D01*
X174397000Y-94163442D01*
X174380635Y-93997285D01*
X174315963Y-93784091D01*
X174210942Y-93587610D01*
X174069607Y-93415393D01*
X173897390Y-93274058D01*
X173700909Y-93169037D01*
X173487715Y-93104365D01*
X173266000Y-93082528D01*
X173044286Y-93104365D01*
X172831092Y-93169037D01*
X172634611Y-93274058D01*
X172462394Y-93415393D01*
X172321059Y-93587610D01*
X172216038Y-93784091D01*
X172151365Y-93997285D01*
X172135000Y-94163442D01*
X172135000Y-95774557D01*
X172151365Y-95940714D01*
X172191979Y-96074600D01*
X168869888Y-99396692D01*
X167766728Y-99396692D01*
X170370399Y-96793021D01*
X170504285Y-96833635D01*
X170726000Y-96855472D01*
X170947714Y-96833635D01*
X171160908Y-96768963D01*
X171357390Y-96663942D01*
X171529607Y-96522607D01*
X171670942Y-96350390D01*
X171775963Y-96153909D01*
X171840635Y-95940715D01*
X171857000Y-95774558D01*
X171857000Y-94163442D01*
X171840635Y-93997285D01*
X171775963Y-93784091D01*
X171670942Y-93587610D01*
X171529607Y-93415393D01*
X171357390Y-93274058D01*
X171160909Y-93169037D01*
X170947715Y-93104365D01*
X170726000Y-93082528D01*
X170504286Y-93104365D01*
X170291092Y-93169037D01*
X170094611Y-93274058D01*
X169922394Y-93415393D01*
X169781059Y-93587610D01*
X169676038Y-93784091D01*
X169611365Y-93997285D01*
X169595000Y-94163442D01*
X169595000Y-95774557D01*
X169611365Y-95940714D01*
X169651979Y-96074601D01*
X166837898Y-98888682D01*
X165734738Y-98888682D01*
X167830400Y-96793021D01*
X167964285Y-96833635D01*
X168186000Y-96855472D01*
X168407714Y-96833635D01*
X168620908Y-96768963D01*
X168817390Y-96663942D01*
X168989607Y-96522607D01*
X169130942Y-96350390D01*
X169235963Y-96153909D01*
X169300635Y-95940715D01*
X169317000Y-95774558D01*
X169317000Y-94163442D01*
X169300635Y-93997285D01*
X169235963Y-93784091D01*
X169130942Y-93587610D01*
X168989607Y-93415393D01*
X168817390Y-93274058D01*
X168620909Y-93169037D01*
X168407715Y-93104365D01*
X168186000Y-93082528D01*
X167964286Y-93104365D01*
X167751092Y-93169037D01*
X167554611Y-93274058D01*
X167382394Y-93415393D01*
X167241059Y-93587610D01*
X167136038Y-93784091D01*
X167071365Y-93997285D01*
X167055000Y-94163442D01*
X167055000Y-95774557D01*
X167071365Y-95940714D01*
X167111979Y-96074600D01*
X164805908Y-98380672D01*
X163702748Y-98380672D01*
X165290400Y-96793021D01*
X165424285Y-96833635D01*
X165646000Y-96855472D01*
X165867714Y-96833635D01*
X166080908Y-96768963D01*
X166277390Y-96663942D01*
X166449607Y-96522607D01*
X166590942Y-96350390D01*
X166695963Y-96153909D01*
X166760635Y-95940715D01*
X166777000Y-95774558D01*
X166777000Y-94163442D01*
X166760635Y-93997285D01*
X166695963Y-93784091D01*
X166590942Y-93587610D01*
X166449607Y-93415393D01*
X166277390Y-93274058D01*
X166080909Y-93169037D01*
X165867715Y-93104365D01*
X165646000Y-93082528D01*
X165424286Y-93104365D01*
X165211092Y-93169037D01*
X165014611Y-93274058D01*
X164842394Y-93415393D01*
X164701059Y-93587610D01*
X164596038Y-93784091D01*
X164531365Y-93997285D01*
X164515000Y-94163442D01*
X164515000Y-95774557D01*
X164531365Y-95940714D01*
X164571979Y-96074600D01*
X162773918Y-97872662D01*
X161670758Y-97872662D01*
X162750399Y-96793021D01*
X162884285Y-96833635D01*
X163106000Y-96855472D01*
X163327714Y-96833635D01*
X163540908Y-96768963D01*
X163737390Y-96663942D01*
X163909607Y-96522607D01*
X164050942Y-96350390D01*
X164155963Y-96153909D01*
X164220635Y-95940715D01*
X164237000Y-95774558D01*
X164237000Y-94163442D01*
X164220635Y-93997285D01*
X164155963Y-93784091D01*
X164050942Y-93587610D01*
X163909607Y-93415393D01*
X163737390Y-93274058D01*
X163540909Y-93169037D01*
X163327715Y-93104365D01*
X163106000Y-93082528D01*
X162884286Y-93104365D01*
X162671092Y-93169037D01*
X162474611Y-93274058D01*
X162302394Y-93415393D01*
X162161059Y-93587610D01*
X162056038Y-93784091D01*
X161991365Y-93997285D01*
X161975000Y-94163442D01*
X161975000Y-95774557D01*
X161991365Y-95940714D01*
X162031979Y-96074601D01*
X160741928Y-97364652D01*
X160642768Y-97364652D01*
X160907565Y-97099855D01*
X160926948Y-97083948D01*
X160990429Y-97006595D01*
X161037601Y-96918343D01*
X161066649Y-96822585D01*
X161074000Y-96747947D01*
X161074000Y-96747944D01*
X161075877Y-96728892D01*
X161197390Y-96663942D01*
X161369607Y-96522607D01*
X161510942Y-96350390D01*
X161615963Y-96153909D01*
X161680635Y-95940715D01*
X161697000Y-95774558D01*
X161697000Y-94163442D01*
X161680635Y-93997285D01*
X161615963Y-93784091D01*
X161510942Y-93587610D01*
X161369607Y-93415393D01*
X161197390Y-93274058D01*
X161000909Y-93169037D01*
X160796808Y-93107123D01*
X163021322Y-90882610D01*
X165125046Y-90882610D01*
X165149990Y-90885067D01*
X165174934Y-90882610D01*
X165174937Y-90882610D01*
X165249575Y-90875259D01*
X165345333Y-90846211D01*
X165433585Y-90799039D01*
X165510938Y-90735558D01*
X165526845Y-90716175D01*
X165925399Y-90317621D01*
X166059286Y-90358235D01*
X166281000Y-90380072D01*
X166502715Y-90358235D01*
X166715909Y-90293563D01*
X166912390Y-90188542D01*
X167084607Y-90047207D01*
X167225942Y-89874990D01*
X167330963Y-89678509D01*
X167395635Y-89465315D01*
X167412000Y-89299158D01*
X167412000Y-87688043D01*
X167690000Y-87688043D01*
X167690000Y-89299158D01*
X167706365Y-89465315D01*
X167771038Y-89678509D01*
X167876059Y-89874990D01*
X168017394Y-90047207D01*
X168189611Y-90188542D01*
X168386092Y-90293563D01*
X168599286Y-90358235D01*
X168821000Y-90380072D01*
X169042715Y-90358235D01*
X169255909Y-90293563D01*
X169452390Y-90188542D01*
X169624607Y-90047207D01*
X169765942Y-89874990D01*
X169870963Y-89678509D01*
X169935635Y-89465315D01*
X169952000Y-89299158D01*
X169952000Y-87688043D01*
X170230000Y-87688043D01*
X170230000Y-89299158D01*
X170246365Y-89465315D01*
X170311038Y-89678509D01*
X170416059Y-89874990D01*
X170557394Y-90047207D01*
X170729611Y-90188542D01*
X170926092Y-90293563D01*
X171139286Y-90358235D01*
X171361000Y-90380072D01*
X171582715Y-90358235D01*
X171795909Y-90293563D01*
X171992390Y-90188542D01*
X172164607Y-90047207D01*
X172305942Y-89874990D01*
X172410963Y-89678509D01*
X172475635Y-89465315D01*
X172492000Y-89299158D01*
X172492000Y-87688043D01*
X172770000Y-87688043D01*
X172770000Y-89299158D01*
X172786365Y-89465315D01*
X172851038Y-89678509D01*
X172956059Y-89874990D01*
X173097394Y-90047207D01*
X173269611Y-90188542D01*
X173466092Y-90293563D01*
X173679286Y-90358235D01*
X173901000Y-90380072D01*
X174122715Y-90358235D01*
X174335909Y-90293563D01*
X174532390Y-90188542D01*
X174704607Y-90047207D01*
X174845942Y-89874990D01*
X174950963Y-89678509D01*
X175015635Y-89465315D01*
X175032000Y-89299158D01*
X175032000Y-88620600D01*
X175056000Y-88620600D01*
X175056000Y-89370600D01*
X175107389Y-89638360D01*
X175210028Y-89890949D01*
X175359972Y-90118661D01*
X175551460Y-90312745D01*
X175777132Y-90465742D01*
X176028316Y-90571773D01*
X176099815Y-90585918D01*
X176314000Y-90463256D01*
X176314000Y-88620600D01*
X176568000Y-88620600D01*
X176568000Y-90463256D01*
X176782185Y-90585918D01*
X176853684Y-90571773D01*
X177104868Y-90465742D01*
X177330540Y-90312745D01*
X177522028Y-90118661D01*
X177671972Y-89890949D01*
X177774611Y-89638360D01*
X177826000Y-89370600D01*
X177826000Y-88620600D01*
X176568000Y-88620600D01*
X176314000Y-88620600D01*
X175056000Y-88620600D01*
X175032000Y-88620600D01*
X175032000Y-87688042D01*
X175024964Y-87616600D01*
X175056000Y-87616600D01*
X175056000Y-88366600D01*
X176314000Y-88366600D01*
X176314000Y-86523944D01*
X176568000Y-86523944D01*
X176568000Y-88366600D01*
X177826000Y-88366600D01*
X177826000Y-87616600D01*
X177774611Y-87348840D01*
X177671972Y-87096251D01*
X177522028Y-86868539D01*
X177330540Y-86674455D01*
X177104868Y-86521458D01*
X176853684Y-86415427D01*
X176782185Y-86401282D01*
X176568000Y-86523944D01*
X176314000Y-86523944D01*
X176099815Y-86401282D01*
X176028316Y-86415427D01*
X175777132Y-86521458D01*
X175551460Y-86674455D01*
X175359972Y-86868539D01*
X175210028Y-87096251D01*
X175107389Y-87348840D01*
X175056000Y-87616600D01*
X175024964Y-87616600D01*
X175015635Y-87521885D01*
X174950963Y-87308691D01*
X174845942Y-87112210D01*
X174704607Y-86939993D01*
X174532390Y-86798658D01*
X174335908Y-86693637D01*
X174122714Y-86628965D01*
X173901000Y-86607128D01*
X173679285Y-86628965D01*
X173466091Y-86693637D01*
X173269610Y-86798658D01*
X173097393Y-86939993D01*
X172956058Y-87112210D01*
X172851037Y-87308692D01*
X172786365Y-87521886D01*
X172770000Y-87688043D01*
X172492000Y-87688043D01*
X172492000Y-87688042D01*
X172475635Y-87521885D01*
X172410963Y-87308691D01*
X172305942Y-87112210D01*
X172164607Y-86939993D01*
X171992390Y-86798658D01*
X171795908Y-86693637D01*
X171582714Y-86628965D01*
X171361000Y-86607128D01*
X171139285Y-86628965D01*
X170926091Y-86693637D01*
X170729610Y-86798658D01*
X170557393Y-86939993D01*
X170416058Y-87112210D01*
X170311037Y-87308692D01*
X170246365Y-87521886D01*
X170230000Y-87688043D01*
X169952000Y-87688043D01*
X169952000Y-87688042D01*
X169935635Y-87521885D01*
X169870963Y-87308691D01*
X169765942Y-87112210D01*
X169624607Y-86939993D01*
X169452390Y-86798658D01*
X169255908Y-86693637D01*
X169042714Y-86628965D01*
X168821000Y-86607128D01*
X168599285Y-86628965D01*
X168386091Y-86693637D01*
X168189610Y-86798658D01*
X168017393Y-86939993D01*
X167876058Y-87112210D01*
X167771037Y-87308692D01*
X167706365Y-87521886D01*
X167690000Y-87688043D01*
X167412000Y-87688043D01*
X167412000Y-87688042D01*
X167395635Y-87521885D01*
X167330963Y-87308691D01*
X167225942Y-87112210D01*
X167084607Y-86939993D01*
X166912390Y-86798658D01*
X166715908Y-86693637D01*
X166502714Y-86628965D01*
X166281000Y-86607128D01*
X166059285Y-86628965D01*
X165846091Y-86693637D01*
X165649610Y-86798658D01*
X165477393Y-86939993D01*
X165336058Y-87112210D01*
X165231037Y-87308692D01*
X165166365Y-87521886D01*
X165150000Y-87688043D01*
X165150000Y-89299158D01*
X165166365Y-89465315D01*
X165206980Y-89599200D01*
X164939570Y-89866610D01*
X164690421Y-89866610D01*
X164790963Y-89678509D01*
X164855635Y-89465315D01*
X164872000Y-89299158D01*
X164872000Y-87688042D01*
X164855635Y-87521885D01*
X164790963Y-87308691D01*
X164685942Y-87112210D01*
X164544607Y-86939993D01*
X164372390Y-86798658D01*
X164175908Y-86693637D01*
X163962714Y-86628965D01*
X163741000Y-86607128D01*
X163519285Y-86628965D01*
X163306091Y-86693637D01*
X163109610Y-86798658D01*
X162937393Y-86939993D01*
X162796058Y-87112210D01*
X162691037Y-87308692D01*
X162626365Y-87521886D01*
X162610000Y-87688043D01*
X162610000Y-89299158D01*
X162626365Y-89465315D01*
X162691038Y-89678509D01*
X162791299Y-89866084D01*
X162785956Y-89866610D01*
X162785954Y-89866610D01*
X162711316Y-89873961D01*
X162615558Y-89903009D01*
X162599162Y-89911773D01*
X162527305Y-89950181D01*
X162480222Y-89988821D01*
X162449953Y-90013662D01*
X162434051Y-90033039D01*
X159093420Y-93373671D01*
X159074043Y-93389573D01*
X159058141Y-93408950D01*
X159058140Y-93408951D01*
X159010561Y-93466926D01*
X158966366Y-93549610D01*
X158963390Y-93555178D01*
X158958245Y-93572139D01*
X158829607Y-93415393D01*
X158657390Y-93274058D01*
X158460909Y-93169037D01*
X158247715Y-93104365D01*
X158026000Y-93082528D01*
X157804286Y-93104365D01*
X157670399Y-93144979D01*
X155220010Y-90694590D01*
X155220010Y-89928544D01*
X155317394Y-90047207D01*
X155489611Y-90188542D01*
X155686092Y-90293563D01*
X155899286Y-90358235D01*
X156121000Y-90380072D01*
X156342715Y-90358235D01*
X156555909Y-90293563D01*
X156752390Y-90188542D01*
X156924607Y-90047207D01*
X157065942Y-89874990D01*
X157170963Y-89678509D01*
X157235635Y-89465315D01*
X157252000Y-89299158D01*
X157252000Y-87688043D01*
X157530000Y-87688043D01*
X157530000Y-89299158D01*
X157546365Y-89465315D01*
X157611038Y-89678509D01*
X157716059Y-89874990D01*
X157857394Y-90047207D01*
X158029611Y-90188542D01*
X158226092Y-90293563D01*
X158439286Y-90358235D01*
X158661000Y-90380072D01*
X158882715Y-90358235D01*
X159095909Y-90293563D01*
X159292390Y-90188542D01*
X159464607Y-90047207D01*
X159605942Y-89874990D01*
X159710963Y-89678509D01*
X159775635Y-89465315D01*
X159792000Y-89299158D01*
X159792000Y-87688043D01*
X160070000Y-87688043D01*
X160070000Y-89299158D01*
X160086365Y-89465315D01*
X160151038Y-89678509D01*
X160256059Y-89874990D01*
X160397394Y-90047207D01*
X160569611Y-90188542D01*
X160766092Y-90293563D01*
X160979286Y-90358235D01*
X161201000Y-90380072D01*
X161422715Y-90358235D01*
X161635909Y-90293563D01*
X161832390Y-90188542D01*
X162004607Y-90047207D01*
X162145942Y-89874990D01*
X162250963Y-89678509D01*
X162315635Y-89465315D01*
X162332000Y-89299158D01*
X162332000Y-87688042D01*
X162315635Y-87521885D01*
X162250963Y-87308691D01*
X162145942Y-87112210D01*
X162004607Y-86939993D01*
X161832390Y-86798658D01*
X161635908Y-86693637D01*
X161422714Y-86628965D01*
X161201000Y-86607128D01*
X160979285Y-86628965D01*
X160766091Y-86693637D01*
X160569610Y-86798658D01*
X160397393Y-86939993D01*
X160256058Y-87112210D01*
X160151037Y-87308692D01*
X160086365Y-87521886D01*
X160070000Y-87688043D01*
X159792000Y-87688043D01*
X159792000Y-87688042D01*
X159775635Y-87521885D01*
X159710963Y-87308691D01*
X159605942Y-87112210D01*
X159464607Y-86939993D01*
X159292390Y-86798658D01*
X159095908Y-86693637D01*
X158882714Y-86628965D01*
X158661000Y-86607128D01*
X158439285Y-86628965D01*
X158226091Y-86693637D01*
X158029610Y-86798658D01*
X157857393Y-86939993D01*
X157716058Y-87112210D01*
X157611037Y-87308692D01*
X157546365Y-87521886D01*
X157530000Y-87688043D01*
X157252000Y-87688043D01*
X157252000Y-87688042D01*
X157235635Y-87521885D01*
X157170963Y-87308691D01*
X157065942Y-87112210D01*
X156924607Y-86939993D01*
X156752390Y-86798658D01*
X156555908Y-86693637D01*
X156342714Y-86628965D01*
X156121000Y-86607128D01*
X155899285Y-86628965D01*
X155686091Y-86693637D01*
X155489610Y-86798658D01*
X155317393Y-86939993D01*
X155188756Y-87096738D01*
X155183611Y-87079778D01*
X155136439Y-86991526D01*
X155072958Y-86914173D01*
X155053575Y-86898266D01*
X153410314Y-85255005D01*
X153394407Y-85235622D01*
X153317054Y-85172141D01*
X153228802Y-85124969D01*
X153133044Y-85095921D01*
X153058406Y-85088570D01*
X153058403Y-85088570D01*
X153033459Y-85086113D01*
X153008515Y-85088570D01*
X130352974Y-85088570D01*
X130328030Y-85086113D01*
X130303086Y-85088570D01*
X130303083Y-85088570D01*
X130228445Y-85095921D01*
X130132687Y-85124969D01*
X130091606Y-85146927D01*
X130044434Y-85172141D01*
X129989840Y-85216946D01*
X129967082Y-85235622D01*
X129951180Y-85254999D01*
X128536600Y-86669579D01*
X128402714Y-86628965D01*
X128181000Y-86607128D01*
X127959285Y-86628965D01*
X127746091Y-86693637D01*
X127549610Y-86798658D01*
X127377393Y-86939993D01*
X127236058Y-87112210D01*
X127131037Y-87308692D01*
X127066365Y-87521886D01*
X127050000Y-87688043D01*
X126772000Y-87688043D01*
X126772000Y-87688042D01*
X126755635Y-87521885D01*
X126690963Y-87308691D01*
X126585942Y-87112210D01*
X126444607Y-86939993D01*
X126272390Y-86798658D01*
X126075908Y-86693637D01*
X125862714Y-86628965D01*
X125641000Y-86607128D01*
X125419285Y-86628965D01*
X125206091Y-86693637D01*
X125009610Y-86798658D01*
X124837393Y-86939993D01*
X124696058Y-87112210D01*
X124591037Y-87308692D01*
X124526365Y-87521886D01*
X124510000Y-87688043D01*
X124232000Y-87688043D01*
X124232000Y-87688042D01*
X124215635Y-87521885D01*
X124150963Y-87308691D01*
X124045942Y-87112210D01*
X123904607Y-86939993D01*
X123732390Y-86798658D01*
X123535908Y-86693637D01*
X123322714Y-86628965D01*
X123101000Y-86607128D01*
X122879285Y-86628965D01*
X122666091Y-86693637D01*
X122469610Y-86798658D01*
X122297393Y-86939993D01*
X122156058Y-87112210D01*
X122051037Y-87308692D01*
X121986365Y-87521886D01*
X121970000Y-87688043D01*
X121692000Y-87688043D01*
X121692000Y-87688042D01*
X121675635Y-87521885D01*
X121610963Y-87308691D01*
X121505942Y-87112210D01*
X121364607Y-86939993D01*
X121192390Y-86798658D01*
X120995908Y-86693637D01*
X120782714Y-86628965D01*
X120561000Y-86607128D01*
X120339285Y-86628965D01*
X120126091Y-86693637D01*
X119929610Y-86798658D01*
X119757393Y-86939993D01*
X119616058Y-87112210D01*
X119511037Y-87308692D01*
X119446365Y-87521886D01*
X119430000Y-87688043D01*
X119152000Y-87688043D01*
X119152000Y-87688042D01*
X119135635Y-87521885D01*
X119070963Y-87308691D01*
X118965942Y-87112210D01*
X118824607Y-86939993D01*
X118652390Y-86798658D01*
X118455908Y-86693637D01*
X118242714Y-86628965D01*
X118021000Y-86607128D01*
X117799285Y-86628965D01*
X117586091Y-86693637D01*
X117389610Y-86798658D01*
X117217393Y-86939993D01*
X117076058Y-87112210D01*
X116971037Y-87308692D01*
X116906365Y-87521886D01*
X116890000Y-87688043D01*
X107542400Y-87688043D01*
X107542400Y-84720124D01*
X107563326Y-84506700D01*
X107622077Y-84312111D01*
X107717505Y-84132636D01*
X107845975Y-83975117D01*
X108002596Y-83845549D01*
X108181400Y-83748870D01*
X108375577Y-83688762D01*
X108588344Y-83666400D01*
X188456876Y-83666400D01*
X188670300Y-83687326D01*
M02*
