M48
; DRILL file {KiCad (5.1.4)-1} date 13/10/2020 6:20:09 PM
; FORMAT={-:-/ absolute / inch / decimal}
; #@! TF.CreationDate,2020-10-13T18:20:09+11:00
; #@! TF.GenerationSoftware,Kicad,Pcbnew,(5.1.4)-1
; #@! TF.FileFunction,Plated,1,2,PTH
FMAT,2
INCH
T1C0.0130
T2C0.0295
T3C0.0315
T4C0.0394
%
G90
G05
T1
X5.9846Y-3.8133
X6.165Y-4.2119
X6.1823Y-4.0154
X6.3359Y-4.0025
T2
X6.375Y-4.625
X6.375Y-4.675
X6.375Y-4.725
T3
X5.134Y-4.5866
X5.134Y-4.685
X5.134Y-4.7834
X5.26Y-4.5866
X5.26Y-4.685
X5.26Y-4.7834
X7.02Y-4.5
X7.02Y-4.9
X7.17Y-4.5
X7.17Y-4.9
X6.57Y-4.5
X6.57Y-4.9
X6.87Y-4.5
X6.87Y-4.9
X6.72Y-4.5
X6.72Y-4.9
X5.87Y-4.53
X5.87Y-4.83
X5.97Y-4.53
X5.97Y-4.83
X6.07Y-4.53
X6.07Y-4.83
T4
X5.1215Y-3.7389
X5.1215Y-4.3291
X5.2215Y-3.7389
X5.2215Y-4.3291
X5.3215Y-3.7389
X5.3215Y-4.3291
X5.4215Y-3.7389
X5.4215Y-4.3291
X5.5215Y-3.7389
X5.5215Y-4.3291
X5.6215Y-3.7389
X5.6215Y-4.3291
X5.7215Y-3.7389
X5.7215Y-4.3291
X5.8215Y-3.7389
X5.8215Y-4.3291
X5.9215Y-3.7389
X5.9215Y-4.3291
X6.0215Y-3.7389
X6.0215Y-4.3291
X6.1215Y-3.7389
X6.1215Y-4.3291
X6.2215Y-3.7389
X6.2215Y-4.3291
X6.3215Y-3.7389
X6.3215Y-4.3291
X6.4215Y-3.7389
X6.4215Y-4.3291
X6.5215Y-3.7389
X6.5215Y-4.3291
X6.6215Y-3.7389
X6.6215Y-4.3291
X6.7215Y-3.7389
X6.7215Y-4.3291
X6.8215Y-3.7389
X6.8215Y-4.3291
X6.9215Y-3.7389
X6.9215Y-4.3291
X7.0215Y-3.7389
X7.0215Y-4.3291
X4.6465Y-3.484
X4.6465Y-4.084
X4.7465Y-3.484
X4.7465Y-4.084
X4.8465Y-3.484
X4.8465Y-4.084
X4.9465Y-3.484
X4.9465Y-4.084
X5.0465Y-3.484
X5.0465Y-4.084
X5.1465Y-3.484
X5.1465Y-4.084
X5.2465Y-3.484
X5.2465Y-4.084
X5.3465Y-3.484
X5.3465Y-4.084
X5.4465Y-3.484
X5.4465Y-4.084
X5.5465Y-3.484
X5.5465Y-4.084
X5.6465Y-3.484
X5.6465Y-4.084
X5.7465Y-3.484
X5.7465Y-4.084
X5.8465Y-3.484
X5.8465Y-4.084
X5.9465Y-3.484
X5.9465Y-4.084
X6.0465Y-3.484
X6.0465Y-4.084
X6.1465Y-3.484
X6.1465Y-4.084
X6.2465Y-3.484
X6.2465Y-4.084
X6.3465Y-3.484
X6.3465Y-4.084
X6.4465Y-3.484
X6.4465Y-4.084
X6.5465Y-3.484
X6.5465Y-4.084
X6.6465Y-3.484
X6.6465Y-4.084
X6.7465Y-3.484
X6.7465Y-4.084
X6.8465Y-3.484
X6.8465Y-4.084
X6.9465Y-3.484
X6.9465Y-4.084
T0
M30
