G04 #@! TF.GenerationSoftware,KiCad,Pcbnew,(5.1.4)-1*
G04 #@! TF.CreationDate,2020-10-13T18:20:07+11:00*
G04 #@! TF.ProjectId,27C160_Adapter,32374331-3630-45f4-9164-61707465722e,rev?*
G04 #@! TF.SameCoordinates,Original*
G04 #@! TF.FileFunction,Copper,L2,Bot*
G04 #@! TF.FilePolarity,Positive*
%FSLAX46Y46*%
G04 Gerber Fmt 4.6, Leading zero omitted, Abs format (unit mm)*
G04 Created by KiCad (PCBNEW (5.1.4)-1) date 2020-10-13 18:20:07*
%MOMM*%
%LPD*%
G04 APERTURE LIST*
%ADD10O,1.600000X1.600000*%
%ADD11C,1.600000*%
%ADD12R,1.500000X1.050000*%
%ADD13O,1.500000X1.050000*%
%ADD14R,1.600000X1.600000*%
%ADD15O,1.500000X3.000000*%
%ADD16C,0.685800*%
%ADD17C,0.254000*%
%ADD18C,0.250000*%
G04 APERTURE END LIST*
D10*
X174498000Y-124460000D03*
D11*
X174498000Y-114300000D03*
D12*
X161925000Y-120015000D03*
D13*
X161925000Y-117475000D03*
X161925000Y-118745000D03*
D10*
X178308000Y-124460000D03*
D11*
X178308000Y-114300000D03*
D10*
X182118000Y-124460000D03*
D11*
X182118000Y-114300000D03*
D10*
X170688000Y-114300000D03*
D11*
X170688000Y-124460000D03*
D10*
X166878000Y-114300000D03*
D11*
X166878000Y-124460000D03*
D10*
X149098000Y-115062000D03*
X154178000Y-122682000D03*
X151638000Y-115062000D03*
X151638000Y-122682000D03*
X154178000Y-115062000D03*
D14*
X149098000Y-122682000D03*
D11*
X133604000Y-116499000D03*
X133604000Y-118999000D03*
X133604000Y-121499000D03*
X130404000Y-116499000D03*
X130404000Y-118999000D03*
D14*
X130404000Y-121499000D03*
D15*
X130086000Y-109959000D03*
X132626000Y-109959000D03*
X135166000Y-109959000D03*
X137706000Y-109959000D03*
X140246000Y-109959000D03*
X142786000Y-109959000D03*
X145326000Y-109959000D03*
X147866000Y-109959000D03*
X150406000Y-109959000D03*
X152946000Y-109959000D03*
X155486000Y-109959000D03*
X158026000Y-109959000D03*
X160566000Y-109959000D03*
X163106000Y-109959000D03*
X165646000Y-109959000D03*
X168186000Y-109959000D03*
X170726000Y-109959000D03*
X173266000Y-109959000D03*
X175806000Y-109959000D03*
X178346000Y-109959000D03*
X178346000Y-94969000D03*
X175806000Y-94969000D03*
X173266000Y-94969000D03*
X170726000Y-94969000D03*
X168186000Y-94969000D03*
X165646000Y-94969000D03*
X163106000Y-94969000D03*
X160566000Y-94969000D03*
X158026000Y-94969000D03*
X155486000Y-94969000D03*
X152946000Y-94969000D03*
X150406000Y-94969000D03*
X147866000Y-94969000D03*
X145326000Y-94969000D03*
X142786000Y-94969000D03*
X140246000Y-94969000D03*
X137706000Y-94969000D03*
X135166000Y-94969000D03*
X132626000Y-94969000D03*
X130086000Y-94969000D03*
X118021000Y-103733600D03*
X120561000Y-103733600D03*
X123101000Y-103733600D03*
X125641000Y-103733600D03*
X128181000Y-103733600D03*
X130721000Y-103733600D03*
X133261000Y-103733600D03*
X135801000Y-103733600D03*
X138341000Y-103733600D03*
X140881000Y-103733600D03*
X143421000Y-103733600D03*
X145961000Y-103733600D03*
X148501000Y-103733600D03*
X151041000Y-103733600D03*
X153581000Y-103733600D03*
X156121000Y-103733600D03*
X158661000Y-103733600D03*
X161201000Y-103733600D03*
X163741000Y-103733600D03*
X166281000Y-103733600D03*
X168821000Y-103733600D03*
X171361000Y-103733600D03*
X173901000Y-103733600D03*
X176441000Y-103733600D03*
X176441000Y-88493600D03*
X173901000Y-88493600D03*
X171361000Y-88493600D03*
X168821000Y-88493600D03*
X166281000Y-88493600D03*
X163741000Y-88493600D03*
X161201000Y-88493600D03*
X158661000Y-88493600D03*
X156121000Y-88493600D03*
X153581000Y-88493600D03*
X151041000Y-88493600D03*
X148501000Y-88493600D03*
X145961000Y-88493600D03*
X143421000Y-88493600D03*
X140881000Y-88493600D03*
X138341000Y-88493600D03*
X135801000Y-88493600D03*
X133261000Y-88493600D03*
X130721000Y-88493600D03*
X128181000Y-88493600D03*
X125641000Y-88493600D03*
X123101000Y-88493600D03*
X120561000Y-88493600D03*
X118021000Y-88493600D03*
D16*
X157030534Y-101990177D03*
X152007618Y-96856632D03*
X160931314Y-101663975D03*
X156591000Y-106982401D03*
D17*
X127508000Y-105600600D02*
X126772010Y-104864610D01*
X127508000Y-105664000D02*
X127508000Y-105600600D01*
D18*
X176441000Y-88493600D02*
X176441000Y-88804300D01*
D17*
X166624000Y-120015000D02*
X161925000Y-120015000D01*
X170688000Y-124079000D02*
X166624000Y-120015000D01*
X160921000Y-120015000D02*
X161925000Y-120015000D01*
X155097118Y-120015000D02*
X160921000Y-120015000D01*
X152996999Y-122115119D02*
X155097118Y-120015000D01*
X152996999Y-123070883D02*
X152996999Y-122115119D01*
X152204881Y-123863001D02*
X152996999Y-123070883D01*
X142743644Y-123863001D02*
X152204881Y-123863001D01*
X135379643Y-116499000D02*
X142743644Y-123863001D01*
X133604000Y-116499000D02*
X135379643Y-116499000D01*
X162929000Y-118745000D02*
X161925000Y-118745000D01*
X163183370Y-118745000D02*
X162929000Y-118745000D01*
X166878000Y-115050370D02*
X163183370Y-118745000D01*
X166878000Y-113919000D02*
X166878000Y-115050370D01*
X153378001Y-123481999D02*
X154178000Y-122682000D01*
X152488989Y-124371011D02*
X153378001Y-123481999D01*
X142533220Y-124371011D02*
X152488989Y-124371011D01*
X135842210Y-117680001D02*
X142533220Y-124371011D01*
X131585001Y-117680001D02*
X135842210Y-117680001D01*
X130404000Y-116499000D02*
X131585001Y-117680001D01*
X150685390Y-121183790D02*
X151676000Y-122174400D01*
X141501301Y-121183790D02*
X150685390Y-121183790D01*
X131494990Y-109018501D02*
X131494990Y-111177479D01*
X131494990Y-111177479D02*
X141501301Y-121183790D01*
X129589990Y-107113501D02*
X131494990Y-109018501D01*
X129589990Y-102665990D02*
X129589990Y-107113501D01*
X125641000Y-98717000D02*
X129589990Y-102665990D01*
X151676000Y-122174400D02*
X151676000Y-122784000D01*
X125641000Y-88493600D02*
X125641000Y-98717000D01*
X148272400Y-122784000D02*
X149136000Y-122784000D01*
X142383077Y-122784000D02*
X148272400Y-122784000D01*
X131439087Y-111840010D02*
X142383077Y-122784000D01*
X129617521Y-111840010D02*
X131439087Y-111840010D01*
X128954990Y-111177479D02*
X129617521Y-111840010D01*
X128954990Y-108801590D02*
X128954990Y-111177479D01*
X125641000Y-105487600D02*
X128954990Y-108801590D01*
X125641000Y-103733600D02*
X125641000Y-105487600D01*
X156617010Y-101576653D02*
X157030534Y-101990177D01*
X156617010Y-90743610D02*
X156617010Y-101576653D01*
X156121000Y-88493600D02*
X156121000Y-90247600D01*
X156121000Y-90247600D02*
X156617010Y-90743610D01*
X139460000Y-108205000D02*
X138710000Y-108205000D01*
X137706000Y-109209000D02*
X137706000Y-109959000D01*
X142012010Y-102793101D02*
X142012010Y-105652990D01*
X147955100Y-96850011D02*
X142012010Y-102793101D01*
X151537010Y-96187479D02*
X150874479Y-96850010D01*
X138710000Y-108205000D02*
X137706000Y-109209000D01*
X151537010Y-93953990D02*
X151537010Y-96187479D01*
X152172010Y-93318990D02*
X151537010Y-93953990D01*
X152172010Y-87553101D02*
X152172010Y-93318990D01*
X153112521Y-86612590D02*
X152172010Y-87553101D01*
X161073990Y-86612590D02*
X153112521Y-86612590D01*
X142012010Y-105652990D02*
X139460000Y-108205000D01*
X161201000Y-86739600D02*
X161073990Y-86612590D01*
X150874479Y-96850010D02*
X147955100Y-96850011D01*
X161201000Y-88493600D02*
X161201000Y-86739600D01*
X144829990Y-104788510D02*
X144829990Y-100693555D01*
X140246000Y-109959000D02*
X140246000Y-109372500D01*
X140246000Y-109372500D02*
X144829990Y-104788510D01*
X144829990Y-100693555D02*
X148165525Y-97358020D01*
X148165525Y-97358020D02*
X151506230Y-97358020D01*
X151506230Y-97358020D02*
X152007618Y-96856632D01*
X161697010Y-100898279D02*
X160931314Y-101663975D01*
X161697010Y-94028501D02*
X161697010Y-100898279D01*
X171361000Y-87743600D02*
X170229990Y-86612590D01*
X171361000Y-88493600D02*
X171361000Y-87743600D01*
X170229990Y-86612590D02*
X163272521Y-86612590D01*
X163272521Y-86612590D02*
X162609990Y-87275121D01*
X162609990Y-87275121D02*
X162609990Y-93115521D01*
X162609990Y-93115521D02*
X161697010Y-94028501D01*
X152946000Y-109209000D02*
X152946000Y-109959000D01*
X155172599Y-106982401D02*
X152946000Y-109209000D01*
X156591000Y-106982401D02*
X155172599Y-106982401D01*
X158026000Y-108205000D02*
X158026000Y-109959000D01*
X157529990Y-107708990D02*
X158026000Y-108205000D01*
X157529990Y-102515121D02*
X157529990Y-107708990D01*
X159157010Y-100888101D02*
X157529990Y-102515121D01*
X159157010Y-93750521D02*
X159157010Y-100888101D01*
X158661000Y-93254511D02*
X159157010Y-93750521D01*
X158661000Y-88493600D02*
X158661000Y-93254511D01*
X160566000Y-109209000D02*
X160566000Y-109959000D01*
X162332010Y-107442990D02*
X160566000Y-109209000D01*
X162332010Y-102793101D02*
X162332010Y-107442990D01*
X164237010Y-100888101D02*
X162332010Y-102793101D01*
X164237010Y-93750521D02*
X164237010Y-100888101D01*
X163741000Y-93254511D02*
X164237010Y-93750521D01*
X163741000Y-88493600D02*
X163741000Y-93254511D01*
X167054990Y-91009610D02*
X168821000Y-89243600D01*
X167054990Y-95909499D02*
X167054990Y-91009610D01*
X165149990Y-97814499D02*
X167054990Y-95909499D01*
X165149990Y-104674099D02*
X165149990Y-97814499D01*
X168821000Y-89243600D02*
X168821000Y-88493600D01*
X163106000Y-106718089D02*
X165149990Y-104674099D01*
X163106000Y-109959000D02*
X163106000Y-106718089D01*
X165646000Y-109209000D02*
X165646000Y-109959000D01*
X167412010Y-102589990D02*
X167412010Y-107442990D01*
X169317010Y-100684990D02*
X167412010Y-102589990D01*
X169317010Y-93827590D02*
X169317010Y-100684990D01*
X173901000Y-89243600D02*
X169317010Y-93827590D01*
X167412010Y-107442990D02*
X165646000Y-109209000D01*
X173901000Y-88493600D02*
X173901000Y-89243600D01*
X168186000Y-109209000D02*
X170334000Y-107061000D01*
X168186000Y-109959000D02*
X168186000Y-109209000D01*
X173901000Y-104483600D02*
X173901000Y-103733600D01*
X171323600Y-107061000D02*
X173901000Y-104483600D01*
X170334000Y-107061000D02*
X171323600Y-107061000D01*
X175806000Y-110709000D02*
X175806000Y-109959000D01*
X174674990Y-111840010D02*
X175806000Y-110709000D01*
X160097521Y-111840010D02*
X174674990Y-111840010D01*
X159434990Y-111177479D02*
X160097521Y-111840010D01*
X159434990Y-106261590D02*
X159434990Y-111177479D01*
X158661000Y-105487600D02*
X159434990Y-106261590D01*
X158661000Y-103733600D02*
X158661000Y-105487600D01*
X150406000Y-93215000D02*
X150406000Y-94969000D01*
X149909990Y-92718990D02*
X150406000Y-93215000D01*
X147953460Y-85596571D02*
X149909990Y-87553101D01*
X149909990Y-87553101D02*
X149909990Y-92718990D01*
X135408029Y-85596571D02*
X147953460Y-85596571D01*
X133261000Y-87743600D02*
X135408029Y-85596571D01*
X133261000Y-88493600D02*
X133261000Y-87743600D01*
X147866000Y-93215000D02*
X147866000Y-94969000D01*
X147369990Y-92718990D02*
X147866000Y-93215000D01*
X147369990Y-87553101D02*
X147369990Y-92718990D01*
X145921470Y-86104581D02*
X147369990Y-87553101D01*
X137440019Y-86104581D02*
X145921470Y-86104581D01*
X135801000Y-87743600D02*
X137440019Y-86104581D01*
X135801000Y-88493600D02*
X135801000Y-87743600D01*
D18*
X142786000Y-94969000D02*
X142786000Y-93191300D01*
X140881000Y-88493600D02*
X140881000Y-91286300D01*
X140881000Y-91286300D02*
X142786000Y-93191300D01*
D17*
X137706000Y-94219000D02*
X137706000Y-94969000D01*
X139472010Y-92452990D02*
X137706000Y-94219000D01*
X140336410Y-86612590D02*
X139472010Y-87476990D01*
X144829990Y-86612590D02*
X140336410Y-86612590D01*
X139472010Y-87476990D02*
X139472010Y-92452990D01*
X145961000Y-87743600D02*
X144829990Y-86612590D01*
X145961000Y-88493600D02*
X145961000Y-87743600D01*
G36*
X188670300Y-83687326D02*
G01*
X188864889Y-83746077D01*
X189044364Y-83841505D01*
X189201883Y-83969975D01*
X189331451Y-84126596D01*
X189428130Y-84305400D01*
X189488238Y-84499577D01*
X189510600Y-84712344D01*
X189510601Y-125337866D01*
X189492092Y-125526632D01*
X189440507Y-125697489D01*
X189356714Y-125855083D01*
X189243909Y-125993394D01*
X189106386Y-126107163D01*
X188949385Y-126192054D01*
X188778888Y-126244832D01*
X188590800Y-126264600D01*
X128789124Y-126264600D01*
X128600368Y-126246092D01*
X128429511Y-126194507D01*
X128271917Y-126110714D01*
X128133606Y-125997909D01*
X128019837Y-125860386D01*
X127934946Y-125703385D01*
X127882168Y-125532888D01*
X127862400Y-125344800D01*
X127862400Y-120699000D01*
X129221157Y-120699000D01*
X129221157Y-122299000D01*
X129228513Y-122373689D01*
X129250299Y-122445508D01*
X129285678Y-122511696D01*
X129333289Y-122569711D01*
X129391304Y-122617322D01*
X129457492Y-122652701D01*
X129529311Y-122674487D01*
X129604000Y-122681843D01*
X131204000Y-122681843D01*
X131278689Y-122674487D01*
X131350508Y-122652701D01*
X131416696Y-122617322D01*
X131474711Y-122569711D01*
X131522322Y-122511696D01*
X131557701Y-122445508D01*
X131579487Y-122373689D01*
X131586843Y-122299000D01*
X131586843Y-121382682D01*
X132423000Y-121382682D01*
X132423000Y-121615318D01*
X132468386Y-121843485D01*
X132557412Y-122058413D01*
X132686658Y-122251843D01*
X132851157Y-122416342D01*
X133044587Y-122545588D01*
X133259515Y-122634614D01*
X133487682Y-122680000D01*
X133720318Y-122680000D01*
X133948485Y-122634614D01*
X134163413Y-122545588D01*
X134356843Y-122416342D01*
X134521342Y-122251843D01*
X134650588Y-122058413D01*
X134739614Y-121843485D01*
X134785000Y-121615318D01*
X134785000Y-121382682D01*
X134739614Y-121154515D01*
X134650588Y-120939587D01*
X134521342Y-120746157D01*
X134356843Y-120581658D01*
X134163413Y-120452412D01*
X133948485Y-120363386D01*
X133720318Y-120318000D01*
X133487682Y-120318000D01*
X133259515Y-120363386D01*
X133044587Y-120452412D01*
X132851157Y-120581658D01*
X132686658Y-120746157D01*
X132557412Y-120939587D01*
X132468386Y-121154515D01*
X132423000Y-121382682D01*
X131586843Y-121382682D01*
X131586843Y-120699000D01*
X131579487Y-120624311D01*
X131557701Y-120552492D01*
X131522322Y-120486304D01*
X131474711Y-120428289D01*
X131416696Y-120380678D01*
X131350508Y-120345299D01*
X131278689Y-120323513D01*
X131204000Y-120316157D01*
X129604000Y-120316157D01*
X129529311Y-120323513D01*
X129457492Y-120345299D01*
X129391304Y-120380678D01*
X129333289Y-120428289D01*
X129285678Y-120486304D01*
X129250299Y-120552492D01*
X129228513Y-120624311D01*
X129221157Y-120699000D01*
X127862400Y-120699000D01*
X127862400Y-118882682D01*
X129223000Y-118882682D01*
X129223000Y-119115318D01*
X129268386Y-119343485D01*
X129357412Y-119558413D01*
X129486658Y-119751843D01*
X129651157Y-119916342D01*
X129844587Y-120045588D01*
X130059515Y-120134614D01*
X130287682Y-120180000D01*
X130520318Y-120180000D01*
X130748485Y-120134614D01*
X130963413Y-120045588D01*
X131156843Y-119916342D01*
X131321342Y-119751843D01*
X131450588Y-119558413D01*
X131539614Y-119343485D01*
X131585000Y-119115318D01*
X131585000Y-118882682D01*
X131539614Y-118654515D01*
X131450588Y-118439587D01*
X131321342Y-118246157D01*
X131156843Y-118081658D01*
X130963413Y-117952412D01*
X130748485Y-117863386D01*
X130520318Y-117818000D01*
X130287682Y-117818000D01*
X130059515Y-117863386D01*
X129844587Y-117952412D01*
X129651157Y-118081658D01*
X129486658Y-118246157D01*
X129357412Y-118439587D01*
X129268386Y-118654515D01*
X129223000Y-118882682D01*
X127862400Y-118882682D01*
X127862400Y-109970833D01*
X127861386Y-109960541D01*
X127861436Y-109953411D01*
X127861126Y-109950251D01*
X127837809Y-109728399D01*
X127833670Y-109708236D01*
X127829803Y-109687963D01*
X127828885Y-109684924D01*
X127762920Y-109471826D01*
X127754948Y-109452861D01*
X127747213Y-109433716D01*
X127745722Y-109430913D01*
X127639622Y-109234686D01*
X127628102Y-109217606D01*
X127616812Y-109200354D01*
X127614805Y-109197893D01*
X127472612Y-109026011D01*
X127458008Y-109011509D01*
X127443567Y-108996762D01*
X127441121Y-108994739D01*
X127268251Y-108853749D01*
X127251094Y-108842350D01*
X127234077Y-108830698D01*
X127231284Y-108829188D01*
X127034320Y-108724461D01*
X127015290Y-108716618D01*
X126996322Y-108708488D01*
X126993289Y-108707550D01*
X126779736Y-108643074D01*
X126759573Y-108639082D01*
X126739358Y-108634785D01*
X126736200Y-108634453D01*
X126514190Y-108612685D01*
X126514182Y-108612685D01*
X126503167Y-108611600D01*
X108469124Y-108611600D01*
X108280368Y-108593092D01*
X108109511Y-108541507D01*
X107951917Y-108457714D01*
X107813606Y-108344909D01*
X107699837Y-108207386D01*
X107614946Y-108050385D01*
X107562168Y-107879888D01*
X107542400Y-107691800D01*
X107542400Y-102928043D01*
X116890000Y-102928043D01*
X116890000Y-104539158D01*
X116906365Y-104705315D01*
X116971038Y-104918509D01*
X117076059Y-105114990D01*
X117217394Y-105287207D01*
X117389611Y-105428542D01*
X117586092Y-105533563D01*
X117799286Y-105598235D01*
X118021000Y-105620072D01*
X118242715Y-105598235D01*
X118455909Y-105533563D01*
X118652390Y-105428542D01*
X118824607Y-105287207D01*
X118965942Y-105114990D01*
X119070963Y-104918509D01*
X119135635Y-104705315D01*
X119152000Y-104539158D01*
X119152000Y-102928043D01*
X119430000Y-102928043D01*
X119430000Y-104539158D01*
X119446365Y-104705315D01*
X119511038Y-104918509D01*
X119616059Y-105114990D01*
X119757394Y-105287207D01*
X119929611Y-105428542D01*
X120126092Y-105533563D01*
X120339286Y-105598235D01*
X120561000Y-105620072D01*
X120782715Y-105598235D01*
X120995909Y-105533563D01*
X121192390Y-105428542D01*
X121364607Y-105287207D01*
X121505942Y-105114990D01*
X121610963Y-104918509D01*
X121675635Y-104705315D01*
X121692000Y-104539158D01*
X121692000Y-102928043D01*
X121970000Y-102928043D01*
X121970000Y-104539158D01*
X121986365Y-104705315D01*
X122051038Y-104918509D01*
X122156059Y-105114990D01*
X122297394Y-105287207D01*
X122469611Y-105428542D01*
X122666092Y-105533563D01*
X122879286Y-105598235D01*
X123101000Y-105620072D01*
X123322715Y-105598235D01*
X123535909Y-105533563D01*
X123732390Y-105428542D01*
X123904607Y-105287207D01*
X124045942Y-105114990D01*
X124150963Y-104918509D01*
X124215635Y-104705315D01*
X124232000Y-104539158D01*
X124232000Y-102928042D01*
X124215635Y-102761885D01*
X124150963Y-102548691D01*
X124045942Y-102352210D01*
X123904607Y-102179993D01*
X123732390Y-102038658D01*
X123535908Y-101933637D01*
X123322714Y-101868965D01*
X123101000Y-101847128D01*
X122879285Y-101868965D01*
X122666091Y-101933637D01*
X122469610Y-102038658D01*
X122297393Y-102179993D01*
X122156058Y-102352210D01*
X122051037Y-102548692D01*
X121986365Y-102761886D01*
X121970000Y-102928043D01*
X121692000Y-102928043D01*
X121692000Y-102928042D01*
X121675635Y-102761885D01*
X121610963Y-102548691D01*
X121505942Y-102352210D01*
X121364607Y-102179993D01*
X121192390Y-102038658D01*
X120995908Y-101933637D01*
X120782714Y-101868965D01*
X120561000Y-101847128D01*
X120339285Y-101868965D01*
X120126091Y-101933637D01*
X119929610Y-102038658D01*
X119757393Y-102179993D01*
X119616058Y-102352210D01*
X119511037Y-102548692D01*
X119446365Y-102761886D01*
X119430000Y-102928043D01*
X119152000Y-102928043D01*
X119152000Y-102928042D01*
X119135635Y-102761885D01*
X119070963Y-102548691D01*
X118965942Y-102352210D01*
X118824607Y-102179993D01*
X118652390Y-102038658D01*
X118455908Y-101933637D01*
X118242714Y-101868965D01*
X118021000Y-101847128D01*
X117799285Y-101868965D01*
X117586091Y-101933637D01*
X117389610Y-102038658D01*
X117217393Y-102179993D01*
X117076058Y-102352210D01*
X116971037Y-102548692D01*
X116906365Y-102761886D01*
X116890000Y-102928043D01*
X107542400Y-102928043D01*
X107542400Y-87688043D01*
X116890000Y-87688043D01*
X116890000Y-89299158D01*
X116906365Y-89465315D01*
X116971038Y-89678509D01*
X117076059Y-89874990D01*
X117217394Y-90047207D01*
X117389611Y-90188542D01*
X117586092Y-90293563D01*
X117799286Y-90358235D01*
X118021000Y-90380072D01*
X118242715Y-90358235D01*
X118455909Y-90293563D01*
X118652390Y-90188542D01*
X118824607Y-90047207D01*
X118965942Y-89874990D01*
X119070963Y-89678509D01*
X119135635Y-89465315D01*
X119152000Y-89299158D01*
X119152000Y-87688043D01*
X119430000Y-87688043D01*
X119430000Y-89299158D01*
X119446365Y-89465315D01*
X119511038Y-89678509D01*
X119616059Y-89874990D01*
X119757394Y-90047207D01*
X119929611Y-90188542D01*
X120126092Y-90293563D01*
X120339286Y-90358235D01*
X120561000Y-90380072D01*
X120782715Y-90358235D01*
X120995909Y-90293563D01*
X121192390Y-90188542D01*
X121364607Y-90047207D01*
X121505942Y-89874990D01*
X121610963Y-89678509D01*
X121675635Y-89465315D01*
X121692000Y-89299158D01*
X121692000Y-87688043D01*
X121970000Y-87688043D01*
X121970000Y-89299158D01*
X121986365Y-89465315D01*
X122051038Y-89678509D01*
X122156059Y-89874990D01*
X122297394Y-90047207D01*
X122469611Y-90188542D01*
X122666092Y-90293563D01*
X122879286Y-90358235D01*
X123101000Y-90380072D01*
X123322715Y-90358235D01*
X123535909Y-90293563D01*
X123732390Y-90188542D01*
X123904607Y-90047207D01*
X124045942Y-89874990D01*
X124150963Y-89678509D01*
X124215635Y-89465315D01*
X124232000Y-89299158D01*
X124232000Y-87688043D01*
X124510000Y-87688043D01*
X124510000Y-89299158D01*
X124526365Y-89465315D01*
X124591038Y-89678509D01*
X124696059Y-89874990D01*
X124837394Y-90047207D01*
X125009611Y-90188542D01*
X125133000Y-90254495D01*
X125133001Y-98692046D01*
X125130543Y-98717000D01*
X125140352Y-98816584D01*
X125169400Y-98912343D01*
X125216571Y-99000595D01*
X125264150Y-99058570D01*
X125280053Y-99077948D01*
X125299430Y-99093850D01*
X128064210Y-101858631D01*
X127959285Y-101868965D01*
X127746091Y-101933637D01*
X127549610Y-102038658D01*
X127377393Y-102179993D01*
X127236058Y-102352210D01*
X127131037Y-102548692D01*
X127066365Y-102761886D01*
X127050000Y-102928043D01*
X127050000Y-104437185D01*
X126967353Y-104393010D01*
X126871594Y-104363962D01*
X126772010Y-104354153D01*
X126772000Y-104354154D01*
X126772000Y-102928042D01*
X126755635Y-102761885D01*
X126690963Y-102548691D01*
X126585942Y-102352210D01*
X126444607Y-102179993D01*
X126272390Y-102038658D01*
X126075908Y-101933637D01*
X125862714Y-101868965D01*
X125641000Y-101847128D01*
X125419285Y-101868965D01*
X125206091Y-101933637D01*
X125009610Y-102038658D01*
X124837393Y-102179993D01*
X124696058Y-102352210D01*
X124591037Y-102548692D01*
X124526365Y-102761886D01*
X124510000Y-102928043D01*
X124510000Y-104539158D01*
X124526365Y-104705315D01*
X124591038Y-104918509D01*
X124696059Y-105114990D01*
X124837394Y-105287207D01*
X125009611Y-105428542D01*
X125131123Y-105493492D01*
X125140352Y-105587184D01*
X125169400Y-105682943D01*
X125216571Y-105771195D01*
X125249873Y-105811773D01*
X125280053Y-105848548D01*
X125299430Y-105864450D01*
X128446990Y-109012010D01*
X128446991Y-111152525D01*
X128444533Y-111177479D01*
X128447702Y-111209649D01*
X128454342Y-111277064D01*
X128471010Y-111332010D01*
X128483390Y-111372822D01*
X128530561Y-111461074D01*
X128561226Y-111498439D01*
X128594043Y-111538427D01*
X128613420Y-111554329D01*
X129240670Y-112181580D01*
X129256573Y-112200958D01*
X129275950Y-112216860D01*
X129333925Y-112264439D01*
X129422176Y-112311610D01*
X129422178Y-112311611D01*
X129517936Y-112340659D01*
X129592574Y-112348010D01*
X129592576Y-112348010D01*
X129617520Y-112350467D01*
X129642464Y-112348010D01*
X131228667Y-112348010D01*
X134871657Y-115991000D01*
X134671884Y-115991000D01*
X134650588Y-115939587D01*
X134521342Y-115746157D01*
X134356843Y-115581658D01*
X134163413Y-115452412D01*
X133948485Y-115363386D01*
X133720318Y-115318000D01*
X133487682Y-115318000D01*
X133259515Y-115363386D01*
X133044587Y-115452412D01*
X132851157Y-115581658D01*
X132686658Y-115746157D01*
X132557412Y-115939587D01*
X132468386Y-116154515D01*
X132423000Y-116382682D01*
X132423000Y-116615318D01*
X132468386Y-116843485D01*
X132557412Y-117058413D01*
X132633309Y-117172001D01*
X131795421Y-117172001D01*
X131518318Y-116894898D01*
X131539614Y-116843485D01*
X131585000Y-116615318D01*
X131585000Y-116382682D01*
X131539614Y-116154515D01*
X131450588Y-115939587D01*
X131321342Y-115746157D01*
X131156843Y-115581658D01*
X130963413Y-115452412D01*
X130748485Y-115363386D01*
X130520318Y-115318000D01*
X130287682Y-115318000D01*
X130059515Y-115363386D01*
X129844587Y-115452412D01*
X129651157Y-115581658D01*
X129486658Y-115746157D01*
X129357412Y-115939587D01*
X129268386Y-116154515D01*
X129223000Y-116382682D01*
X129223000Y-116615318D01*
X129268386Y-116843485D01*
X129357412Y-117058413D01*
X129486658Y-117251843D01*
X129651157Y-117416342D01*
X129844587Y-117545588D01*
X130059515Y-117634614D01*
X130287682Y-117680000D01*
X130520318Y-117680000D01*
X130748485Y-117634614D01*
X130799898Y-117613318D01*
X131208146Y-118021566D01*
X131224053Y-118040949D01*
X131301406Y-118104430D01*
X131389658Y-118151602D01*
X131485416Y-118180650D01*
X131560054Y-118188001D01*
X131560057Y-118188001D01*
X131585001Y-118190458D01*
X131609945Y-118188001D01*
X132744814Y-118188001D01*
X132686658Y-118246157D01*
X132557412Y-118439587D01*
X132468386Y-118654515D01*
X132423000Y-118882682D01*
X132423000Y-119115318D01*
X132468386Y-119343485D01*
X132557412Y-119558413D01*
X132686658Y-119751843D01*
X132851157Y-119916342D01*
X133044587Y-120045588D01*
X133259515Y-120134614D01*
X133487682Y-120180000D01*
X133720318Y-120180000D01*
X133948485Y-120134614D01*
X134163413Y-120045588D01*
X134356843Y-119916342D01*
X134521342Y-119751843D01*
X134650588Y-119558413D01*
X134739614Y-119343485D01*
X134785000Y-119115318D01*
X134785000Y-118882682D01*
X134739614Y-118654515D01*
X134650588Y-118439587D01*
X134521342Y-118246157D01*
X134463186Y-118188001D01*
X135631790Y-118188001D01*
X142156370Y-124712582D01*
X142172272Y-124731959D01*
X142191649Y-124747861D01*
X142249624Y-124795440D01*
X142296796Y-124820654D01*
X142337877Y-124842612D01*
X142433635Y-124871660D01*
X142508273Y-124879011D01*
X142508275Y-124879011D01*
X142533219Y-124881468D01*
X142558163Y-124879011D01*
X152464045Y-124879011D01*
X152488989Y-124881468D01*
X152513933Y-124879011D01*
X152513936Y-124879011D01*
X152588574Y-124871660D01*
X152684332Y-124842612D01*
X152772584Y-124795440D01*
X152849937Y-124731959D01*
X152865844Y-124712576D01*
X153234738Y-124343682D01*
X165697000Y-124343682D01*
X165697000Y-124576318D01*
X165742386Y-124804485D01*
X165831412Y-125019413D01*
X165960658Y-125212843D01*
X166125157Y-125377342D01*
X166318587Y-125506588D01*
X166533515Y-125595614D01*
X166761682Y-125641000D01*
X166994318Y-125641000D01*
X167222485Y-125595614D01*
X167437413Y-125506588D01*
X167630843Y-125377342D01*
X167795342Y-125212843D01*
X167924588Y-125019413D01*
X168013614Y-124804485D01*
X168059000Y-124576318D01*
X168059000Y-124343682D01*
X168013614Y-124115515D01*
X167924588Y-123900587D01*
X167795342Y-123707157D01*
X167630843Y-123542658D01*
X167437413Y-123413412D01*
X167222485Y-123324386D01*
X166994318Y-123279000D01*
X166761682Y-123279000D01*
X166533515Y-123324386D01*
X166318587Y-123413412D01*
X166125157Y-123542658D01*
X165960658Y-123707157D01*
X165831412Y-123900587D01*
X165742386Y-124115515D01*
X165697000Y-124343682D01*
X153234738Y-124343682D01*
X153782310Y-123796110D01*
X153946484Y-123845912D01*
X154119984Y-123863000D01*
X154236016Y-123863000D01*
X154409516Y-123845912D01*
X154632136Y-123778381D01*
X154837303Y-123668717D01*
X155017134Y-123521134D01*
X155164717Y-123341303D01*
X155274381Y-123136136D01*
X155341912Y-122913516D01*
X155364714Y-122682000D01*
X155341912Y-122450484D01*
X155274381Y-122227864D01*
X155164717Y-122022697D01*
X155017134Y-121842866D01*
X154837303Y-121695283D01*
X154632136Y-121585619D01*
X154409516Y-121518088D01*
X154321153Y-121509385D01*
X155307538Y-120523000D01*
X160792157Y-120523000D01*
X160792157Y-120540000D01*
X160799513Y-120614689D01*
X160821299Y-120686508D01*
X160856678Y-120752696D01*
X160904289Y-120810711D01*
X160962304Y-120858322D01*
X161028492Y-120893701D01*
X161100311Y-120915487D01*
X161175000Y-120922843D01*
X162675000Y-120922843D01*
X162749689Y-120915487D01*
X162821508Y-120893701D01*
X162887696Y-120858322D01*
X162945711Y-120810711D01*
X162993322Y-120752696D01*
X163028701Y-120686508D01*
X163050487Y-120614689D01*
X163057843Y-120540000D01*
X163057843Y-120523000D01*
X166413580Y-120523000D01*
X169701395Y-123810815D01*
X169641412Y-123900587D01*
X169552386Y-124115515D01*
X169507000Y-124343682D01*
X169507000Y-124576318D01*
X169552386Y-124804485D01*
X169641412Y-125019413D01*
X169770658Y-125212843D01*
X169935157Y-125377342D01*
X170128587Y-125506588D01*
X170343515Y-125595614D01*
X170571682Y-125641000D01*
X170804318Y-125641000D01*
X171032485Y-125595614D01*
X171247413Y-125506588D01*
X171440843Y-125377342D01*
X171605342Y-125212843D01*
X171734588Y-125019413D01*
X171823614Y-124804485D01*
X171869000Y-124576318D01*
X171869000Y-124460000D01*
X173311286Y-124460000D01*
X173334088Y-124691516D01*
X173401619Y-124914136D01*
X173511283Y-125119303D01*
X173658866Y-125299134D01*
X173838697Y-125446717D01*
X174043864Y-125556381D01*
X174266484Y-125623912D01*
X174439984Y-125641000D01*
X174556016Y-125641000D01*
X174729516Y-125623912D01*
X174952136Y-125556381D01*
X175157303Y-125446717D01*
X175337134Y-125299134D01*
X175484717Y-125119303D01*
X175594381Y-124914136D01*
X175661912Y-124691516D01*
X175684714Y-124460000D01*
X177121286Y-124460000D01*
X177144088Y-124691516D01*
X177211619Y-124914136D01*
X177321283Y-125119303D01*
X177468866Y-125299134D01*
X177648697Y-125446717D01*
X177853864Y-125556381D01*
X178076484Y-125623912D01*
X178249984Y-125641000D01*
X178366016Y-125641000D01*
X178539516Y-125623912D01*
X178762136Y-125556381D01*
X178967303Y-125446717D01*
X179147134Y-125299134D01*
X179294717Y-125119303D01*
X179404381Y-124914136D01*
X179471912Y-124691516D01*
X179494714Y-124460000D01*
X180931286Y-124460000D01*
X180954088Y-124691516D01*
X181021619Y-124914136D01*
X181131283Y-125119303D01*
X181278866Y-125299134D01*
X181458697Y-125446717D01*
X181663864Y-125556381D01*
X181886484Y-125623912D01*
X182059984Y-125641000D01*
X182176016Y-125641000D01*
X182349516Y-125623912D01*
X182572136Y-125556381D01*
X182777303Y-125446717D01*
X182957134Y-125299134D01*
X183104717Y-125119303D01*
X183214381Y-124914136D01*
X183281912Y-124691516D01*
X183304714Y-124460000D01*
X183281912Y-124228484D01*
X183214381Y-124005864D01*
X183104717Y-123800697D01*
X182957134Y-123620866D01*
X182777303Y-123473283D01*
X182572136Y-123363619D01*
X182349516Y-123296088D01*
X182176016Y-123279000D01*
X182059984Y-123279000D01*
X181886484Y-123296088D01*
X181663864Y-123363619D01*
X181458697Y-123473283D01*
X181278866Y-123620866D01*
X181131283Y-123800697D01*
X181021619Y-124005864D01*
X180954088Y-124228484D01*
X180931286Y-124460000D01*
X179494714Y-124460000D01*
X179471912Y-124228484D01*
X179404381Y-124005864D01*
X179294717Y-123800697D01*
X179147134Y-123620866D01*
X178967303Y-123473283D01*
X178762136Y-123363619D01*
X178539516Y-123296088D01*
X178366016Y-123279000D01*
X178249984Y-123279000D01*
X178076484Y-123296088D01*
X177853864Y-123363619D01*
X177648697Y-123473283D01*
X177468866Y-123620866D01*
X177321283Y-123800697D01*
X177211619Y-124005864D01*
X177144088Y-124228484D01*
X177121286Y-124460000D01*
X175684714Y-124460000D01*
X175661912Y-124228484D01*
X175594381Y-124005864D01*
X175484717Y-123800697D01*
X175337134Y-123620866D01*
X175157303Y-123473283D01*
X174952136Y-123363619D01*
X174729516Y-123296088D01*
X174556016Y-123279000D01*
X174439984Y-123279000D01*
X174266484Y-123296088D01*
X174043864Y-123363619D01*
X173838697Y-123473283D01*
X173658866Y-123620866D01*
X173511283Y-123800697D01*
X173401619Y-124005864D01*
X173334088Y-124228484D01*
X173311286Y-124460000D01*
X171869000Y-124460000D01*
X171869000Y-124343682D01*
X171823614Y-124115515D01*
X171734588Y-123900587D01*
X171605342Y-123707157D01*
X171440843Y-123542658D01*
X171247413Y-123413412D01*
X171032485Y-123324386D01*
X170804318Y-123279000D01*
X170606420Y-123279000D01*
X167000855Y-119673435D01*
X166984948Y-119654052D01*
X166907595Y-119590571D01*
X166819343Y-119543399D01*
X166723585Y-119514351D01*
X166648947Y-119507000D01*
X166648944Y-119507000D01*
X166624000Y-119504543D01*
X166599056Y-119507000D01*
X163057843Y-119507000D01*
X163057843Y-119490000D01*
X163050487Y-119415311D01*
X163028701Y-119343492D01*
X162993322Y-119277304D01*
X162973377Y-119253000D01*
X163158426Y-119253000D01*
X163183370Y-119255457D01*
X163208314Y-119253000D01*
X163208317Y-119253000D01*
X163282955Y-119245649D01*
X163378713Y-119216601D01*
X163466965Y-119169429D01*
X163544318Y-119105948D01*
X163560225Y-119086565D01*
X167214822Y-115431968D01*
X167332136Y-115396381D01*
X167537303Y-115286717D01*
X167717134Y-115139134D01*
X167864717Y-114959303D01*
X167974381Y-114754136D01*
X168006261Y-114649040D01*
X169296091Y-114649040D01*
X169390930Y-114913881D01*
X169535615Y-115155131D01*
X169724586Y-115363519D01*
X169950580Y-115531037D01*
X170204913Y-115651246D01*
X170338961Y-115691904D01*
X170561000Y-115569915D01*
X170561000Y-114427000D01*
X170815000Y-114427000D01*
X170815000Y-115569915D01*
X171037039Y-115691904D01*
X171171087Y-115651246D01*
X171425420Y-115531037D01*
X171651414Y-115363519D01*
X171840385Y-115155131D01*
X171985070Y-114913881D01*
X172079909Y-114649040D01*
X171958624Y-114427000D01*
X170815000Y-114427000D01*
X170561000Y-114427000D01*
X169417376Y-114427000D01*
X169296091Y-114649040D01*
X168006261Y-114649040D01*
X168041912Y-114531516D01*
X168064714Y-114300000D01*
X168053258Y-114183682D01*
X173317000Y-114183682D01*
X173317000Y-114416318D01*
X173362386Y-114644485D01*
X173451412Y-114859413D01*
X173580658Y-115052843D01*
X173745157Y-115217342D01*
X173938587Y-115346588D01*
X174153515Y-115435614D01*
X174381682Y-115481000D01*
X174614318Y-115481000D01*
X174842485Y-115435614D01*
X175057413Y-115346588D01*
X175250843Y-115217342D01*
X175415342Y-115052843D01*
X175544588Y-114859413D01*
X175633614Y-114644485D01*
X175679000Y-114416318D01*
X175679000Y-114183682D01*
X177127000Y-114183682D01*
X177127000Y-114416318D01*
X177172386Y-114644485D01*
X177261412Y-114859413D01*
X177390658Y-115052843D01*
X177555157Y-115217342D01*
X177748587Y-115346588D01*
X177963515Y-115435614D01*
X178191682Y-115481000D01*
X178424318Y-115481000D01*
X178652485Y-115435614D01*
X178867413Y-115346588D01*
X179060843Y-115217342D01*
X179225342Y-115052843D01*
X179354588Y-114859413D01*
X179443614Y-114644485D01*
X179489000Y-114416318D01*
X179489000Y-114183682D01*
X180937000Y-114183682D01*
X180937000Y-114416318D01*
X180982386Y-114644485D01*
X181071412Y-114859413D01*
X181200658Y-115052843D01*
X181365157Y-115217342D01*
X181558587Y-115346588D01*
X181773515Y-115435614D01*
X182001682Y-115481000D01*
X182234318Y-115481000D01*
X182462485Y-115435614D01*
X182677413Y-115346588D01*
X182870843Y-115217342D01*
X183035342Y-115052843D01*
X183164588Y-114859413D01*
X183253614Y-114644485D01*
X183299000Y-114416318D01*
X183299000Y-114183682D01*
X183253614Y-113955515D01*
X183164588Y-113740587D01*
X183035342Y-113547157D01*
X182870843Y-113382658D01*
X182677413Y-113253412D01*
X182462485Y-113164386D01*
X182234318Y-113119000D01*
X182001682Y-113119000D01*
X181773515Y-113164386D01*
X181558587Y-113253412D01*
X181365157Y-113382658D01*
X181200658Y-113547157D01*
X181071412Y-113740587D01*
X180982386Y-113955515D01*
X180937000Y-114183682D01*
X179489000Y-114183682D01*
X179443614Y-113955515D01*
X179354588Y-113740587D01*
X179225342Y-113547157D01*
X179060843Y-113382658D01*
X178867413Y-113253412D01*
X178652485Y-113164386D01*
X178424318Y-113119000D01*
X178191682Y-113119000D01*
X177963515Y-113164386D01*
X177748587Y-113253412D01*
X177555157Y-113382658D01*
X177390658Y-113547157D01*
X177261412Y-113740587D01*
X177172386Y-113955515D01*
X177127000Y-114183682D01*
X175679000Y-114183682D01*
X175633614Y-113955515D01*
X175544588Y-113740587D01*
X175415342Y-113547157D01*
X175250843Y-113382658D01*
X175057413Y-113253412D01*
X174842485Y-113164386D01*
X174614318Y-113119000D01*
X174381682Y-113119000D01*
X174153515Y-113164386D01*
X173938587Y-113253412D01*
X173745157Y-113382658D01*
X173580658Y-113547157D01*
X173451412Y-113740587D01*
X173362386Y-113955515D01*
X173317000Y-114183682D01*
X168053258Y-114183682D01*
X168041912Y-114068484D01*
X168006262Y-113950960D01*
X169296091Y-113950960D01*
X169417376Y-114173000D01*
X170561000Y-114173000D01*
X170561000Y-113030085D01*
X170815000Y-113030085D01*
X170815000Y-114173000D01*
X171958624Y-114173000D01*
X172079909Y-113950960D01*
X171985070Y-113686119D01*
X171840385Y-113444869D01*
X171651414Y-113236481D01*
X171425420Y-113068963D01*
X171171087Y-112948754D01*
X171037039Y-112908096D01*
X170815000Y-113030085D01*
X170561000Y-113030085D01*
X170338961Y-112908096D01*
X170204913Y-112948754D01*
X169950580Y-113068963D01*
X169724586Y-113236481D01*
X169535615Y-113444869D01*
X169390930Y-113686119D01*
X169296091Y-113950960D01*
X168006262Y-113950960D01*
X167974381Y-113845864D01*
X167864717Y-113640697D01*
X167717134Y-113460866D01*
X167537303Y-113313283D01*
X167332136Y-113203619D01*
X167109516Y-113136088D01*
X166936016Y-113119000D01*
X166819984Y-113119000D01*
X166646484Y-113136088D01*
X166423864Y-113203619D01*
X166218697Y-113313283D01*
X166038866Y-113460866D01*
X165891283Y-113640697D01*
X165781619Y-113845864D01*
X165714088Y-114068484D01*
X165691286Y-114300000D01*
X165714088Y-114531516D01*
X165781619Y-114754136D01*
X165891283Y-114959303D01*
X166038866Y-115139134D01*
X166056414Y-115153536D01*
X162972950Y-118237000D01*
X162905136Y-118237000D01*
X162800909Y-118110000D01*
X162906956Y-117980782D01*
X162991084Y-117823388D01*
X163042890Y-117652607D01*
X163060383Y-117475000D01*
X163042890Y-117297393D01*
X162991084Y-117126612D01*
X162906956Y-116969218D01*
X162793738Y-116831262D01*
X162655782Y-116718044D01*
X162498388Y-116633916D01*
X162327607Y-116582110D01*
X162194501Y-116569000D01*
X161655499Y-116569000D01*
X161522393Y-116582110D01*
X161351612Y-116633916D01*
X161194218Y-116718044D01*
X161056262Y-116831262D01*
X160943044Y-116969218D01*
X160858916Y-117126612D01*
X160807110Y-117297393D01*
X160789617Y-117475000D01*
X160807110Y-117652607D01*
X160858916Y-117823388D01*
X160943044Y-117980782D01*
X161049091Y-118110000D01*
X160943044Y-118239218D01*
X160858916Y-118396612D01*
X160807110Y-118567393D01*
X160789617Y-118745000D01*
X160807110Y-118922607D01*
X160858916Y-119093388D01*
X160919527Y-119206784D01*
X160904289Y-119219289D01*
X160856678Y-119277304D01*
X160821299Y-119343492D01*
X160799513Y-119415311D01*
X160792157Y-119490000D01*
X160792157Y-119507000D01*
X155122062Y-119507000D01*
X155097118Y-119504543D01*
X155072174Y-119507000D01*
X155072171Y-119507000D01*
X154997533Y-119514351D01*
X154901775Y-119543399D01*
X154813523Y-119590571D01*
X154736170Y-119654052D01*
X154720263Y-119673435D01*
X152655429Y-121738269D01*
X152636052Y-121754171D01*
X152620150Y-121773548D01*
X152620149Y-121773549D01*
X152572570Y-121831524D01*
X152531257Y-121908816D01*
X152477134Y-121842866D01*
X152297303Y-121695283D01*
X152092136Y-121585619D01*
X151869516Y-121518088D01*
X151723752Y-121503732D01*
X151062245Y-120842225D01*
X151046338Y-120822842D01*
X150968985Y-120759361D01*
X150880733Y-120712189D01*
X150784975Y-120683141D01*
X150710337Y-120675790D01*
X150710334Y-120675790D01*
X150685390Y-120673333D01*
X150660446Y-120675790D01*
X141711721Y-120675790D01*
X136446971Y-115411040D01*
X147706091Y-115411040D01*
X147800930Y-115675881D01*
X147945615Y-115917131D01*
X148134586Y-116125519D01*
X148360580Y-116293037D01*
X148614913Y-116413246D01*
X148748961Y-116453904D01*
X148971000Y-116331915D01*
X148971000Y-115189000D01*
X149225000Y-115189000D01*
X149225000Y-116331915D01*
X149447039Y-116453904D01*
X149581087Y-116413246D01*
X149835420Y-116293037D01*
X150061414Y-116125519D01*
X150250385Y-115917131D01*
X150368000Y-115721018D01*
X150485615Y-115917131D01*
X150674586Y-116125519D01*
X150900580Y-116293037D01*
X151154913Y-116413246D01*
X151288961Y-116453904D01*
X151511000Y-116331915D01*
X151511000Y-115189000D01*
X151765000Y-115189000D01*
X151765000Y-116331915D01*
X151987039Y-116453904D01*
X152121087Y-116413246D01*
X152375420Y-116293037D01*
X152601414Y-116125519D01*
X152790385Y-115917131D01*
X152908000Y-115721018D01*
X153025615Y-115917131D01*
X153214586Y-116125519D01*
X153440580Y-116293037D01*
X153694913Y-116413246D01*
X153828961Y-116453904D01*
X154051000Y-116331915D01*
X154051000Y-115189000D01*
X154305000Y-115189000D01*
X154305000Y-116331915D01*
X154527039Y-116453904D01*
X154661087Y-116413246D01*
X154915420Y-116293037D01*
X155141414Y-116125519D01*
X155330385Y-115917131D01*
X155475070Y-115675881D01*
X155569909Y-115411040D01*
X155448624Y-115189000D01*
X154305000Y-115189000D01*
X154051000Y-115189000D01*
X151765000Y-115189000D01*
X151511000Y-115189000D01*
X149225000Y-115189000D01*
X148971000Y-115189000D01*
X147827376Y-115189000D01*
X147706091Y-115411040D01*
X136446971Y-115411040D01*
X135748891Y-114712960D01*
X147706091Y-114712960D01*
X147827376Y-114935000D01*
X148971000Y-114935000D01*
X148971000Y-113792085D01*
X149225000Y-113792085D01*
X149225000Y-114935000D01*
X151511000Y-114935000D01*
X151511000Y-113792085D01*
X151765000Y-113792085D01*
X151765000Y-114935000D01*
X154051000Y-114935000D01*
X154051000Y-113792085D01*
X154305000Y-113792085D01*
X154305000Y-114935000D01*
X155448624Y-114935000D01*
X155569909Y-114712960D01*
X155475070Y-114448119D01*
X155330385Y-114206869D01*
X155141414Y-113998481D01*
X154915420Y-113830963D01*
X154661087Y-113710754D01*
X154527039Y-113670096D01*
X154305000Y-113792085D01*
X154051000Y-113792085D01*
X153828961Y-113670096D01*
X153694913Y-113710754D01*
X153440580Y-113830963D01*
X153214586Y-113998481D01*
X153025615Y-114206869D01*
X152908000Y-114402982D01*
X152790385Y-114206869D01*
X152601414Y-113998481D01*
X152375420Y-113830963D01*
X152121087Y-113710754D01*
X151987039Y-113670096D01*
X151765000Y-113792085D01*
X151511000Y-113792085D01*
X151288961Y-113670096D01*
X151154913Y-113710754D01*
X150900580Y-113830963D01*
X150674586Y-113998481D01*
X150485615Y-114206869D01*
X150368000Y-114402982D01*
X150250385Y-114206869D01*
X150061414Y-113998481D01*
X149835420Y-113830963D01*
X149581087Y-113710754D01*
X149447039Y-113670096D01*
X149225000Y-113792085D01*
X148971000Y-113792085D01*
X148748961Y-113670096D01*
X148614913Y-113710754D01*
X148360580Y-113830963D01*
X148134586Y-113998481D01*
X147945615Y-114206869D01*
X147800930Y-114448119D01*
X147706091Y-114712960D01*
X135748891Y-114712960D01*
X132856808Y-111820877D01*
X133060909Y-111758963D01*
X133257390Y-111653942D01*
X133429607Y-111512607D01*
X133570942Y-111340390D01*
X133675963Y-111143909D01*
X133740635Y-110930715D01*
X133757000Y-110764558D01*
X133757000Y-109153443D01*
X134035000Y-109153443D01*
X134035000Y-110764558D01*
X134051365Y-110930715D01*
X134116038Y-111143909D01*
X134221059Y-111340390D01*
X134362394Y-111512607D01*
X134534611Y-111653942D01*
X134731092Y-111758963D01*
X134944286Y-111823635D01*
X135166000Y-111845472D01*
X135387715Y-111823635D01*
X135600909Y-111758963D01*
X135797390Y-111653942D01*
X135969607Y-111512607D01*
X136110942Y-111340390D01*
X136215963Y-111143909D01*
X136280635Y-110930715D01*
X136297000Y-110764558D01*
X136297000Y-109153442D01*
X136280635Y-108987285D01*
X136215963Y-108774091D01*
X136110942Y-108577610D01*
X135969607Y-108405393D01*
X135797390Y-108264058D01*
X135600908Y-108159037D01*
X135387714Y-108094365D01*
X135166000Y-108072528D01*
X134944285Y-108094365D01*
X134731091Y-108159037D01*
X134534610Y-108264058D01*
X134362393Y-108405393D01*
X134221058Y-108577610D01*
X134116037Y-108774092D01*
X134051365Y-108987286D01*
X134035000Y-109153443D01*
X133757000Y-109153443D01*
X133757000Y-109153442D01*
X133740635Y-108987285D01*
X133675963Y-108774091D01*
X133570942Y-108577610D01*
X133429607Y-108405393D01*
X133257390Y-108264058D01*
X133060908Y-108159037D01*
X132847714Y-108094365D01*
X132626000Y-108072528D01*
X132404285Y-108094365D01*
X132191091Y-108159037D01*
X131994610Y-108264058D01*
X131822393Y-108405393D01*
X131722284Y-108527375D01*
X130097990Y-106903081D01*
X130097990Y-105433021D01*
X130286092Y-105533563D01*
X130499286Y-105598235D01*
X130721000Y-105620072D01*
X130942715Y-105598235D01*
X131155909Y-105533563D01*
X131352390Y-105428542D01*
X131524607Y-105287207D01*
X131665942Y-105114990D01*
X131770963Y-104918509D01*
X131835635Y-104705315D01*
X131852000Y-104539158D01*
X131852000Y-102928043D01*
X132130000Y-102928043D01*
X132130000Y-104539158D01*
X132146365Y-104705315D01*
X132211038Y-104918509D01*
X132316059Y-105114990D01*
X132457394Y-105287207D01*
X132629611Y-105428542D01*
X132826092Y-105533563D01*
X133039286Y-105598235D01*
X133261000Y-105620072D01*
X133482715Y-105598235D01*
X133695909Y-105533563D01*
X133892390Y-105428542D01*
X134064607Y-105287207D01*
X134205942Y-105114990D01*
X134310963Y-104918509D01*
X134375635Y-104705315D01*
X134392000Y-104539158D01*
X134392000Y-102928043D01*
X134670000Y-102928043D01*
X134670000Y-104539158D01*
X134686365Y-104705315D01*
X134751038Y-104918509D01*
X134856059Y-105114990D01*
X134997394Y-105287207D01*
X135169611Y-105428542D01*
X135366092Y-105533563D01*
X135579286Y-105598235D01*
X135801000Y-105620072D01*
X136022715Y-105598235D01*
X136235909Y-105533563D01*
X136432390Y-105428542D01*
X136604607Y-105287207D01*
X136745942Y-105114990D01*
X136850963Y-104918509D01*
X136915635Y-104705315D01*
X136932000Y-104539158D01*
X136932000Y-102928043D01*
X137210000Y-102928043D01*
X137210000Y-104539158D01*
X137226365Y-104705315D01*
X137291038Y-104918509D01*
X137396059Y-105114990D01*
X137537394Y-105287207D01*
X137709611Y-105428542D01*
X137906092Y-105533563D01*
X138119286Y-105598235D01*
X138341000Y-105620072D01*
X138562715Y-105598235D01*
X138775909Y-105533563D01*
X138972390Y-105428542D01*
X139144607Y-105287207D01*
X139285942Y-105114990D01*
X139390963Y-104918509D01*
X139455635Y-104705315D01*
X139472000Y-104539158D01*
X139472000Y-102928042D01*
X139455635Y-102761885D01*
X139390963Y-102548691D01*
X139285942Y-102352210D01*
X139144607Y-102179993D01*
X138972390Y-102038658D01*
X138775908Y-101933637D01*
X138562714Y-101868965D01*
X138341000Y-101847128D01*
X138119285Y-101868965D01*
X137906091Y-101933637D01*
X137709610Y-102038658D01*
X137537393Y-102179993D01*
X137396058Y-102352210D01*
X137291037Y-102548692D01*
X137226365Y-102761886D01*
X137210000Y-102928043D01*
X136932000Y-102928043D01*
X136932000Y-102928042D01*
X136915635Y-102761885D01*
X136850963Y-102548691D01*
X136745942Y-102352210D01*
X136604607Y-102179993D01*
X136432390Y-102038658D01*
X136235908Y-101933637D01*
X136022714Y-101868965D01*
X135801000Y-101847128D01*
X135579285Y-101868965D01*
X135366091Y-101933637D01*
X135169610Y-102038658D01*
X134997393Y-102179993D01*
X134856058Y-102352210D01*
X134751037Y-102548692D01*
X134686365Y-102761886D01*
X134670000Y-102928043D01*
X134392000Y-102928043D01*
X134392000Y-102928042D01*
X134375635Y-102761885D01*
X134310963Y-102548691D01*
X134205942Y-102352210D01*
X134064607Y-102179993D01*
X133892390Y-102038658D01*
X133695908Y-101933637D01*
X133482714Y-101868965D01*
X133261000Y-101847128D01*
X133039285Y-101868965D01*
X132826091Y-101933637D01*
X132629610Y-102038658D01*
X132457393Y-102179993D01*
X132316058Y-102352210D01*
X132211037Y-102548692D01*
X132146365Y-102761886D01*
X132130000Y-102928043D01*
X131852000Y-102928043D01*
X131852000Y-102928042D01*
X131835635Y-102761885D01*
X131770963Y-102548691D01*
X131665942Y-102352210D01*
X131524607Y-102179993D01*
X131352390Y-102038658D01*
X131155908Y-101933637D01*
X130942714Y-101868965D01*
X130721000Y-101847128D01*
X130499285Y-101868965D01*
X130286091Y-101933637D01*
X130089610Y-102038658D01*
X129917393Y-102179993D01*
X129874581Y-102232160D01*
X126149000Y-98506580D01*
X126149000Y-94163442D01*
X128955000Y-94163442D01*
X128955000Y-95774557D01*
X128971365Y-95940714D01*
X129036037Y-96153908D01*
X129141058Y-96350390D01*
X129282393Y-96522607D01*
X129454610Y-96663942D01*
X129651091Y-96768963D01*
X129864285Y-96833635D01*
X130086000Y-96855472D01*
X130307714Y-96833635D01*
X130520908Y-96768963D01*
X130717390Y-96663942D01*
X130889607Y-96522607D01*
X131030942Y-96350390D01*
X131135963Y-96153909D01*
X131200635Y-95940715D01*
X131217000Y-95774558D01*
X131217000Y-94163442D01*
X131495000Y-94163442D01*
X131495000Y-95774557D01*
X131511365Y-95940714D01*
X131576037Y-96153908D01*
X131681058Y-96350390D01*
X131822393Y-96522607D01*
X131994610Y-96663942D01*
X132191091Y-96768963D01*
X132404285Y-96833635D01*
X132626000Y-96855472D01*
X132847714Y-96833635D01*
X133060908Y-96768963D01*
X133257390Y-96663942D01*
X133429607Y-96522607D01*
X133570942Y-96350390D01*
X133675963Y-96153909D01*
X133740635Y-95940715D01*
X133757000Y-95774558D01*
X133757000Y-94163442D01*
X134035000Y-94163442D01*
X134035000Y-95774557D01*
X134051365Y-95940714D01*
X134116037Y-96153908D01*
X134221058Y-96350390D01*
X134362393Y-96522607D01*
X134534610Y-96663942D01*
X134731091Y-96768963D01*
X134944285Y-96833635D01*
X135166000Y-96855472D01*
X135387714Y-96833635D01*
X135600908Y-96768963D01*
X135797390Y-96663942D01*
X135969607Y-96522607D01*
X136110942Y-96350390D01*
X136215963Y-96153909D01*
X136280635Y-95940715D01*
X136297000Y-95774558D01*
X136297000Y-94163442D01*
X136280635Y-93997285D01*
X136215963Y-93784091D01*
X136110942Y-93587610D01*
X135969607Y-93415393D01*
X135797390Y-93274058D01*
X135600909Y-93169037D01*
X135387715Y-93104365D01*
X135166000Y-93082528D01*
X134944286Y-93104365D01*
X134731092Y-93169037D01*
X134534611Y-93274058D01*
X134362394Y-93415393D01*
X134221059Y-93587610D01*
X134116038Y-93784091D01*
X134051365Y-93997285D01*
X134035000Y-94163442D01*
X133757000Y-94163442D01*
X133740635Y-93997285D01*
X133675963Y-93784091D01*
X133570942Y-93587610D01*
X133429607Y-93415393D01*
X133257390Y-93274058D01*
X133060909Y-93169037D01*
X132847715Y-93104365D01*
X132626000Y-93082528D01*
X132404286Y-93104365D01*
X132191092Y-93169037D01*
X131994611Y-93274058D01*
X131822394Y-93415393D01*
X131681059Y-93587610D01*
X131576038Y-93784091D01*
X131511365Y-93997285D01*
X131495000Y-94163442D01*
X131217000Y-94163442D01*
X131200635Y-93997285D01*
X131135963Y-93784091D01*
X131030942Y-93587610D01*
X130889607Y-93415393D01*
X130717390Y-93274058D01*
X130520909Y-93169037D01*
X130307715Y-93104365D01*
X130086000Y-93082528D01*
X129864286Y-93104365D01*
X129651092Y-93169037D01*
X129454611Y-93274058D01*
X129282394Y-93415393D01*
X129141059Y-93587610D01*
X129036038Y-93784091D01*
X128971365Y-93997285D01*
X128955000Y-94163442D01*
X126149000Y-94163442D01*
X126149000Y-90254495D01*
X126272390Y-90188542D01*
X126444607Y-90047207D01*
X126585942Y-89874990D01*
X126690963Y-89678509D01*
X126755635Y-89465315D01*
X126772000Y-89299158D01*
X126772000Y-87688043D01*
X127050000Y-87688043D01*
X127050000Y-89299158D01*
X127066365Y-89465315D01*
X127131038Y-89678509D01*
X127236059Y-89874990D01*
X127377394Y-90047207D01*
X127549611Y-90188542D01*
X127746092Y-90293563D01*
X127959286Y-90358235D01*
X128181000Y-90380072D01*
X128402715Y-90358235D01*
X128615909Y-90293563D01*
X128812390Y-90188542D01*
X128984607Y-90047207D01*
X129125942Y-89874990D01*
X129230963Y-89678509D01*
X129295635Y-89465315D01*
X129312000Y-89299158D01*
X129312000Y-87688043D01*
X129590000Y-87688043D01*
X129590000Y-89299158D01*
X129606365Y-89465315D01*
X129671038Y-89678509D01*
X129776059Y-89874990D01*
X129917394Y-90047207D01*
X130089611Y-90188542D01*
X130286092Y-90293563D01*
X130499286Y-90358235D01*
X130721000Y-90380072D01*
X130942715Y-90358235D01*
X131155909Y-90293563D01*
X131352390Y-90188542D01*
X131524607Y-90047207D01*
X131665942Y-89874990D01*
X131770963Y-89678509D01*
X131835635Y-89465315D01*
X131852000Y-89299158D01*
X131852000Y-87688043D01*
X132130000Y-87688043D01*
X132130000Y-89299158D01*
X132146365Y-89465315D01*
X132211038Y-89678509D01*
X132316059Y-89874990D01*
X132457394Y-90047207D01*
X132629611Y-90188542D01*
X132826092Y-90293563D01*
X133039286Y-90358235D01*
X133261000Y-90380072D01*
X133482715Y-90358235D01*
X133695909Y-90293563D01*
X133892390Y-90188542D01*
X134064607Y-90047207D01*
X134205942Y-89874990D01*
X134310963Y-89678509D01*
X134375635Y-89465315D01*
X134392000Y-89299158D01*
X134392000Y-87688042D01*
X134375635Y-87521885D01*
X134335021Y-87387999D01*
X135618449Y-86104571D01*
X136721609Y-86104571D01*
X136156601Y-86669579D01*
X136022714Y-86628965D01*
X135801000Y-86607128D01*
X135579285Y-86628965D01*
X135366091Y-86693637D01*
X135169610Y-86798658D01*
X134997393Y-86939993D01*
X134856058Y-87112210D01*
X134751037Y-87308692D01*
X134686365Y-87521886D01*
X134670000Y-87688043D01*
X134670000Y-89299158D01*
X134686365Y-89465315D01*
X134751038Y-89678509D01*
X134856059Y-89874990D01*
X134997394Y-90047207D01*
X135169611Y-90188542D01*
X135366092Y-90293563D01*
X135579286Y-90358235D01*
X135801000Y-90380072D01*
X136022715Y-90358235D01*
X136235909Y-90293563D01*
X136432390Y-90188542D01*
X136604607Y-90047207D01*
X136745942Y-89874990D01*
X136850963Y-89678509D01*
X136915635Y-89465315D01*
X136932000Y-89299158D01*
X136932000Y-87688042D01*
X136915635Y-87521885D01*
X136875021Y-87387999D01*
X137650439Y-86612581D01*
X138285635Y-86612581D01*
X138119285Y-86628965D01*
X137906091Y-86693637D01*
X137709610Y-86798658D01*
X137537393Y-86939993D01*
X137396058Y-87112210D01*
X137291037Y-87308692D01*
X137226365Y-87521886D01*
X137210000Y-87688043D01*
X137210000Y-89299158D01*
X137226365Y-89465315D01*
X137291038Y-89678509D01*
X137396059Y-89874990D01*
X137537394Y-90047207D01*
X137709611Y-90188542D01*
X137906092Y-90293563D01*
X138119286Y-90358235D01*
X138341000Y-90380072D01*
X138562715Y-90358235D01*
X138775909Y-90293563D01*
X138964011Y-90193021D01*
X138964011Y-92242568D01*
X138061601Y-93144979D01*
X137927715Y-93104365D01*
X137706000Y-93082528D01*
X137484286Y-93104365D01*
X137271092Y-93169037D01*
X137074611Y-93274058D01*
X136902394Y-93415393D01*
X136761059Y-93587610D01*
X136656038Y-93784091D01*
X136591365Y-93997285D01*
X136575000Y-94163442D01*
X136575000Y-95774557D01*
X136591365Y-95940714D01*
X136656037Y-96153908D01*
X136761058Y-96350390D01*
X136902393Y-96522607D01*
X137074610Y-96663942D01*
X137271091Y-96768963D01*
X137484285Y-96833635D01*
X137706000Y-96855472D01*
X137927714Y-96833635D01*
X138140908Y-96768963D01*
X138337390Y-96663942D01*
X138509607Y-96522607D01*
X138650942Y-96350390D01*
X138755963Y-96153909D01*
X138820635Y-95940715D01*
X138837000Y-95774558D01*
X138837000Y-94163443D01*
X139115000Y-94163443D01*
X139115000Y-95774558D01*
X139131365Y-95940715D01*
X139196038Y-96153909D01*
X139301059Y-96350390D01*
X139442394Y-96522607D01*
X139614611Y-96663942D01*
X139811092Y-96768963D01*
X140024286Y-96833635D01*
X140246000Y-96855472D01*
X140467715Y-96833635D01*
X140680909Y-96768963D01*
X140877390Y-96663942D01*
X141049607Y-96522607D01*
X141190942Y-96350390D01*
X141295963Y-96153909D01*
X141360635Y-95940715D01*
X141377000Y-95774558D01*
X141377000Y-94163442D01*
X141360635Y-93997285D01*
X141295963Y-93784091D01*
X141190942Y-93587610D01*
X141049607Y-93415393D01*
X140877390Y-93274058D01*
X140680908Y-93169037D01*
X140467714Y-93104365D01*
X140246000Y-93082528D01*
X140024285Y-93104365D01*
X139811091Y-93169037D01*
X139614610Y-93274058D01*
X139442393Y-93415393D01*
X139301058Y-93587610D01*
X139196037Y-93784092D01*
X139131365Y-93997286D01*
X139115000Y-94163443D01*
X138837000Y-94163443D01*
X138837000Y-94163442D01*
X138820635Y-93997285D01*
X138780021Y-93863399D01*
X139813581Y-92829840D01*
X139832958Y-92813938D01*
X139870214Y-92768541D01*
X139896439Y-92736586D01*
X139943610Y-92648335D01*
X139944949Y-92643921D01*
X139972659Y-92552575D01*
X139980010Y-92477937D01*
X139980010Y-92477935D01*
X139982467Y-92452991D01*
X139980010Y-92428047D01*
X139980010Y-89928544D01*
X140077394Y-90047207D01*
X140249611Y-90188542D01*
X140375001Y-90255564D01*
X140375001Y-91261444D01*
X140372553Y-91286300D01*
X140382322Y-91385492D01*
X140411255Y-91480874D01*
X140411256Y-91480875D01*
X140458242Y-91568779D01*
X140521474Y-91645827D01*
X140540781Y-91661672D01*
X142153817Y-93274709D01*
X141982394Y-93415393D01*
X141841059Y-93587610D01*
X141736038Y-93784091D01*
X141671365Y-93997285D01*
X141655000Y-94163442D01*
X141655000Y-95774557D01*
X141671365Y-95940714D01*
X141736037Y-96153908D01*
X141841058Y-96350390D01*
X141982393Y-96522607D01*
X142154610Y-96663942D01*
X142351091Y-96768963D01*
X142564285Y-96833635D01*
X142786000Y-96855472D01*
X143007714Y-96833635D01*
X143220908Y-96768963D01*
X143417390Y-96663942D01*
X143589607Y-96522607D01*
X143730942Y-96350390D01*
X143835963Y-96153909D01*
X143900635Y-95940715D01*
X143917000Y-95774558D01*
X143917000Y-94163442D01*
X144195000Y-94163442D01*
X144195000Y-95774557D01*
X144211365Y-95940714D01*
X144276037Y-96153908D01*
X144381058Y-96350390D01*
X144522393Y-96522607D01*
X144694610Y-96663942D01*
X144891091Y-96768963D01*
X145104285Y-96833635D01*
X145326000Y-96855472D01*
X145547714Y-96833635D01*
X145760908Y-96768963D01*
X145957390Y-96663942D01*
X146129607Y-96522607D01*
X146270942Y-96350390D01*
X146375963Y-96153909D01*
X146440635Y-95940715D01*
X146457000Y-95774558D01*
X146457000Y-94163442D01*
X146440635Y-93997285D01*
X146375963Y-93784091D01*
X146270942Y-93587610D01*
X146129607Y-93415393D01*
X145957390Y-93274058D01*
X145760909Y-93169037D01*
X145547715Y-93104365D01*
X145326000Y-93082528D01*
X145104286Y-93104365D01*
X144891092Y-93169037D01*
X144694611Y-93274058D01*
X144522394Y-93415393D01*
X144381059Y-93587610D01*
X144276038Y-93784091D01*
X144211365Y-93997285D01*
X144195000Y-94163442D01*
X143917000Y-94163442D01*
X143900635Y-93997285D01*
X143835963Y-93784091D01*
X143730942Y-93587610D01*
X143589607Y-93415393D01*
X143417390Y-93274058D01*
X143292853Y-93207492D01*
X143294448Y-93191300D01*
X143284678Y-93092107D01*
X143255745Y-92996725D01*
X143208759Y-92908821D01*
X143145527Y-92831773D01*
X143126220Y-92815928D01*
X141387000Y-91076709D01*
X141387000Y-90255564D01*
X141512390Y-90188542D01*
X141684607Y-90047207D01*
X141825942Y-89874990D01*
X141930963Y-89678509D01*
X141995635Y-89465315D01*
X142012000Y-89299158D01*
X142012000Y-87688042D01*
X141995635Y-87521885D01*
X141930963Y-87308691D01*
X141830421Y-87120590D01*
X142471579Y-87120590D01*
X142371037Y-87308692D01*
X142306365Y-87521886D01*
X142290000Y-87688043D01*
X142290000Y-89299158D01*
X142306365Y-89465315D01*
X142371038Y-89678509D01*
X142476059Y-89874990D01*
X142617394Y-90047207D01*
X142789611Y-90188542D01*
X142986092Y-90293563D01*
X143199286Y-90358235D01*
X143421000Y-90380072D01*
X143642715Y-90358235D01*
X143855909Y-90293563D01*
X144052390Y-90188542D01*
X144224607Y-90047207D01*
X144365942Y-89874990D01*
X144470963Y-89678509D01*
X144535635Y-89465315D01*
X144552000Y-89299158D01*
X144552000Y-87688042D01*
X144535635Y-87521885D01*
X144470963Y-87308691D01*
X144370421Y-87120590D01*
X144619570Y-87120590D01*
X144886979Y-87387999D01*
X144846365Y-87521886D01*
X144830000Y-87688043D01*
X144830000Y-89299158D01*
X144846365Y-89465315D01*
X144911038Y-89678509D01*
X145016059Y-89874990D01*
X145157394Y-90047207D01*
X145329611Y-90188542D01*
X145526092Y-90293563D01*
X145739286Y-90358235D01*
X145961000Y-90380072D01*
X146182715Y-90358235D01*
X146395909Y-90293563D01*
X146592390Y-90188542D01*
X146764607Y-90047207D01*
X146861990Y-89928545D01*
X146861991Y-92694036D01*
X146859533Y-92718990D01*
X146869342Y-92818574D01*
X146898390Y-92914333D01*
X146945561Y-93002585D01*
X146972488Y-93035395D01*
X147009043Y-93079938D01*
X147028420Y-93095840D01*
X147219247Y-93286667D01*
X147062394Y-93415393D01*
X146921059Y-93587610D01*
X146816038Y-93784091D01*
X146751365Y-93997285D01*
X146735000Y-94163442D01*
X146735000Y-95774557D01*
X146751365Y-95940714D01*
X146816037Y-96153908D01*
X146921058Y-96350390D01*
X147062393Y-96522607D01*
X147234610Y-96663942D01*
X147357215Y-96729475D01*
X141784716Y-102301975D01*
X141684607Y-102179993D01*
X141512390Y-102038658D01*
X141315908Y-101933637D01*
X141102714Y-101868965D01*
X140881000Y-101847128D01*
X140659285Y-101868965D01*
X140446091Y-101933637D01*
X140249610Y-102038658D01*
X140077393Y-102179993D01*
X139936058Y-102352210D01*
X139831037Y-102548692D01*
X139766365Y-102761886D01*
X139750000Y-102928043D01*
X139750000Y-104539158D01*
X139766365Y-104705315D01*
X139831038Y-104918509D01*
X139936059Y-105114990D01*
X140077394Y-105287207D01*
X140249611Y-105428542D01*
X140446092Y-105533563D01*
X140659286Y-105598235D01*
X140881000Y-105620072D01*
X141102715Y-105598235D01*
X141315909Y-105533563D01*
X141504011Y-105433021D01*
X141504011Y-105442568D01*
X139249580Y-107697000D01*
X138734943Y-107697000D01*
X138709999Y-107694543D01*
X138685055Y-107697000D01*
X138685053Y-107697000D01*
X138610415Y-107704351D01*
X138514657Y-107733399D01*
X138514655Y-107733400D01*
X138426404Y-107780571D01*
X138381193Y-107817675D01*
X138349052Y-107844052D01*
X138333150Y-107863429D01*
X138061600Y-108134979D01*
X137927714Y-108094365D01*
X137706000Y-108072528D01*
X137484285Y-108094365D01*
X137271091Y-108159037D01*
X137074610Y-108264058D01*
X136902393Y-108405393D01*
X136761058Y-108577610D01*
X136656037Y-108774092D01*
X136591365Y-108987286D01*
X136575000Y-109153443D01*
X136575000Y-110764558D01*
X136591365Y-110930715D01*
X136656038Y-111143909D01*
X136761059Y-111340390D01*
X136902394Y-111512607D01*
X137074611Y-111653942D01*
X137271092Y-111758963D01*
X137484286Y-111823635D01*
X137706000Y-111845472D01*
X137927715Y-111823635D01*
X138140909Y-111758963D01*
X138337390Y-111653942D01*
X138509607Y-111512607D01*
X138650942Y-111340390D01*
X138755963Y-111143909D01*
X138820635Y-110930715D01*
X138837000Y-110764558D01*
X138837000Y-109153442D01*
X138820635Y-108987285D01*
X138780021Y-108853400D01*
X138920421Y-108713000D01*
X139228691Y-108713000D01*
X139196037Y-108774092D01*
X139131365Y-108987286D01*
X139115000Y-109153443D01*
X139115000Y-110764558D01*
X139131365Y-110930715D01*
X139196038Y-111143909D01*
X139301059Y-111340390D01*
X139442394Y-111512607D01*
X139614611Y-111653942D01*
X139811092Y-111758963D01*
X140024286Y-111823635D01*
X140246000Y-111845472D01*
X140467715Y-111823635D01*
X140680909Y-111758963D01*
X140877390Y-111653942D01*
X141049607Y-111512607D01*
X141190942Y-111340390D01*
X141295963Y-111143909D01*
X141360635Y-110930715D01*
X141377000Y-110764558D01*
X141377000Y-109153443D01*
X141655000Y-109153443D01*
X141655000Y-110764558D01*
X141671365Y-110930715D01*
X141736038Y-111143909D01*
X141841059Y-111340390D01*
X141982394Y-111512607D01*
X142154611Y-111653942D01*
X142351092Y-111758963D01*
X142564286Y-111823635D01*
X142786000Y-111845472D01*
X143007715Y-111823635D01*
X143220909Y-111758963D01*
X143417390Y-111653942D01*
X143589607Y-111512607D01*
X143730942Y-111340390D01*
X143835963Y-111143909D01*
X143900635Y-110930715D01*
X143917000Y-110764558D01*
X143917000Y-109153443D01*
X144195000Y-109153443D01*
X144195000Y-110764558D01*
X144211365Y-110930715D01*
X144276038Y-111143909D01*
X144381059Y-111340390D01*
X144522394Y-111512607D01*
X144694611Y-111653942D01*
X144891092Y-111758963D01*
X145104286Y-111823635D01*
X145326000Y-111845472D01*
X145547715Y-111823635D01*
X145760909Y-111758963D01*
X145957390Y-111653942D01*
X146129607Y-111512607D01*
X146270942Y-111340390D01*
X146375963Y-111143909D01*
X146440635Y-110930715D01*
X146457000Y-110764558D01*
X146457000Y-109153443D01*
X146735000Y-109153443D01*
X146735000Y-110764558D01*
X146751365Y-110930715D01*
X146816038Y-111143909D01*
X146921059Y-111340390D01*
X147062394Y-111512607D01*
X147234611Y-111653942D01*
X147431092Y-111758963D01*
X147644286Y-111823635D01*
X147866000Y-111845472D01*
X148087715Y-111823635D01*
X148300909Y-111758963D01*
X148497390Y-111653942D01*
X148669607Y-111512607D01*
X148810942Y-111340390D01*
X148915963Y-111143909D01*
X148980635Y-110930715D01*
X148997000Y-110764558D01*
X148997000Y-109153443D01*
X149275000Y-109153443D01*
X149275000Y-110764558D01*
X149291365Y-110930715D01*
X149356038Y-111143909D01*
X149461059Y-111340390D01*
X149602394Y-111512607D01*
X149774611Y-111653942D01*
X149971092Y-111758963D01*
X150184286Y-111823635D01*
X150406000Y-111845472D01*
X150627715Y-111823635D01*
X150840909Y-111758963D01*
X151037390Y-111653942D01*
X151209607Y-111512607D01*
X151350942Y-111340390D01*
X151455963Y-111143909D01*
X151520635Y-110930715D01*
X151537000Y-110764558D01*
X151537000Y-109153442D01*
X151520635Y-108987285D01*
X151455963Y-108774091D01*
X151350942Y-108577610D01*
X151209607Y-108405393D01*
X151037390Y-108264058D01*
X150840908Y-108159037D01*
X150627714Y-108094365D01*
X150406000Y-108072528D01*
X150184285Y-108094365D01*
X149971091Y-108159037D01*
X149774610Y-108264058D01*
X149602393Y-108405393D01*
X149461058Y-108577610D01*
X149356037Y-108774092D01*
X149291365Y-108987286D01*
X149275000Y-109153443D01*
X148997000Y-109153443D01*
X148997000Y-109153442D01*
X148980635Y-108987285D01*
X148915963Y-108774091D01*
X148810942Y-108577610D01*
X148669607Y-108405393D01*
X148497390Y-108264058D01*
X148300908Y-108159037D01*
X148087714Y-108094365D01*
X147866000Y-108072528D01*
X147644285Y-108094365D01*
X147431091Y-108159037D01*
X147234610Y-108264058D01*
X147062393Y-108405393D01*
X146921058Y-108577610D01*
X146816037Y-108774092D01*
X146751365Y-108987286D01*
X146735000Y-109153443D01*
X146457000Y-109153443D01*
X146457000Y-109153442D01*
X146440635Y-108987285D01*
X146375963Y-108774091D01*
X146270942Y-108577610D01*
X146129607Y-108405393D01*
X145957390Y-108264058D01*
X145760908Y-108159037D01*
X145547714Y-108094365D01*
X145326000Y-108072528D01*
X145104285Y-108094365D01*
X144891091Y-108159037D01*
X144694610Y-108264058D01*
X144522393Y-108405393D01*
X144381058Y-108577610D01*
X144276037Y-108774092D01*
X144211365Y-108987286D01*
X144195000Y-109153443D01*
X143917000Y-109153443D01*
X143917000Y-109153442D01*
X143900635Y-108987285D01*
X143835963Y-108774091D01*
X143730942Y-108577610D01*
X143589607Y-108405393D01*
X143417390Y-108264058D01*
X143220908Y-108159037D01*
X143007714Y-108094365D01*
X142786000Y-108072528D01*
X142564285Y-108094365D01*
X142351091Y-108159037D01*
X142154610Y-108264058D01*
X141982393Y-108405393D01*
X141841058Y-108577610D01*
X141736037Y-108774092D01*
X141671365Y-108987286D01*
X141655000Y-109153443D01*
X141377000Y-109153443D01*
X141377000Y-109153442D01*
X141360635Y-108987285D01*
X141358075Y-108978845D01*
X145108856Y-105228064D01*
X145157394Y-105287207D01*
X145329611Y-105428542D01*
X145526092Y-105533563D01*
X145739286Y-105598235D01*
X145961000Y-105620072D01*
X146182715Y-105598235D01*
X146395909Y-105533563D01*
X146592390Y-105428542D01*
X146764607Y-105287207D01*
X146905942Y-105114990D01*
X147010963Y-104918509D01*
X147075635Y-104705315D01*
X147092000Y-104539158D01*
X147092000Y-102928043D01*
X147370000Y-102928043D01*
X147370000Y-104539158D01*
X147386365Y-104705315D01*
X147451038Y-104918509D01*
X147556059Y-105114990D01*
X147697394Y-105287207D01*
X147869611Y-105428542D01*
X148066092Y-105533563D01*
X148279286Y-105598235D01*
X148501000Y-105620072D01*
X148722715Y-105598235D01*
X148935909Y-105533563D01*
X149132390Y-105428542D01*
X149304607Y-105287207D01*
X149445942Y-105114990D01*
X149550963Y-104918509D01*
X149615635Y-104705315D01*
X149632000Y-104539158D01*
X149632000Y-102928043D01*
X149910000Y-102928043D01*
X149910000Y-104539158D01*
X149926365Y-104705315D01*
X149991038Y-104918509D01*
X150096059Y-105114990D01*
X150237394Y-105287207D01*
X150409611Y-105428542D01*
X150606092Y-105533563D01*
X150819286Y-105598235D01*
X151041000Y-105620072D01*
X151262715Y-105598235D01*
X151475909Y-105533563D01*
X151672390Y-105428542D01*
X151844607Y-105287207D01*
X151985942Y-105114990D01*
X152090963Y-104918509D01*
X152155635Y-104705315D01*
X152172000Y-104539158D01*
X152172000Y-103860600D01*
X152196000Y-103860600D01*
X152196000Y-104610600D01*
X152247389Y-104878360D01*
X152350028Y-105130949D01*
X152499972Y-105358661D01*
X152691460Y-105552745D01*
X152917132Y-105705742D01*
X153168316Y-105811773D01*
X153239815Y-105825918D01*
X153454000Y-105703256D01*
X153454000Y-103860600D01*
X153708000Y-103860600D01*
X153708000Y-105703256D01*
X153922185Y-105825918D01*
X153993684Y-105811773D01*
X154244868Y-105705742D01*
X154470540Y-105552745D01*
X154662028Y-105358661D01*
X154811972Y-105130949D01*
X154914611Y-104878360D01*
X154966000Y-104610600D01*
X154966000Y-103860600D01*
X153708000Y-103860600D01*
X153454000Y-103860600D01*
X152196000Y-103860600D01*
X152172000Y-103860600D01*
X152172000Y-102928042D01*
X152164964Y-102856600D01*
X152196000Y-102856600D01*
X152196000Y-103606600D01*
X153454000Y-103606600D01*
X153454000Y-101763944D01*
X153708000Y-101763944D01*
X153708000Y-103606600D01*
X154966000Y-103606600D01*
X154966000Y-102856600D01*
X154914611Y-102588840D01*
X154811972Y-102336251D01*
X154662028Y-102108539D01*
X154470540Y-101914455D01*
X154244868Y-101761458D01*
X153993684Y-101655427D01*
X153922185Y-101641282D01*
X153708000Y-101763944D01*
X153454000Y-101763944D01*
X153239815Y-101641282D01*
X153168316Y-101655427D01*
X152917132Y-101761458D01*
X152691460Y-101914455D01*
X152499972Y-102108539D01*
X152350028Y-102336251D01*
X152247389Y-102588840D01*
X152196000Y-102856600D01*
X152164964Y-102856600D01*
X152155635Y-102761885D01*
X152090963Y-102548691D01*
X151985942Y-102352210D01*
X151844607Y-102179993D01*
X151672390Y-102038658D01*
X151475908Y-101933637D01*
X151262714Y-101868965D01*
X151041000Y-101847128D01*
X150819285Y-101868965D01*
X150606091Y-101933637D01*
X150409610Y-102038658D01*
X150237393Y-102179993D01*
X150096058Y-102352210D01*
X149991037Y-102548692D01*
X149926365Y-102761886D01*
X149910000Y-102928043D01*
X149632000Y-102928043D01*
X149632000Y-102928042D01*
X149615635Y-102761885D01*
X149550963Y-102548691D01*
X149445942Y-102352210D01*
X149304607Y-102179993D01*
X149132390Y-102038658D01*
X148935908Y-101933637D01*
X148722714Y-101868965D01*
X148501000Y-101847128D01*
X148279285Y-101868965D01*
X148066091Y-101933637D01*
X147869610Y-102038658D01*
X147697393Y-102179993D01*
X147556058Y-102352210D01*
X147451037Y-102548692D01*
X147386365Y-102761886D01*
X147370000Y-102928043D01*
X147092000Y-102928043D01*
X147092000Y-102928042D01*
X147075635Y-102761885D01*
X147010963Y-102548691D01*
X146905942Y-102352210D01*
X146764607Y-102179993D01*
X146592390Y-102038658D01*
X146395908Y-101933637D01*
X146182714Y-101868965D01*
X145961000Y-101847128D01*
X145739285Y-101868965D01*
X145526091Y-101933637D01*
X145337990Y-102034179D01*
X145337990Y-100903975D01*
X148375945Y-97866020D01*
X151481286Y-97866020D01*
X151506230Y-97868477D01*
X151531174Y-97866020D01*
X151531177Y-97866020D01*
X151605815Y-97858669D01*
X151701573Y-97829621D01*
X151789825Y-97782449D01*
X151867178Y-97718968D01*
X151883085Y-97699585D01*
X152002138Y-97580532D01*
X152078916Y-97580532D01*
X152218772Y-97552713D01*
X152350513Y-97498144D01*
X152469078Y-97418922D01*
X152569908Y-97318092D01*
X152649130Y-97199527D01*
X152703699Y-97067786D01*
X152731518Y-96927930D01*
X152731518Y-96834347D01*
X152946000Y-96855472D01*
X153167714Y-96833635D01*
X153380908Y-96768963D01*
X153577390Y-96663942D01*
X153749607Y-96522607D01*
X153890942Y-96350390D01*
X153995963Y-96153909D01*
X154060635Y-95940715D01*
X154077000Y-95774558D01*
X154077000Y-95096000D01*
X154101000Y-95096000D01*
X154101000Y-95846000D01*
X154152389Y-96113760D01*
X154255028Y-96366349D01*
X154404972Y-96594061D01*
X154596460Y-96788145D01*
X154822132Y-96941142D01*
X155073316Y-97047173D01*
X155144815Y-97061318D01*
X155359000Y-96938656D01*
X155359000Y-95096000D01*
X154101000Y-95096000D01*
X154077000Y-95096000D01*
X154077000Y-94163442D01*
X154069964Y-94092000D01*
X154101000Y-94092000D01*
X154101000Y-94842000D01*
X155359000Y-94842000D01*
X155359000Y-92999344D01*
X155144815Y-92876682D01*
X155073316Y-92890827D01*
X154822132Y-92996858D01*
X154596460Y-93149855D01*
X154404972Y-93343939D01*
X154255028Y-93571651D01*
X154152389Y-93824240D01*
X154101000Y-94092000D01*
X154069964Y-94092000D01*
X154060635Y-93997285D01*
X153995963Y-93784091D01*
X153890942Y-93587610D01*
X153749607Y-93415393D01*
X153577390Y-93274058D01*
X153380909Y-93169037D01*
X153167715Y-93104365D01*
X152946000Y-93082528D01*
X152724286Y-93104365D01*
X152680010Y-93117796D01*
X152680010Y-90301140D01*
X152691460Y-90312745D01*
X152917132Y-90465742D01*
X153168316Y-90571773D01*
X153239815Y-90585918D01*
X153454000Y-90463256D01*
X153454000Y-88620600D01*
X153708000Y-88620600D01*
X153708000Y-90463256D01*
X153922185Y-90585918D01*
X153993684Y-90571773D01*
X154244868Y-90465742D01*
X154470540Y-90312745D01*
X154662028Y-90118661D01*
X154811972Y-89890949D01*
X154914611Y-89638360D01*
X154966000Y-89370600D01*
X154966000Y-88620600D01*
X153708000Y-88620600D01*
X153454000Y-88620600D01*
X153434000Y-88620600D01*
X153434000Y-88366600D01*
X153454000Y-88366600D01*
X153454000Y-88346600D01*
X153708000Y-88346600D01*
X153708000Y-88366600D01*
X154966000Y-88366600D01*
X154966000Y-87616600D01*
X154914611Y-87348840D01*
X154821862Y-87120590D01*
X155171579Y-87120590D01*
X155071037Y-87308692D01*
X155006365Y-87521886D01*
X154990000Y-87688043D01*
X154990000Y-89299158D01*
X155006365Y-89465315D01*
X155071038Y-89678509D01*
X155176059Y-89874990D01*
X155317394Y-90047207D01*
X155489611Y-90188542D01*
X155611123Y-90253492D01*
X155620352Y-90347184D01*
X155649400Y-90442943D01*
X155696571Y-90531195D01*
X155729873Y-90571773D01*
X155760053Y-90608548D01*
X155779430Y-90624450D01*
X156109010Y-90954031D01*
X156109010Y-92979611D01*
X155898684Y-92890827D01*
X155827185Y-92876682D01*
X155613000Y-92999344D01*
X155613000Y-94842000D01*
X155633000Y-94842000D01*
X155633000Y-95096000D01*
X155613000Y-95096000D01*
X155613000Y-96938656D01*
X155827185Y-97061318D01*
X155898684Y-97047173D01*
X156109011Y-96958389D01*
X156109011Y-101551699D01*
X156106553Y-101576653D01*
X156114312Y-101655427D01*
X156116362Y-101676238D01*
X156134270Y-101735273D01*
X156145410Y-101771996D01*
X156189156Y-101853841D01*
X156121000Y-101847128D01*
X155899285Y-101868965D01*
X155686091Y-101933637D01*
X155489610Y-102038658D01*
X155317393Y-102179993D01*
X155176058Y-102352210D01*
X155071037Y-102548692D01*
X155006365Y-102761886D01*
X154990000Y-102928043D01*
X154990000Y-104539158D01*
X155006365Y-104705315D01*
X155071038Y-104918509D01*
X155176059Y-105114990D01*
X155317394Y-105287207D01*
X155489611Y-105428542D01*
X155686092Y-105533563D01*
X155899286Y-105598235D01*
X156121000Y-105620072D01*
X156342715Y-105598235D01*
X156555909Y-105533563D01*
X156752390Y-105428542D01*
X156924607Y-105287207D01*
X157021991Y-105168545D01*
X157021991Y-106399752D01*
X156933895Y-106340889D01*
X156802154Y-106286320D01*
X156662298Y-106258501D01*
X156519702Y-106258501D01*
X156379846Y-106286320D01*
X156248105Y-106340889D01*
X156129540Y-106420111D01*
X156075250Y-106474401D01*
X155197543Y-106474401D01*
X155172599Y-106471944D01*
X155147655Y-106474401D01*
X155147652Y-106474401D01*
X155073014Y-106481752D01*
X154977256Y-106510800D01*
X154889004Y-106557972D01*
X154811651Y-106621453D01*
X154795744Y-106640836D01*
X153301601Y-108134979D01*
X153167714Y-108094365D01*
X152946000Y-108072528D01*
X152724285Y-108094365D01*
X152511091Y-108159037D01*
X152314610Y-108264058D01*
X152142393Y-108405393D01*
X152001058Y-108577610D01*
X151896037Y-108774092D01*
X151831365Y-108987286D01*
X151815000Y-109153443D01*
X151815000Y-110764558D01*
X151831365Y-110930715D01*
X151896038Y-111143909D01*
X152001059Y-111340390D01*
X152142394Y-111512607D01*
X152314611Y-111653942D01*
X152511092Y-111758963D01*
X152724286Y-111823635D01*
X152946000Y-111845472D01*
X153167715Y-111823635D01*
X153380909Y-111758963D01*
X153577390Y-111653942D01*
X153749607Y-111512607D01*
X153890942Y-111340390D01*
X153995963Y-111143909D01*
X154060635Y-110930715D01*
X154077000Y-110764558D01*
X154077000Y-110086000D01*
X154101000Y-110086000D01*
X154101000Y-110836000D01*
X154152389Y-111103760D01*
X154255028Y-111356349D01*
X154404972Y-111584061D01*
X154596460Y-111778145D01*
X154822132Y-111931142D01*
X155073316Y-112037173D01*
X155144815Y-112051318D01*
X155359000Y-111928656D01*
X155359000Y-110086000D01*
X155613000Y-110086000D01*
X155613000Y-111928656D01*
X155827185Y-112051318D01*
X155898684Y-112037173D01*
X156149868Y-111931142D01*
X156375540Y-111778145D01*
X156567028Y-111584061D01*
X156716972Y-111356349D01*
X156819611Y-111103760D01*
X156871000Y-110836000D01*
X156871000Y-110086000D01*
X155613000Y-110086000D01*
X155359000Y-110086000D01*
X154101000Y-110086000D01*
X154077000Y-110086000D01*
X154077000Y-109153442D01*
X154060635Y-108987285D01*
X154020021Y-108853399D01*
X154216189Y-108657231D01*
X154152389Y-108814240D01*
X154101000Y-109082000D01*
X154101000Y-109832000D01*
X155359000Y-109832000D01*
X155359000Y-107989344D01*
X155613000Y-107989344D01*
X155613000Y-109832000D01*
X156871000Y-109832000D01*
X156871000Y-109082000D01*
X156819611Y-108814240D01*
X156716972Y-108561651D01*
X156567028Y-108333939D01*
X156375540Y-108139855D01*
X156149868Y-107986858D01*
X155898684Y-107880827D01*
X155827185Y-107866682D01*
X155613000Y-107989344D01*
X155359000Y-107989344D01*
X155144815Y-107866682D01*
X155073316Y-107880827D01*
X154933627Y-107939793D01*
X155383019Y-107490401D01*
X156075250Y-107490401D01*
X156129540Y-107544691D01*
X156248105Y-107623913D01*
X156379846Y-107678482D01*
X156519702Y-107706301D01*
X156662298Y-107706301D01*
X156802154Y-107678482D01*
X156933895Y-107623913D01*
X157021991Y-107565050D01*
X157021991Y-107684036D01*
X157019533Y-107708990D01*
X157026867Y-107783442D01*
X157029342Y-107808575D01*
X157040104Y-107844052D01*
X157058390Y-107904333D01*
X157105561Y-107992585D01*
X157153140Y-108050560D01*
X157169043Y-108069938D01*
X157188420Y-108085840D01*
X157379246Y-108276667D01*
X157222393Y-108405393D01*
X157081058Y-108577610D01*
X156976037Y-108774092D01*
X156911365Y-108987286D01*
X156895000Y-109153443D01*
X156895000Y-110764558D01*
X156911365Y-110930715D01*
X156976038Y-111143909D01*
X157081059Y-111340390D01*
X157222394Y-111512607D01*
X157394611Y-111653942D01*
X157591092Y-111758963D01*
X157804286Y-111823635D01*
X158026000Y-111845472D01*
X158247715Y-111823635D01*
X158460909Y-111758963D01*
X158657390Y-111653942D01*
X158829607Y-111512607D01*
X158958245Y-111355861D01*
X158963390Y-111372822D01*
X159010561Y-111461074D01*
X159041226Y-111498439D01*
X159074043Y-111538427D01*
X159093420Y-111554329D01*
X159720670Y-112181580D01*
X159736573Y-112200958D01*
X159755950Y-112216860D01*
X159813925Y-112264439D01*
X159902176Y-112311610D01*
X159902178Y-112311611D01*
X159997936Y-112340659D01*
X160072574Y-112348010D01*
X160072576Y-112348010D01*
X160097520Y-112350467D01*
X160122464Y-112348010D01*
X174650046Y-112348010D01*
X174674990Y-112350467D01*
X174699934Y-112348010D01*
X174699937Y-112348010D01*
X174774575Y-112340659D01*
X174870333Y-112311611D01*
X174958585Y-112264439D01*
X175035938Y-112200958D01*
X175051845Y-112181575D01*
X175450399Y-111783021D01*
X175584286Y-111823635D01*
X175806000Y-111845472D01*
X176027715Y-111823635D01*
X176240909Y-111758963D01*
X176437390Y-111653942D01*
X176609607Y-111512607D01*
X176750942Y-111340390D01*
X176855963Y-111143909D01*
X176920635Y-110930715D01*
X176937000Y-110764558D01*
X176937000Y-109153443D01*
X177215000Y-109153443D01*
X177215000Y-110764558D01*
X177231365Y-110930715D01*
X177296038Y-111143909D01*
X177401059Y-111340390D01*
X177542394Y-111512607D01*
X177714611Y-111653942D01*
X177911092Y-111758963D01*
X178124286Y-111823635D01*
X178346000Y-111845472D01*
X178567715Y-111823635D01*
X178780909Y-111758963D01*
X178977390Y-111653942D01*
X179149607Y-111512607D01*
X179290942Y-111340390D01*
X179395963Y-111143909D01*
X179460635Y-110930715D01*
X179477000Y-110764558D01*
X179477000Y-109153442D01*
X179460635Y-108987285D01*
X179395963Y-108774091D01*
X179290942Y-108577610D01*
X179149607Y-108405393D01*
X178977390Y-108264058D01*
X178780908Y-108159037D01*
X178567714Y-108094365D01*
X178346000Y-108072528D01*
X178124285Y-108094365D01*
X177911091Y-108159037D01*
X177714610Y-108264058D01*
X177542393Y-108405393D01*
X177401058Y-108577610D01*
X177296037Y-108774092D01*
X177231365Y-108987286D01*
X177215000Y-109153443D01*
X176937000Y-109153443D01*
X176937000Y-109153442D01*
X176920635Y-108987285D01*
X176855963Y-108774091D01*
X176750942Y-108577610D01*
X176609607Y-108405393D01*
X176437390Y-108264058D01*
X176240908Y-108159037D01*
X176027714Y-108094365D01*
X175806000Y-108072528D01*
X175584285Y-108094365D01*
X175371091Y-108159037D01*
X175174610Y-108264058D01*
X175002393Y-108405393D01*
X174861058Y-108577610D01*
X174756037Y-108774092D01*
X174691365Y-108987286D01*
X174675000Y-109153443D01*
X174675000Y-110764558D01*
X174691365Y-110930715D01*
X174731980Y-111064600D01*
X174464570Y-111332010D01*
X174215421Y-111332010D01*
X174315963Y-111143909D01*
X174380635Y-110930715D01*
X174397000Y-110764558D01*
X174397000Y-109153442D01*
X174380635Y-108987285D01*
X174315963Y-108774091D01*
X174210942Y-108577610D01*
X174069607Y-108405393D01*
X173897390Y-108264058D01*
X173700908Y-108159037D01*
X173487714Y-108094365D01*
X173266000Y-108072528D01*
X173044285Y-108094365D01*
X172831091Y-108159037D01*
X172634610Y-108264058D01*
X172462393Y-108405393D01*
X172321058Y-108577610D01*
X172216037Y-108774092D01*
X172151365Y-108987286D01*
X172135000Y-109153443D01*
X172135000Y-110764558D01*
X172151365Y-110930715D01*
X172216038Y-111143909D01*
X172316580Y-111332010D01*
X171675421Y-111332010D01*
X171775963Y-111143909D01*
X171840635Y-110930715D01*
X171857000Y-110764558D01*
X171857000Y-109153442D01*
X171840635Y-108987285D01*
X171775963Y-108774091D01*
X171670942Y-108577610D01*
X171529607Y-108405393D01*
X171357390Y-108264058D01*
X171160908Y-108159037D01*
X170947714Y-108094365D01*
X170726000Y-108072528D01*
X170504285Y-108094365D01*
X170291091Y-108159037D01*
X170094610Y-108264058D01*
X169922393Y-108405393D01*
X169781058Y-108577610D01*
X169676037Y-108774092D01*
X169611365Y-108987286D01*
X169595000Y-109153443D01*
X169595000Y-110764558D01*
X169611365Y-110930715D01*
X169676038Y-111143909D01*
X169776580Y-111332010D01*
X169135421Y-111332010D01*
X169235963Y-111143909D01*
X169300635Y-110930715D01*
X169317000Y-110764558D01*
X169317000Y-109153442D01*
X169300635Y-108987285D01*
X169260021Y-108853399D01*
X170544420Y-107569000D01*
X171298656Y-107569000D01*
X171323600Y-107571457D01*
X171348544Y-107569000D01*
X171348547Y-107569000D01*
X171423185Y-107561649D01*
X171518943Y-107532601D01*
X171607195Y-107485429D01*
X171684548Y-107421948D01*
X171700455Y-107402565D01*
X173545400Y-105557621D01*
X173679286Y-105598235D01*
X173901000Y-105620072D01*
X174122715Y-105598235D01*
X174335909Y-105533563D01*
X174532390Y-105428542D01*
X174704607Y-105287207D01*
X174845942Y-105114990D01*
X174950963Y-104918509D01*
X175015635Y-104705315D01*
X175032000Y-104539158D01*
X175032000Y-102928043D01*
X175310000Y-102928043D01*
X175310000Y-104539158D01*
X175326365Y-104705315D01*
X175391038Y-104918509D01*
X175496059Y-105114990D01*
X175637394Y-105287207D01*
X175809611Y-105428542D01*
X176006092Y-105533563D01*
X176219286Y-105598235D01*
X176441000Y-105620072D01*
X176662715Y-105598235D01*
X176875909Y-105533563D01*
X177072390Y-105428542D01*
X177244607Y-105287207D01*
X177385942Y-105114990D01*
X177490963Y-104918509D01*
X177555635Y-104705315D01*
X177572000Y-104539158D01*
X177572000Y-102928042D01*
X177555635Y-102761885D01*
X177490963Y-102548691D01*
X177385942Y-102352210D01*
X177244607Y-102179993D01*
X177072390Y-102038658D01*
X176875908Y-101933637D01*
X176662714Y-101868965D01*
X176441000Y-101847128D01*
X176219285Y-101868965D01*
X176006091Y-101933637D01*
X175809610Y-102038658D01*
X175637393Y-102179993D01*
X175496058Y-102352210D01*
X175391037Y-102548692D01*
X175326365Y-102761886D01*
X175310000Y-102928043D01*
X175032000Y-102928043D01*
X175032000Y-102928042D01*
X175015635Y-102761885D01*
X174950963Y-102548691D01*
X174845942Y-102352210D01*
X174704607Y-102179993D01*
X174532390Y-102038658D01*
X174335908Y-101933637D01*
X174122714Y-101868965D01*
X173901000Y-101847128D01*
X173679285Y-101868965D01*
X173466091Y-101933637D01*
X173269610Y-102038658D01*
X173097393Y-102179993D01*
X172956058Y-102352210D01*
X172851037Y-102548692D01*
X172786365Y-102761886D01*
X172770000Y-102928043D01*
X172770000Y-104539158D01*
X172786365Y-104705315D01*
X172826979Y-104839200D01*
X171113180Y-106553000D01*
X170358944Y-106553000D01*
X170334000Y-106550543D01*
X170309056Y-106553000D01*
X170309053Y-106553000D01*
X170234415Y-106560351D01*
X170138657Y-106589399D01*
X170050405Y-106636571D01*
X169973052Y-106700052D01*
X169957145Y-106719435D01*
X168541601Y-108134979D01*
X168407714Y-108094365D01*
X168186000Y-108072528D01*
X167964285Y-108094365D01*
X167751091Y-108159037D01*
X167554610Y-108264058D01*
X167382393Y-108405393D01*
X167241058Y-108577610D01*
X167136037Y-108774092D01*
X167071365Y-108987286D01*
X167055000Y-109153443D01*
X167055000Y-110764558D01*
X167071365Y-110930715D01*
X167136038Y-111143909D01*
X167236580Y-111332010D01*
X166595421Y-111332010D01*
X166695963Y-111143909D01*
X166760635Y-110930715D01*
X166777000Y-110764558D01*
X166777000Y-109153442D01*
X166760635Y-108987285D01*
X166720021Y-108853399D01*
X167753581Y-107819840D01*
X167772958Y-107803938D01*
X167816831Y-107750478D01*
X167836439Y-107726586D01*
X167883610Y-107638335D01*
X167884095Y-107636736D01*
X167912659Y-107542575D01*
X167920010Y-107467937D01*
X167920010Y-107467935D01*
X167922467Y-107442991D01*
X167920010Y-107418047D01*
X167920010Y-105168544D01*
X168017394Y-105287207D01*
X168189611Y-105428542D01*
X168386092Y-105533563D01*
X168599286Y-105598235D01*
X168821000Y-105620072D01*
X169042715Y-105598235D01*
X169255909Y-105533563D01*
X169452390Y-105428542D01*
X169624607Y-105287207D01*
X169765942Y-105114990D01*
X169870963Y-104918509D01*
X169935635Y-104705315D01*
X169952000Y-104539158D01*
X169952000Y-102928043D01*
X170230000Y-102928043D01*
X170230000Y-104539158D01*
X170246365Y-104705315D01*
X170311038Y-104918509D01*
X170416059Y-105114990D01*
X170557394Y-105287207D01*
X170729611Y-105428542D01*
X170926092Y-105533563D01*
X171139286Y-105598235D01*
X171361000Y-105620072D01*
X171582715Y-105598235D01*
X171795909Y-105533563D01*
X171992390Y-105428542D01*
X172164607Y-105287207D01*
X172305942Y-105114990D01*
X172410963Y-104918509D01*
X172475635Y-104705315D01*
X172492000Y-104539158D01*
X172492000Y-102928042D01*
X172475635Y-102761885D01*
X172410963Y-102548691D01*
X172305942Y-102352210D01*
X172164607Y-102179993D01*
X171992390Y-102038658D01*
X171795908Y-101933637D01*
X171582714Y-101868965D01*
X171361000Y-101847128D01*
X171139285Y-101868965D01*
X170926091Y-101933637D01*
X170729610Y-102038658D01*
X170557393Y-102179993D01*
X170416058Y-102352210D01*
X170311037Y-102548692D01*
X170246365Y-102761886D01*
X170230000Y-102928043D01*
X169952000Y-102928043D01*
X169952000Y-102928042D01*
X169935635Y-102761885D01*
X169870963Y-102548691D01*
X169765942Y-102352210D01*
X169624607Y-102179993D01*
X169452390Y-102038658D01*
X169255908Y-101933637D01*
X169042714Y-101868965D01*
X168868603Y-101851817D01*
X169658575Y-101061845D01*
X169677958Y-101045938D01*
X169741439Y-100968585D01*
X169788611Y-100880333D01*
X169817659Y-100784575D01*
X169825010Y-100709937D01*
X169825010Y-100709934D01*
X169827467Y-100684990D01*
X169825010Y-100660046D01*
X169825010Y-96403946D01*
X169922393Y-96522607D01*
X170094610Y-96663942D01*
X170291091Y-96768963D01*
X170504285Y-96833635D01*
X170726000Y-96855472D01*
X170947714Y-96833635D01*
X171160908Y-96768963D01*
X171357390Y-96663942D01*
X171529607Y-96522607D01*
X171670942Y-96350390D01*
X171775963Y-96153909D01*
X171840635Y-95940715D01*
X171857000Y-95774558D01*
X171857000Y-94163442D01*
X172135000Y-94163442D01*
X172135000Y-95774557D01*
X172151365Y-95940714D01*
X172216037Y-96153908D01*
X172321058Y-96350390D01*
X172462393Y-96522607D01*
X172634610Y-96663942D01*
X172831091Y-96768963D01*
X173044285Y-96833635D01*
X173266000Y-96855472D01*
X173487714Y-96833635D01*
X173700908Y-96768963D01*
X173897390Y-96663942D01*
X174069607Y-96522607D01*
X174210942Y-96350390D01*
X174315963Y-96153909D01*
X174380635Y-95940715D01*
X174397000Y-95774558D01*
X174397000Y-94163442D01*
X174675000Y-94163442D01*
X174675000Y-95774557D01*
X174691365Y-95940714D01*
X174756037Y-96153908D01*
X174861058Y-96350390D01*
X175002393Y-96522607D01*
X175174610Y-96663942D01*
X175371091Y-96768963D01*
X175584285Y-96833635D01*
X175806000Y-96855472D01*
X176027714Y-96833635D01*
X176240908Y-96768963D01*
X176437390Y-96663942D01*
X176609607Y-96522607D01*
X176750942Y-96350390D01*
X176855963Y-96153909D01*
X176920635Y-95940715D01*
X176937000Y-95774558D01*
X176937000Y-94163443D01*
X177215000Y-94163443D01*
X177215000Y-95774558D01*
X177231365Y-95940715D01*
X177296038Y-96153909D01*
X177401059Y-96350390D01*
X177542394Y-96522607D01*
X177714611Y-96663942D01*
X177911092Y-96768963D01*
X178124286Y-96833635D01*
X178346000Y-96855472D01*
X178567715Y-96833635D01*
X178780909Y-96768963D01*
X178977390Y-96663942D01*
X179149607Y-96522607D01*
X179290942Y-96350390D01*
X179395963Y-96153909D01*
X179460635Y-95940715D01*
X179477000Y-95774558D01*
X179477000Y-94163442D01*
X179460635Y-93997285D01*
X179395963Y-93784091D01*
X179290942Y-93587610D01*
X179149607Y-93415393D01*
X178977390Y-93274058D01*
X178780908Y-93169037D01*
X178567714Y-93104365D01*
X178346000Y-93082528D01*
X178124285Y-93104365D01*
X177911091Y-93169037D01*
X177714610Y-93274058D01*
X177542393Y-93415393D01*
X177401058Y-93587610D01*
X177296037Y-93784092D01*
X177231365Y-93997286D01*
X177215000Y-94163443D01*
X176937000Y-94163443D01*
X176937000Y-94163442D01*
X176920635Y-93997285D01*
X176855963Y-93784091D01*
X176750942Y-93587610D01*
X176609607Y-93415393D01*
X176437390Y-93274058D01*
X176240909Y-93169037D01*
X176027715Y-93104365D01*
X175806000Y-93082528D01*
X175584286Y-93104365D01*
X175371092Y-93169037D01*
X175174611Y-93274058D01*
X175002394Y-93415393D01*
X174861059Y-93587610D01*
X174756038Y-93784091D01*
X174691365Y-93997285D01*
X174675000Y-94163442D01*
X174397000Y-94163442D01*
X174380635Y-93997285D01*
X174315963Y-93784091D01*
X174210942Y-93587610D01*
X174069607Y-93415393D01*
X173897390Y-93274058D01*
X173700909Y-93169037D01*
X173487715Y-93104365D01*
X173266000Y-93082528D01*
X173044286Y-93104365D01*
X172831092Y-93169037D01*
X172634611Y-93274058D01*
X172462394Y-93415393D01*
X172321059Y-93587610D01*
X172216038Y-93784091D01*
X172151365Y-93997285D01*
X172135000Y-94163442D01*
X171857000Y-94163442D01*
X171840635Y-93997285D01*
X171775963Y-93784091D01*
X171670942Y-93587610D01*
X171529607Y-93415393D01*
X171357390Y-93274058D01*
X171160909Y-93169037D01*
X170947715Y-93104365D01*
X170775606Y-93087414D01*
X173545399Y-90317621D01*
X173679286Y-90358235D01*
X173901000Y-90380072D01*
X174122715Y-90358235D01*
X174335909Y-90293563D01*
X174532390Y-90188542D01*
X174704607Y-90047207D01*
X174845942Y-89874990D01*
X174950963Y-89678509D01*
X175015635Y-89465315D01*
X175032000Y-89299158D01*
X175032000Y-87688043D01*
X175310000Y-87688043D01*
X175310000Y-89299158D01*
X175326365Y-89465315D01*
X175391038Y-89678509D01*
X175496059Y-89874990D01*
X175637394Y-90047207D01*
X175809611Y-90188542D01*
X176006092Y-90293563D01*
X176219286Y-90358235D01*
X176441000Y-90380072D01*
X176662715Y-90358235D01*
X176875909Y-90293563D01*
X177072390Y-90188542D01*
X177244607Y-90047207D01*
X177385942Y-89874990D01*
X177490963Y-89678509D01*
X177555635Y-89465315D01*
X177572000Y-89299158D01*
X177572000Y-87688042D01*
X177555635Y-87521885D01*
X177490963Y-87308691D01*
X177385942Y-87112210D01*
X177244607Y-86939993D01*
X177072390Y-86798658D01*
X176875908Y-86693637D01*
X176662714Y-86628965D01*
X176441000Y-86607128D01*
X176219285Y-86628965D01*
X176006091Y-86693637D01*
X175809610Y-86798658D01*
X175637393Y-86939993D01*
X175496058Y-87112210D01*
X175391037Y-87308692D01*
X175326365Y-87521886D01*
X175310000Y-87688043D01*
X175032000Y-87688043D01*
X175032000Y-87688042D01*
X175015635Y-87521885D01*
X174950963Y-87308691D01*
X174845942Y-87112210D01*
X174704607Y-86939993D01*
X174532390Y-86798658D01*
X174335908Y-86693637D01*
X174122714Y-86628965D01*
X173901000Y-86607128D01*
X173679285Y-86628965D01*
X173466091Y-86693637D01*
X173269610Y-86798658D01*
X173097393Y-86939993D01*
X172956058Y-87112210D01*
X172851037Y-87308692D01*
X172786365Y-87521886D01*
X172770000Y-87688043D01*
X172770000Y-89299158D01*
X172786365Y-89465315D01*
X172826980Y-89599200D01*
X168999154Y-93427026D01*
X168989607Y-93415393D01*
X168817390Y-93274058D01*
X168620909Y-93169037D01*
X168407715Y-93104365D01*
X168186000Y-93082528D01*
X167964286Y-93104365D01*
X167751092Y-93169037D01*
X167562990Y-93269579D01*
X167562990Y-91220030D01*
X168465400Y-90317621D01*
X168599286Y-90358235D01*
X168821000Y-90380072D01*
X169042715Y-90358235D01*
X169255909Y-90293563D01*
X169452390Y-90188542D01*
X169624607Y-90047207D01*
X169765942Y-89874990D01*
X169870963Y-89678509D01*
X169935635Y-89465315D01*
X169952000Y-89299158D01*
X169952000Y-87688042D01*
X169935635Y-87521885D01*
X169870963Y-87308691D01*
X169770421Y-87120590D01*
X170019570Y-87120590D01*
X170286979Y-87387999D01*
X170246365Y-87521886D01*
X170230000Y-87688043D01*
X170230000Y-89299158D01*
X170246365Y-89465315D01*
X170311038Y-89678509D01*
X170416059Y-89874990D01*
X170557394Y-90047207D01*
X170729611Y-90188542D01*
X170926092Y-90293563D01*
X171139286Y-90358235D01*
X171361000Y-90380072D01*
X171582715Y-90358235D01*
X171795909Y-90293563D01*
X171992390Y-90188542D01*
X172164607Y-90047207D01*
X172305942Y-89874990D01*
X172410963Y-89678509D01*
X172475635Y-89465315D01*
X172492000Y-89299158D01*
X172492000Y-87688042D01*
X172475635Y-87521885D01*
X172410963Y-87308691D01*
X172305942Y-87112210D01*
X172164607Y-86939993D01*
X171992390Y-86798658D01*
X171795908Y-86693637D01*
X171582714Y-86628965D01*
X171361000Y-86607128D01*
X171139285Y-86628965D01*
X171005399Y-86669579D01*
X170606845Y-86271025D01*
X170590938Y-86251642D01*
X170513585Y-86188161D01*
X170425333Y-86140989D01*
X170329575Y-86111941D01*
X170254937Y-86104590D01*
X170254934Y-86104590D01*
X170229990Y-86102133D01*
X170205046Y-86104590D01*
X163297464Y-86104590D01*
X163272520Y-86102133D01*
X163247576Y-86104590D01*
X163247574Y-86104590D01*
X163172936Y-86111941D01*
X163077178Y-86140989D01*
X163077176Y-86140990D01*
X162988925Y-86188161D01*
X162934331Y-86232966D01*
X162911573Y-86251642D01*
X162895670Y-86271020D01*
X162268425Y-86898266D01*
X162249042Y-86914173D01*
X162185561Y-86991526D01*
X162138389Y-87079779D01*
X162133244Y-87096738D01*
X162004607Y-86939993D01*
X161832390Y-86798658D01*
X161710877Y-86733708D01*
X161706930Y-86693637D01*
X161701649Y-86640015D01*
X161672601Y-86544257D01*
X161625429Y-86456005D01*
X161561948Y-86378652D01*
X161542565Y-86362745D01*
X161450845Y-86271025D01*
X161434938Y-86251642D01*
X161357585Y-86188161D01*
X161269333Y-86140989D01*
X161173575Y-86111941D01*
X161098937Y-86104590D01*
X161098934Y-86104590D01*
X161073990Y-86102133D01*
X161049046Y-86104590D01*
X153137464Y-86104590D01*
X153112520Y-86102133D01*
X153087576Y-86104590D01*
X153087574Y-86104590D01*
X153012936Y-86111941D01*
X152917178Y-86140989D01*
X152917176Y-86140990D01*
X152828925Y-86188161D01*
X152774331Y-86232966D01*
X152751573Y-86251642D01*
X152735671Y-86271019D01*
X151944715Y-87061975D01*
X151844607Y-86939993D01*
X151672390Y-86798658D01*
X151475908Y-86693637D01*
X151262714Y-86628965D01*
X151041000Y-86607128D01*
X150819285Y-86628965D01*
X150606091Y-86693637D01*
X150409610Y-86798658D01*
X150237393Y-86939993D01*
X150137285Y-87061975D01*
X148330315Y-85255006D01*
X148314408Y-85235623D01*
X148237055Y-85172142D01*
X148148803Y-85124970D01*
X148053045Y-85095922D01*
X147978407Y-85088571D01*
X147978404Y-85088571D01*
X147953460Y-85086114D01*
X147928516Y-85088571D01*
X135432973Y-85088571D01*
X135408029Y-85086114D01*
X135383085Y-85088571D01*
X135383082Y-85088571D01*
X135308444Y-85095922D01*
X135212686Y-85124970D01*
X135124434Y-85172142D01*
X135047081Y-85235623D01*
X135031174Y-85255006D01*
X133616601Y-86669579D01*
X133482714Y-86628965D01*
X133261000Y-86607128D01*
X133039285Y-86628965D01*
X132826091Y-86693637D01*
X132629610Y-86798658D01*
X132457393Y-86939993D01*
X132316058Y-87112210D01*
X132211037Y-87308692D01*
X132146365Y-87521886D01*
X132130000Y-87688043D01*
X131852000Y-87688043D01*
X131852000Y-87688042D01*
X131835635Y-87521885D01*
X131770963Y-87308691D01*
X131665942Y-87112210D01*
X131524607Y-86939993D01*
X131352390Y-86798658D01*
X131155908Y-86693637D01*
X130942714Y-86628965D01*
X130721000Y-86607128D01*
X130499285Y-86628965D01*
X130286091Y-86693637D01*
X130089610Y-86798658D01*
X129917393Y-86939993D01*
X129776058Y-87112210D01*
X129671037Y-87308692D01*
X129606365Y-87521886D01*
X129590000Y-87688043D01*
X129312000Y-87688043D01*
X129312000Y-87688042D01*
X129295635Y-87521885D01*
X129230963Y-87308691D01*
X129125942Y-87112210D01*
X128984607Y-86939993D01*
X128812390Y-86798658D01*
X128615908Y-86693637D01*
X128402714Y-86628965D01*
X128181000Y-86607128D01*
X127959285Y-86628965D01*
X127746091Y-86693637D01*
X127549610Y-86798658D01*
X127377393Y-86939993D01*
X127236058Y-87112210D01*
X127131037Y-87308692D01*
X127066365Y-87521886D01*
X127050000Y-87688043D01*
X126772000Y-87688043D01*
X126772000Y-87688042D01*
X126755635Y-87521885D01*
X126690963Y-87308691D01*
X126585942Y-87112210D01*
X126444607Y-86939993D01*
X126272390Y-86798658D01*
X126075908Y-86693637D01*
X125862714Y-86628965D01*
X125641000Y-86607128D01*
X125419285Y-86628965D01*
X125206091Y-86693637D01*
X125009610Y-86798658D01*
X124837393Y-86939993D01*
X124696058Y-87112210D01*
X124591037Y-87308692D01*
X124526365Y-87521886D01*
X124510000Y-87688043D01*
X124232000Y-87688043D01*
X124232000Y-87688042D01*
X124215635Y-87521885D01*
X124150963Y-87308691D01*
X124045942Y-87112210D01*
X123904607Y-86939993D01*
X123732390Y-86798658D01*
X123535908Y-86693637D01*
X123322714Y-86628965D01*
X123101000Y-86607128D01*
X122879285Y-86628965D01*
X122666091Y-86693637D01*
X122469610Y-86798658D01*
X122297393Y-86939993D01*
X122156058Y-87112210D01*
X122051037Y-87308692D01*
X121986365Y-87521886D01*
X121970000Y-87688043D01*
X121692000Y-87688043D01*
X121692000Y-87688042D01*
X121675635Y-87521885D01*
X121610963Y-87308691D01*
X121505942Y-87112210D01*
X121364607Y-86939993D01*
X121192390Y-86798658D01*
X120995908Y-86693637D01*
X120782714Y-86628965D01*
X120561000Y-86607128D01*
X120339285Y-86628965D01*
X120126091Y-86693637D01*
X119929610Y-86798658D01*
X119757393Y-86939993D01*
X119616058Y-87112210D01*
X119511037Y-87308692D01*
X119446365Y-87521886D01*
X119430000Y-87688043D01*
X119152000Y-87688043D01*
X119152000Y-87688042D01*
X119135635Y-87521885D01*
X119070963Y-87308691D01*
X118965942Y-87112210D01*
X118824607Y-86939993D01*
X118652390Y-86798658D01*
X118455908Y-86693637D01*
X118242714Y-86628965D01*
X118021000Y-86607128D01*
X117799285Y-86628965D01*
X117586091Y-86693637D01*
X117389610Y-86798658D01*
X117217393Y-86939993D01*
X117076058Y-87112210D01*
X116971037Y-87308692D01*
X116906365Y-87521886D01*
X116890000Y-87688043D01*
X107542400Y-87688043D01*
X107542400Y-84720124D01*
X107563326Y-84506700D01*
X107622077Y-84312111D01*
X107717505Y-84132636D01*
X107845975Y-83975117D01*
X108002596Y-83845549D01*
X108181400Y-83748870D01*
X108375577Y-83688762D01*
X108588344Y-83666400D01*
X188456876Y-83666400D01*
X188670300Y-83687326D01*
X188670300Y-83687326D01*
G37*
X188670300Y-83687326D02*
X188864889Y-83746077D01*
X189044364Y-83841505D01*
X189201883Y-83969975D01*
X189331451Y-84126596D01*
X189428130Y-84305400D01*
X189488238Y-84499577D01*
X189510600Y-84712344D01*
X189510601Y-125337866D01*
X189492092Y-125526632D01*
X189440507Y-125697489D01*
X189356714Y-125855083D01*
X189243909Y-125993394D01*
X189106386Y-126107163D01*
X188949385Y-126192054D01*
X188778888Y-126244832D01*
X188590800Y-126264600D01*
X128789124Y-126264600D01*
X128600368Y-126246092D01*
X128429511Y-126194507D01*
X128271917Y-126110714D01*
X128133606Y-125997909D01*
X128019837Y-125860386D01*
X127934946Y-125703385D01*
X127882168Y-125532888D01*
X127862400Y-125344800D01*
X127862400Y-120699000D01*
X129221157Y-120699000D01*
X129221157Y-122299000D01*
X129228513Y-122373689D01*
X129250299Y-122445508D01*
X129285678Y-122511696D01*
X129333289Y-122569711D01*
X129391304Y-122617322D01*
X129457492Y-122652701D01*
X129529311Y-122674487D01*
X129604000Y-122681843D01*
X131204000Y-122681843D01*
X131278689Y-122674487D01*
X131350508Y-122652701D01*
X131416696Y-122617322D01*
X131474711Y-122569711D01*
X131522322Y-122511696D01*
X131557701Y-122445508D01*
X131579487Y-122373689D01*
X131586843Y-122299000D01*
X131586843Y-121382682D01*
X132423000Y-121382682D01*
X132423000Y-121615318D01*
X132468386Y-121843485D01*
X132557412Y-122058413D01*
X132686658Y-122251843D01*
X132851157Y-122416342D01*
X133044587Y-122545588D01*
X133259515Y-122634614D01*
X133487682Y-122680000D01*
X133720318Y-122680000D01*
X133948485Y-122634614D01*
X134163413Y-122545588D01*
X134356843Y-122416342D01*
X134521342Y-122251843D01*
X134650588Y-122058413D01*
X134739614Y-121843485D01*
X134785000Y-121615318D01*
X134785000Y-121382682D01*
X134739614Y-121154515D01*
X134650588Y-120939587D01*
X134521342Y-120746157D01*
X134356843Y-120581658D01*
X134163413Y-120452412D01*
X133948485Y-120363386D01*
X133720318Y-120318000D01*
X133487682Y-120318000D01*
X133259515Y-120363386D01*
X133044587Y-120452412D01*
X132851157Y-120581658D01*
X132686658Y-120746157D01*
X132557412Y-120939587D01*
X132468386Y-121154515D01*
X132423000Y-121382682D01*
X131586843Y-121382682D01*
X131586843Y-120699000D01*
X131579487Y-120624311D01*
X131557701Y-120552492D01*
X131522322Y-120486304D01*
X131474711Y-120428289D01*
X131416696Y-120380678D01*
X131350508Y-120345299D01*
X131278689Y-120323513D01*
X131204000Y-120316157D01*
X129604000Y-120316157D01*
X129529311Y-120323513D01*
X129457492Y-120345299D01*
X129391304Y-120380678D01*
X129333289Y-120428289D01*
X129285678Y-120486304D01*
X129250299Y-120552492D01*
X129228513Y-120624311D01*
X129221157Y-120699000D01*
X127862400Y-120699000D01*
X127862400Y-118882682D01*
X129223000Y-118882682D01*
X129223000Y-119115318D01*
X129268386Y-119343485D01*
X129357412Y-119558413D01*
X129486658Y-119751843D01*
X129651157Y-119916342D01*
X129844587Y-120045588D01*
X130059515Y-120134614D01*
X130287682Y-120180000D01*
X130520318Y-120180000D01*
X130748485Y-120134614D01*
X130963413Y-120045588D01*
X131156843Y-119916342D01*
X131321342Y-119751843D01*
X131450588Y-119558413D01*
X131539614Y-119343485D01*
X131585000Y-119115318D01*
X131585000Y-118882682D01*
X131539614Y-118654515D01*
X131450588Y-118439587D01*
X131321342Y-118246157D01*
X131156843Y-118081658D01*
X130963413Y-117952412D01*
X130748485Y-117863386D01*
X130520318Y-117818000D01*
X130287682Y-117818000D01*
X130059515Y-117863386D01*
X129844587Y-117952412D01*
X129651157Y-118081658D01*
X129486658Y-118246157D01*
X129357412Y-118439587D01*
X129268386Y-118654515D01*
X129223000Y-118882682D01*
X127862400Y-118882682D01*
X127862400Y-109970833D01*
X127861386Y-109960541D01*
X127861436Y-109953411D01*
X127861126Y-109950251D01*
X127837809Y-109728399D01*
X127833670Y-109708236D01*
X127829803Y-109687963D01*
X127828885Y-109684924D01*
X127762920Y-109471826D01*
X127754948Y-109452861D01*
X127747213Y-109433716D01*
X127745722Y-109430913D01*
X127639622Y-109234686D01*
X127628102Y-109217606D01*
X127616812Y-109200354D01*
X127614805Y-109197893D01*
X127472612Y-109026011D01*
X127458008Y-109011509D01*
X127443567Y-108996762D01*
X127441121Y-108994739D01*
X127268251Y-108853749D01*
X127251094Y-108842350D01*
X127234077Y-108830698D01*
X127231284Y-108829188D01*
X127034320Y-108724461D01*
X127015290Y-108716618D01*
X126996322Y-108708488D01*
X126993289Y-108707550D01*
X126779736Y-108643074D01*
X126759573Y-108639082D01*
X126739358Y-108634785D01*
X126736200Y-108634453D01*
X126514190Y-108612685D01*
X126514182Y-108612685D01*
X126503167Y-108611600D01*
X108469124Y-108611600D01*
X108280368Y-108593092D01*
X108109511Y-108541507D01*
X107951917Y-108457714D01*
X107813606Y-108344909D01*
X107699837Y-108207386D01*
X107614946Y-108050385D01*
X107562168Y-107879888D01*
X107542400Y-107691800D01*
X107542400Y-102928043D01*
X116890000Y-102928043D01*
X116890000Y-104539158D01*
X116906365Y-104705315D01*
X116971038Y-104918509D01*
X117076059Y-105114990D01*
X117217394Y-105287207D01*
X117389611Y-105428542D01*
X117586092Y-105533563D01*
X117799286Y-105598235D01*
X118021000Y-105620072D01*
X118242715Y-105598235D01*
X118455909Y-105533563D01*
X118652390Y-105428542D01*
X118824607Y-105287207D01*
X118965942Y-105114990D01*
X119070963Y-104918509D01*
X119135635Y-104705315D01*
X119152000Y-104539158D01*
X119152000Y-102928043D01*
X119430000Y-102928043D01*
X119430000Y-104539158D01*
X119446365Y-104705315D01*
X119511038Y-104918509D01*
X119616059Y-105114990D01*
X119757394Y-105287207D01*
X119929611Y-105428542D01*
X120126092Y-105533563D01*
X120339286Y-105598235D01*
X120561000Y-105620072D01*
X120782715Y-105598235D01*
X120995909Y-105533563D01*
X121192390Y-105428542D01*
X121364607Y-105287207D01*
X121505942Y-105114990D01*
X121610963Y-104918509D01*
X121675635Y-104705315D01*
X121692000Y-104539158D01*
X121692000Y-102928043D01*
X121970000Y-102928043D01*
X121970000Y-104539158D01*
X121986365Y-104705315D01*
X122051038Y-104918509D01*
X122156059Y-105114990D01*
X122297394Y-105287207D01*
X122469611Y-105428542D01*
X122666092Y-105533563D01*
X122879286Y-105598235D01*
X123101000Y-105620072D01*
X123322715Y-105598235D01*
X123535909Y-105533563D01*
X123732390Y-105428542D01*
X123904607Y-105287207D01*
X124045942Y-105114990D01*
X124150963Y-104918509D01*
X124215635Y-104705315D01*
X124232000Y-104539158D01*
X124232000Y-102928042D01*
X124215635Y-102761885D01*
X124150963Y-102548691D01*
X124045942Y-102352210D01*
X123904607Y-102179993D01*
X123732390Y-102038658D01*
X123535908Y-101933637D01*
X123322714Y-101868965D01*
X123101000Y-101847128D01*
X122879285Y-101868965D01*
X122666091Y-101933637D01*
X122469610Y-102038658D01*
X122297393Y-102179993D01*
X122156058Y-102352210D01*
X122051037Y-102548692D01*
X121986365Y-102761886D01*
X121970000Y-102928043D01*
X121692000Y-102928043D01*
X121692000Y-102928042D01*
X121675635Y-102761885D01*
X121610963Y-102548691D01*
X121505942Y-102352210D01*
X121364607Y-102179993D01*
X121192390Y-102038658D01*
X120995908Y-101933637D01*
X120782714Y-101868965D01*
X120561000Y-101847128D01*
X120339285Y-101868965D01*
X120126091Y-101933637D01*
X119929610Y-102038658D01*
X119757393Y-102179993D01*
X119616058Y-102352210D01*
X119511037Y-102548692D01*
X119446365Y-102761886D01*
X119430000Y-102928043D01*
X119152000Y-102928043D01*
X119152000Y-102928042D01*
X119135635Y-102761885D01*
X119070963Y-102548691D01*
X118965942Y-102352210D01*
X118824607Y-102179993D01*
X118652390Y-102038658D01*
X118455908Y-101933637D01*
X118242714Y-101868965D01*
X118021000Y-101847128D01*
X117799285Y-101868965D01*
X117586091Y-101933637D01*
X117389610Y-102038658D01*
X117217393Y-102179993D01*
X117076058Y-102352210D01*
X116971037Y-102548692D01*
X116906365Y-102761886D01*
X116890000Y-102928043D01*
X107542400Y-102928043D01*
X107542400Y-87688043D01*
X116890000Y-87688043D01*
X116890000Y-89299158D01*
X116906365Y-89465315D01*
X116971038Y-89678509D01*
X117076059Y-89874990D01*
X117217394Y-90047207D01*
X117389611Y-90188542D01*
X117586092Y-90293563D01*
X117799286Y-90358235D01*
X118021000Y-90380072D01*
X118242715Y-90358235D01*
X118455909Y-90293563D01*
X118652390Y-90188542D01*
X118824607Y-90047207D01*
X118965942Y-89874990D01*
X119070963Y-89678509D01*
X119135635Y-89465315D01*
X119152000Y-89299158D01*
X119152000Y-87688043D01*
X119430000Y-87688043D01*
X119430000Y-89299158D01*
X119446365Y-89465315D01*
X119511038Y-89678509D01*
X119616059Y-89874990D01*
X119757394Y-90047207D01*
X119929611Y-90188542D01*
X120126092Y-90293563D01*
X120339286Y-90358235D01*
X120561000Y-90380072D01*
X120782715Y-90358235D01*
X120995909Y-90293563D01*
X121192390Y-90188542D01*
X121364607Y-90047207D01*
X121505942Y-89874990D01*
X121610963Y-89678509D01*
X121675635Y-89465315D01*
X121692000Y-89299158D01*
X121692000Y-87688043D01*
X121970000Y-87688043D01*
X121970000Y-89299158D01*
X121986365Y-89465315D01*
X122051038Y-89678509D01*
X122156059Y-89874990D01*
X122297394Y-90047207D01*
X122469611Y-90188542D01*
X122666092Y-90293563D01*
X122879286Y-90358235D01*
X123101000Y-90380072D01*
X123322715Y-90358235D01*
X123535909Y-90293563D01*
X123732390Y-90188542D01*
X123904607Y-90047207D01*
X124045942Y-89874990D01*
X124150963Y-89678509D01*
X124215635Y-89465315D01*
X124232000Y-89299158D01*
X124232000Y-87688043D01*
X124510000Y-87688043D01*
X124510000Y-89299158D01*
X124526365Y-89465315D01*
X124591038Y-89678509D01*
X124696059Y-89874990D01*
X124837394Y-90047207D01*
X125009611Y-90188542D01*
X125133000Y-90254495D01*
X125133001Y-98692046D01*
X125130543Y-98717000D01*
X125140352Y-98816584D01*
X125169400Y-98912343D01*
X125216571Y-99000595D01*
X125264150Y-99058570D01*
X125280053Y-99077948D01*
X125299430Y-99093850D01*
X128064210Y-101858631D01*
X127959285Y-101868965D01*
X127746091Y-101933637D01*
X127549610Y-102038658D01*
X127377393Y-102179993D01*
X127236058Y-102352210D01*
X127131037Y-102548692D01*
X127066365Y-102761886D01*
X127050000Y-102928043D01*
X127050000Y-104437185D01*
X126967353Y-104393010D01*
X126871594Y-104363962D01*
X126772010Y-104354153D01*
X126772000Y-104354154D01*
X126772000Y-102928042D01*
X126755635Y-102761885D01*
X126690963Y-102548691D01*
X126585942Y-102352210D01*
X126444607Y-102179993D01*
X126272390Y-102038658D01*
X126075908Y-101933637D01*
X125862714Y-101868965D01*
X125641000Y-101847128D01*
X125419285Y-101868965D01*
X125206091Y-101933637D01*
X125009610Y-102038658D01*
X124837393Y-102179993D01*
X124696058Y-102352210D01*
X124591037Y-102548692D01*
X124526365Y-102761886D01*
X124510000Y-102928043D01*
X124510000Y-104539158D01*
X124526365Y-104705315D01*
X124591038Y-104918509D01*
X124696059Y-105114990D01*
X124837394Y-105287207D01*
X125009611Y-105428542D01*
X125131123Y-105493492D01*
X125140352Y-105587184D01*
X125169400Y-105682943D01*
X125216571Y-105771195D01*
X125249873Y-105811773D01*
X125280053Y-105848548D01*
X125299430Y-105864450D01*
X128446990Y-109012010D01*
X128446991Y-111152525D01*
X128444533Y-111177479D01*
X128447702Y-111209649D01*
X128454342Y-111277064D01*
X128471010Y-111332010D01*
X128483390Y-111372822D01*
X128530561Y-111461074D01*
X128561226Y-111498439D01*
X128594043Y-111538427D01*
X128613420Y-111554329D01*
X129240670Y-112181580D01*
X129256573Y-112200958D01*
X129275950Y-112216860D01*
X129333925Y-112264439D01*
X129422176Y-112311610D01*
X129422178Y-112311611D01*
X129517936Y-112340659D01*
X129592574Y-112348010D01*
X129592576Y-112348010D01*
X129617520Y-112350467D01*
X129642464Y-112348010D01*
X131228667Y-112348010D01*
X134871657Y-115991000D01*
X134671884Y-115991000D01*
X134650588Y-115939587D01*
X134521342Y-115746157D01*
X134356843Y-115581658D01*
X134163413Y-115452412D01*
X133948485Y-115363386D01*
X133720318Y-115318000D01*
X133487682Y-115318000D01*
X133259515Y-115363386D01*
X133044587Y-115452412D01*
X132851157Y-115581658D01*
X132686658Y-115746157D01*
X132557412Y-115939587D01*
X132468386Y-116154515D01*
X132423000Y-116382682D01*
X132423000Y-116615318D01*
X132468386Y-116843485D01*
X132557412Y-117058413D01*
X132633309Y-117172001D01*
X131795421Y-117172001D01*
X131518318Y-116894898D01*
X131539614Y-116843485D01*
X131585000Y-116615318D01*
X131585000Y-116382682D01*
X131539614Y-116154515D01*
X131450588Y-115939587D01*
X131321342Y-115746157D01*
X131156843Y-115581658D01*
X130963413Y-115452412D01*
X130748485Y-115363386D01*
X130520318Y-115318000D01*
X130287682Y-115318000D01*
X130059515Y-115363386D01*
X129844587Y-115452412D01*
X129651157Y-115581658D01*
X129486658Y-115746157D01*
X129357412Y-115939587D01*
X129268386Y-116154515D01*
X129223000Y-116382682D01*
X129223000Y-116615318D01*
X129268386Y-116843485D01*
X129357412Y-117058413D01*
X129486658Y-117251843D01*
X129651157Y-117416342D01*
X129844587Y-117545588D01*
X130059515Y-117634614D01*
X130287682Y-117680000D01*
X130520318Y-117680000D01*
X130748485Y-117634614D01*
X130799898Y-117613318D01*
X131208146Y-118021566D01*
X131224053Y-118040949D01*
X131301406Y-118104430D01*
X131389658Y-118151602D01*
X131485416Y-118180650D01*
X131560054Y-118188001D01*
X131560057Y-118188001D01*
X131585001Y-118190458D01*
X131609945Y-118188001D01*
X132744814Y-118188001D01*
X132686658Y-118246157D01*
X132557412Y-118439587D01*
X132468386Y-118654515D01*
X132423000Y-118882682D01*
X132423000Y-119115318D01*
X132468386Y-119343485D01*
X132557412Y-119558413D01*
X132686658Y-119751843D01*
X132851157Y-119916342D01*
X133044587Y-120045588D01*
X133259515Y-120134614D01*
X133487682Y-120180000D01*
X133720318Y-120180000D01*
X133948485Y-120134614D01*
X134163413Y-120045588D01*
X134356843Y-119916342D01*
X134521342Y-119751843D01*
X134650588Y-119558413D01*
X134739614Y-119343485D01*
X134785000Y-119115318D01*
X134785000Y-118882682D01*
X134739614Y-118654515D01*
X134650588Y-118439587D01*
X134521342Y-118246157D01*
X134463186Y-118188001D01*
X135631790Y-118188001D01*
X142156370Y-124712582D01*
X142172272Y-124731959D01*
X142191649Y-124747861D01*
X142249624Y-124795440D01*
X142296796Y-124820654D01*
X142337877Y-124842612D01*
X142433635Y-124871660D01*
X142508273Y-124879011D01*
X142508275Y-124879011D01*
X142533219Y-124881468D01*
X142558163Y-124879011D01*
X152464045Y-124879011D01*
X152488989Y-124881468D01*
X152513933Y-124879011D01*
X152513936Y-124879011D01*
X152588574Y-124871660D01*
X152684332Y-124842612D01*
X152772584Y-124795440D01*
X152849937Y-124731959D01*
X152865844Y-124712576D01*
X153234738Y-124343682D01*
X165697000Y-124343682D01*
X165697000Y-124576318D01*
X165742386Y-124804485D01*
X165831412Y-125019413D01*
X165960658Y-125212843D01*
X166125157Y-125377342D01*
X166318587Y-125506588D01*
X166533515Y-125595614D01*
X166761682Y-125641000D01*
X166994318Y-125641000D01*
X167222485Y-125595614D01*
X167437413Y-125506588D01*
X167630843Y-125377342D01*
X167795342Y-125212843D01*
X167924588Y-125019413D01*
X168013614Y-124804485D01*
X168059000Y-124576318D01*
X168059000Y-124343682D01*
X168013614Y-124115515D01*
X167924588Y-123900587D01*
X167795342Y-123707157D01*
X167630843Y-123542658D01*
X167437413Y-123413412D01*
X167222485Y-123324386D01*
X166994318Y-123279000D01*
X166761682Y-123279000D01*
X166533515Y-123324386D01*
X166318587Y-123413412D01*
X166125157Y-123542658D01*
X165960658Y-123707157D01*
X165831412Y-123900587D01*
X165742386Y-124115515D01*
X165697000Y-124343682D01*
X153234738Y-124343682D01*
X153782310Y-123796110D01*
X153946484Y-123845912D01*
X154119984Y-123863000D01*
X154236016Y-123863000D01*
X154409516Y-123845912D01*
X154632136Y-123778381D01*
X154837303Y-123668717D01*
X155017134Y-123521134D01*
X155164717Y-123341303D01*
X155274381Y-123136136D01*
X155341912Y-122913516D01*
X155364714Y-122682000D01*
X155341912Y-122450484D01*
X155274381Y-122227864D01*
X155164717Y-122022697D01*
X155017134Y-121842866D01*
X154837303Y-121695283D01*
X154632136Y-121585619D01*
X154409516Y-121518088D01*
X154321153Y-121509385D01*
X155307538Y-120523000D01*
X160792157Y-120523000D01*
X160792157Y-120540000D01*
X160799513Y-120614689D01*
X160821299Y-120686508D01*
X160856678Y-120752696D01*
X160904289Y-120810711D01*
X160962304Y-120858322D01*
X161028492Y-120893701D01*
X161100311Y-120915487D01*
X161175000Y-120922843D01*
X162675000Y-120922843D01*
X162749689Y-120915487D01*
X162821508Y-120893701D01*
X162887696Y-120858322D01*
X162945711Y-120810711D01*
X162993322Y-120752696D01*
X163028701Y-120686508D01*
X163050487Y-120614689D01*
X163057843Y-120540000D01*
X163057843Y-120523000D01*
X166413580Y-120523000D01*
X169701395Y-123810815D01*
X169641412Y-123900587D01*
X169552386Y-124115515D01*
X169507000Y-124343682D01*
X169507000Y-124576318D01*
X169552386Y-124804485D01*
X169641412Y-125019413D01*
X169770658Y-125212843D01*
X169935157Y-125377342D01*
X170128587Y-125506588D01*
X170343515Y-125595614D01*
X170571682Y-125641000D01*
X170804318Y-125641000D01*
X171032485Y-125595614D01*
X171247413Y-125506588D01*
X171440843Y-125377342D01*
X171605342Y-125212843D01*
X171734588Y-125019413D01*
X171823614Y-124804485D01*
X171869000Y-124576318D01*
X171869000Y-124460000D01*
X173311286Y-124460000D01*
X173334088Y-124691516D01*
X173401619Y-124914136D01*
X173511283Y-125119303D01*
X173658866Y-125299134D01*
X173838697Y-125446717D01*
X174043864Y-125556381D01*
X174266484Y-125623912D01*
X174439984Y-125641000D01*
X174556016Y-125641000D01*
X174729516Y-125623912D01*
X174952136Y-125556381D01*
X175157303Y-125446717D01*
X175337134Y-125299134D01*
X175484717Y-125119303D01*
X175594381Y-124914136D01*
X175661912Y-124691516D01*
X175684714Y-124460000D01*
X177121286Y-124460000D01*
X177144088Y-124691516D01*
X177211619Y-124914136D01*
X177321283Y-125119303D01*
X177468866Y-125299134D01*
X177648697Y-125446717D01*
X177853864Y-125556381D01*
X178076484Y-125623912D01*
X178249984Y-125641000D01*
X178366016Y-125641000D01*
X178539516Y-125623912D01*
X178762136Y-125556381D01*
X178967303Y-125446717D01*
X179147134Y-125299134D01*
X179294717Y-125119303D01*
X179404381Y-124914136D01*
X179471912Y-124691516D01*
X179494714Y-124460000D01*
X180931286Y-124460000D01*
X180954088Y-124691516D01*
X181021619Y-124914136D01*
X181131283Y-125119303D01*
X181278866Y-125299134D01*
X181458697Y-125446717D01*
X181663864Y-125556381D01*
X181886484Y-125623912D01*
X182059984Y-125641000D01*
X182176016Y-125641000D01*
X182349516Y-125623912D01*
X182572136Y-125556381D01*
X182777303Y-125446717D01*
X182957134Y-125299134D01*
X183104717Y-125119303D01*
X183214381Y-124914136D01*
X183281912Y-124691516D01*
X183304714Y-124460000D01*
X183281912Y-124228484D01*
X183214381Y-124005864D01*
X183104717Y-123800697D01*
X182957134Y-123620866D01*
X182777303Y-123473283D01*
X182572136Y-123363619D01*
X182349516Y-123296088D01*
X182176016Y-123279000D01*
X182059984Y-123279000D01*
X181886484Y-123296088D01*
X181663864Y-123363619D01*
X181458697Y-123473283D01*
X181278866Y-123620866D01*
X181131283Y-123800697D01*
X181021619Y-124005864D01*
X180954088Y-124228484D01*
X180931286Y-124460000D01*
X179494714Y-124460000D01*
X179471912Y-124228484D01*
X179404381Y-124005864D01*
X179294717Y-123800697D01*
X179147134Y-123620866D01*
X178967303Y-123473283D01*
X178762136Y-123363619D01*
X178539516Y-123296088D01*
X178366016Y-123279000D01*
X178249984Y-123279000D01*
X178076484Y-123296088D01*
X177853864Y-123363619D01*
X177648697Y-123473283D01*
X177468866Y-123620866D01*
X177321283Y-123800697D01*
X177211619Y-124005864D01*
X177144088Y-124228484D01*
X177121286Y-124460000D01*
X175684714Y-124460000D01*
X175661912Y-124228484D01*
X175594381Y-124005864D01*
X175484717Y-123800697D01*
X175337134Y-123620866D01*
X175157303Y-123473283D01*
X174952136Y-123363619D01*
X174729516Y-123296088D01*
X174556016Y-123279000D01*
X174439984Y-123279000D01*
X174266484Y-123296088D01*
X174043864Y-123363619D01*
X173838697Y-123473283D01*
X173658866Y-123620866D01*
X173511283Y-123800697D01*
X173401619Y-124005864D01*
X173334088Y-124228484D01*
X173311286Y-124460000D01*
X171869000Y-124460000D01*
X171869000Y-124343682D01*
X171823614Y-124115515D01*
X171734588Y-123900587D01*
X171605342Y-123707157D01*
X171440843Y-123542658D01*
X171247413Y-123413412D01*
X171032485Y-123324386D01*
X170804318Y-123279000D01*
X170606420Y-123279000D01*
X167000855Y-119673435D01*
X166984948Y-119654052D01*
X166907595Y-119590571D01*
X166819343Y-119543399D01*
X166723585Y-119514351D01*
X166648947Y-119507000D01*
X166648944Y-119507000D01*
X166624000Y-119504543D01*
X166599056Y-119507000D01*
X163057843Y-119507000D01*
X163057843Y-119490000D01*
X163050487Y-119415311D01*
X163028701Y-119343492D01*
X162993322Y-119277304D01*
X162973377Y-119253000D01*
X163158426Y-119253000D01*
X163183370Y-119255457D01*
X163208314Y-119253000D01*
X163208317Y-119253000D01*
X163282955Y-119245649D01*
X163378713Y-119216601D01*
X163466965Y-119169429D01*
X163544318Y-119105948D01*
X163560225Y-119086565D01*
X167214822Y-115431968D01*
X167332136Y-115396381D01*
X167537303Y-115286717D01*
X167717134Y-115139134D01*
X167864717Y-114959303D01*
X167974381Y-114754136D01*
X168006261Y-114649040D01*
X169296091Y-114649040D01*
X169390930Y-114913881D01*
X169535615Y-115155131D01*
X169724586Y-115363519D01*
X169950580Y-115531037D01*
X170204913Y-115651246D01*
X170338961Y-115691904D01*
X170561000Y-115569915D01*
X170561000Y-114427000D01*
X170815000Y-114427000D01*
X170815000Y-115569915D01*
X171037039Y-115691904D01*
X171171087Y-115651246D01*
X171425420Y-115531037D01*
X171651414Y-115363519D01*
X171840385Y-115155131D01*
X171985070Y-114913881D01*
X172079909Y-114649040D01*
X171958624Y-114427000D01*
X170815000Y-114427000D01*
X170561000Y-114427000D01*
X169417376Y-114427000D01*
X169296091Y-114649040D01*
X168006261Y-114649040D01*
X168041912Y-114531516D01*
X168064714Y-114300000D01*
X168053258Y-114183682D01*
X173317000Y-114183682D01*
X173317000Y-114416318D01*
X173362386Y-114644485D01*
X173451412Y-114859413D01*
X173580658Y-115052843D01*
X173745157Y-115217342D01*
X173938587Y-115346588D01*
X174153515Y-115435614D01*
X174381682Y-115481000D01*
X174614318Y-115481000D01*
X174842485Y-115435614D01*
X175057413Y-115346588D01*
X175250843Y-115217342D01*
X175415342Y-115052843D01*
X175544588Y-114859413D01*
X175633614Y-114644485D01*
X175679000Y-114416318D01*
X175679000Y-114183682D01*
X177127000Y-114183682D01*
X177127000Y-114416318D01*
X177172386Y-114644485D01*
X177261412Y-114859413D01*
X177390658Y-115052843D01*
X177555157Y-115217342D01*
X177748587Y-115346588D01*
X177963515Y-115435614D01*
X178191682Y-115481000D01*
X178424318Y-115481000D01*
X178652485Y-115435614D01*
X178867413Y-115346588D01*
X179060843Y-115217342D01*
X179225342Y-115052843D01*
X179354588Y-114859413D01*
X179443614Y-114644485D01*
X179489000Y-114416318D01*
X179489000Y-114183682D01*
X180937000Y-114183682D01*
X180937000Y-114416318D01*
X180982386Y-114644485D01*
X181071412Y-114859413D01*
X181200658Y-115052843D01*
X181365157Y-115217342D01*
X181558587Y-115346588D01*
X181773515Y-115435614D01*
X182001682Y-115481000D01*
X182234318Y-115481000D01*
X182462485Y-115435614D01*
X182677413Y-115346588D01*
X182870843Y-115217342D01*
X183035342Y-115052843D01*
X183164588Y-114859413D01*
X183253614Y-114644485D01*
X183299000Y-114416318D01*
X183299000Y-114183682D01*
X183253614Y-113955515D01*
X183164588Y-113740587D01*
X183035342Y-113547157D01*
X182870843Y-113382658D01*
X182677413Y-113253412D01*
X182462485Y-113164386D01*
X182234318Y-113119000D01*
X182001682Y-113119000D01*
X181773515Y-113164386D01*
X181558587Y-113253412D01*
X181365157Y-113382658D01*
X181200658Y-113547157D01*
X181071412Y-113740587D01*
X180982386Y-113955515D01*
X180937000Y-114183682D01*
X179489000Y-114183682D01*
X179443614Y-113955515D01*
X179354588Y-113740587D01*
X179225342Y-113547157D01*
X179060843Y-113382658D01*
X178867413Y-113253412D01*
X178652485Y-113164386D01*
X178424318Y-113119000D01*
X178191682Y-113119000D01*
X177963515Y-113164386D01*
X177748587Y-113253412D01*
X177555157Y-113382658D01*
X177390658Y-113547157D01*
X177261412Y-113740587D01*
X177172386Y-113955515D01*
X177127000Y-114183682D01*
X175679000Y-114183682D01*
X175633614Y-113955515D01*
X175544588Y-113740587D01*
X175415342Y-113547157D01*
X175250843Y-113382658D01*
X175057413Y-113253412D01*
X174842485Y-113164386D01*
X174614318Y-113119000D01*
X174381682Y-113119000D01*
X174153515Y-113164386D01*
X173938587Y-113253412D01*
X173745157Y-113382658D01*
X173580658Y-113547157D01*
X173451412Y-113740587D01*
X173362386Y-113955515D01*
X173317000Y-114183682D01*
X168053258Y-114183682D01*
X168041912Y-114068484D01*
X168006262Y-113950960D01*
X169296091Y-113950960D01*
X169417376Y-114173000D01*
X170561000Y-114173000D01*
X170561000Y-113030085D01*
X170815000Y-113030085D01*
X170815000Y-114173000D01*
X171958624Y-114173000D01*
X172079909Y-113950960D01*
X171985070Y-113686119D01*
X171840385Y-113444869D01*
X171651414Y-113236481D01*
X171425420Y-113068963D01*
X171171087Y-112948754D01*
X171037039Y-112908096D01*
X170815000Y-113030085D01*
X170561000Y-113030085D01*
X170338961Y-112908096D01*
X170204913Y-112948754D01*
X169950580Y-113068963D01*
X169724586Y-113236481D01*
X169535615Y-113444869D01*
X169390930Y-113686119D01*
X169296091Y-113950960D01*
X168006262Y-113950960D01*
X167974381Y-113845864D01*
X167864717Y-113640697D01*
X167717134Y-113460866D01*
X167537303Y-113313283D01*
X167332136Y-113203619D01*
X167109516Y-113136088D01*
X166936016Y-113119000D01*
X166819984Y-113119000D01*
X166646484Y-113136088D01*
X166423864Y-113203619D01*
X166218697Y-113313283D01*
X166038866Y-113460866D01*
X165891283Y-113640697D01*
X165781619Y-113845864D01*
X165714088Y-114068484D01*
X165691286Y-114300000D01*
X165714088Y-114531516D01*
X165781619Y-114754136D01*
X165891283Y-114959303D01*
X166038866Y-115139134D01*
X166056414Y-115153536D01*
X162972950Y-118237000D01*
X162905136Y-118237000D01*
X162800909Y-118110000D01*
X162906956Y-117980782D01*
X162991084Y-117823388D01*
X163042890Y-117652607D01*
X163060383Y-117475000D01*
X163042890Y-117297393D01*
X162991084Y-117126612D01*
X162906956Y-116969218D01*
X162793738Y-116831262D01*
X162655782Y-116718044D01*
X162498388Y-116633916D01*
X162327607Y-116582110D01*
X162194501Y-116569000D01*
X161655499Y-116569000D01*
X161522393Y-116582110D01*
X161351612Y-116633916D01*
X161194218Y-116718044D01*
X161056262Y-116831262D01*
X160943044Y-116969218D01*
X160858916Y-117126612D01*
X160807110Y-117297393D01*
X160789617Y-117475000D01*
X160807110Y-117652607D01*
X160858916Y-117823388D01*
X160943044Y-117980782D01*
X161049091Y-118110000D01*
X160943044Y-118239218D01*
X160858916Y-118396612D01*
X160807110Y-118567393D01*
X160789617Y-118745000D01*
X160807110Y-118922607D01*
X160858916Y-119093388D01*
X160919527Y-119206784D01*
X160904289Y-119219289D01*
X160856678Y-119277304D01*
X160821299Y-119343492D01*
X160799513Y-119415311D01*
X160792157Y-119490000D01*
X160792157Y-119507000D01*
X155122062Y-119507000D01*
X155097118Y-119504543D01*
X155072174Y-119507000D01*
X155072171Y-119507000D01*
X154997533Y-119514351D01*
X154901775Y-119543399D01*
X154813523Y-119590571D01*
X154736170Y-119654052D01*
X154720263Y-119673435D01*
X152655429Y-121738269D01*
X152636052Y-121754171D01*
X152620150Y-121773548D01*
X152620149Y-121773549D01*
X152572570Y-121831524D01*
X152531257Y-121908816D01*
X152477134Y-121842866D01*
X152297303Y-121695283D01*
X152092136Y-121585619D01*
X151869516Y-121518088D01*
X151723752Y-121503732D01*
X151062245Y-120842225D01*
X151046338Y-120822842D01*
X150968985Y-120759361D01*
X150880733Y-120712189D01*
X150784975Y-120683141D01*
X150710337Y-120675790D01*
X150710334Y-120675790D01*
X150685390Y-120673333D01*
X150660446Y-120675790D01*
X141711721Y-120675790D01*
X136446971Y-115411040D01*
X147706091Y-115411040D01*
X147800930Y-115675881D01*
X147945615Y-115917131D01*
X148134586Y-116125519D01*
X148360580Y-116293037D01*
X148614913Y-116413246D01*
X148748961Y-116453904D01*
X148971000Y-116331915D01*
X148971000Y-115189000D01*
X149225000Y-115189000D01*
X149225000Y-116331915D01*
X149447039Y-116453904D01*
X149581087Y-116413246D01*
X149835420Y-116293037D01*
X150061414Y-116125519D01*
X150250385Y-115917131D01*
X150368000Y-115721018D01*
X150485615Y-115917131D01*
X150674586Y-116125519D01*
X150900580Y-116293037D01*
X151154913Y-116413246D01*
X151288961Y-116453904D01*
X151511000Y-116331915D01*
X151511000Y-115189000D01*
X151765000Y-115189000D01*
X151765000Y-116331915D01*
X151987039Y-116453904D01*
X152121087Y-116413246D01*
X152375420Y-116293037D01*
X152601414Y-116125519D01*
X152790385Y-115917131D01*
X152908000Y-115721018D01*
X153025615Y-115917131D01*
X153214586Y-116125519D01*
X153440580Y-116293037D01*
X153694913Y-116413246D01*
X153828961Y-116453904D01*
X154051000Y-116331915D01*
X154051000Y-115189000D01*
X154305000Y-115189000D01*
X154305000Y-116331915D01*
X154527039Y-116453904D01*
X154661087Y-116413246D01*
X154915420Y-116293037D01*
X155141414Y-116125519D01*
X155330385Y-115917131D01*
X155475070Y-115675881D01*
X155569909Y-115411040D01*
X155448624Y-115189000D01*
X154305000Y-115189000D01*
X154051000Y-115189000D01*
X151765000Y-115189000D01*
X151511000Y-115189000D01*
X149225000Y-115189000D01*
X148971000Y-115189000D01*
X147827376Y-115189000D01*
X147706091Y-115411040D01*
X136446971Y-115411040D01*
X135748891Y-114712960D01*
X147706091Y-114712960D01*
X147827376Y-114935000D01*
X148971000Y-114935000D01*
X148971000Y-113792085D01*
X149225000Y-113792085D01*
X149225000Y-114935000D01*
X151511000Y-114935000D01*
X151511000Y-113792085D01*
X151765000Y-113792085D01*
X151765000Y-114935000D01*
X154051000Y-114935000D01*
X154051000Y-113792085D01*
X154305000Y-113792085D01*
X154305000Y-114935000D01*
X155448624Y-114935000D01*
X155569909Y-114712960D01*
X155475070Y-114448119D01*
X155330385Y-114206869D01*
X155141414Y-113998481D01*
X154915420Y-113830963D01*
X154661087Y-113710754D01*
X154527039Y-113670096D01*
X154305000Y-113792085D01*
X154051000Y-113792085D01*
X153828961Y-113670096D01*
X153694913Y-113710754D01*
X153440580Y-113830963D01*
X153214586Y-113998481D01*
X153025615Y-114206869D01*
X152908000Y-114402982D01*
X152790385Y-114206869D01*
X152601414Y-113998481D01*
X152375420Y-113830963D01*
X152121087Y-113710754D01*
X151987039Y-113670096D01*
X151765000Y-113792085D01*
X151511000Y-113792085D01*
X151288961Y-113670096D01*
X151154913Y-113710754D01*
X150900580Y-113830963D01*
X150674586Y-113998481D01*
X150485615Y-114206869D01*
X150368000Y-114402982D01*
X150250385Y-114206869D01*
X150061414Y-113998481D01*
X149835420Y-113830963D01*
X149581087Y-113710754D01*
X149447039Y-113670096D01*
X149225000Y-113792085D01*
X148971000Y-113792085D01*
X148748961Y-113670096D01*
X148614913Y-113710754D01*
X148360580Y-113830963D01*
X148134586Y-113998481D01*
X147945615Y-114206869D01*
X147800930Y-114448119D01*
X147706091Y-114712960D01*
X135748891Y-114712960D01*
X132856808Y-111820877D01*
X133060909Y-111758963D01*
X133257390Y-111653942D01*
X133429607Y-111512607D01*
X133570942Y-111340390D01*
X133675963Y-111143909D01*
X133740635Y-110930715D01*
X133757000Y-110764558D01*
X133757000Y-109153443D01*
X134035000Y-109153443D01*
X134035000Y-110764558D01*
X134051365Y-110930715D01*
X134116038Y-111143909D01*
X134221059Y-111340390D01*
X134362394Y-111512607D01*
X134534611Y-111653942D01*
X134731092Y-111758963D01*
X134944286Y-111823635D01*
X135166000Y-111845472D01*
X135387715Y-111823635D01*
X135600909Y-111758963D01*
X135797390Y-111653942D01*
X135969607Y-111512607D01*
X136110942Y-111340390D01*
X136215963Y-111143909D01*
X136280635Y-110930715D01*
X136297000Y-110764558D01*
X136297000Y-109153442D01*
X136280635Y-108987285D01*
X136215963Y-108774091D01*
X136110942Y-108577610D01*
X135969607Y-108405393D01*
X135797390Y-108264058D01*
X135600908Y-108159037D01*
X135387714Y-108094365D01*
X135166000Y-108072528D01*
X134944285Y-108094365D01*
X134731091Y-108159037D01*
X134534610Y-108264058D01*
X134362393Y-108405393D01*
X134221058Y-108577610D01*
X134116037Y-108774092D01*
X134051365Y-108987286D01*
X134035000Y-109153443D01*
X133757000Y-109153443D01*
X133757000Y-109153442D01*
X133740635Y-108987285D01*
X133675963Y-108774091D01*
X133570942Y-108577610D01*
X133429607Y-108405393D01*
X133257390Y-108264058D01*
X133060908Y-108159037D01*
X132847714Y-108094365D01*
X132626000Y-108072528D01*
X132404285Y-108094365D01*
X132191091Y-108159037D01*
X131994610Y-108264058D01*
X131822393Y-108405393D01*
X131722284Y-108527375D01*
X130097990Y-106903081D01*
X130097990Y-105433021D01*
X130286092Y-105533563D01*
X130499286Y-105598235D01*
X130721000Y-105620072D01*
X130942715Y-105598235D01*
X131155909Y-105533563D01*
X131352390Y-105428542D01*
X131524607Y-105287207D01*
X131665942Y-105114990D01*
X131770963Y-104918509D01*
X131835635Y-104705315D01*
X131852000Y-104539158D01*
X131852000Y-102928043D01*
X132130000Y-102928043D01*
X132130000Y-104539158D01*
X132146365Y-104705315D01*
X132211038Y-104918509D01*
X132316059Y-105114990D01*
X132457394Y-105287207D01*
X132629611Y-105428542D01*
X132826092Y-105533563D01*
X133039286Y-105598235D01*
X133261000Y-105620072D01*
X133482715Y-105598235D01*
X133695909Y-105533563D01*
X133892390Y-105428542D01*
X134064607Y-105287207D01*
X134205942Y-105114990D01*
X134310963Y-104918509D01*
X134375635Y-104705315D01*
X134392000Y-104539158D01*
X134392000Y-102928043D01*
X134670000Y-102928043D01*
X134670000Y-104539158D01*
X134686365Y-104705315D01*
X134751038Y-104918509D01*
X134856059Y-105114990D01*
X134997394Y-105287207D01*
X135169611Y-105428542D01*
X135366092Y-105533563D01*
X135579286Y-105598235D01*
X135801000Y-105620072D01*
X136022715Y-105598235D01*
X136235909Y-105533563D01*
X136432390Y-105428542D01*
X136604607Y-105287207D01*
X136745942Y-105114990D01*
X136850963Y-104918509D01*
X136915635Y-104705315D01*
X136932000Y-104539158D01*
X136932000Y-102928043D01*
X137210000Y-102928043D01*
X137210000Y-104539158D01*
X137226365Y-104705315D01*
X137291038Y-104918509D01*
X137396059Y-105114990D01*
X137537394Y-105287207D01*
X137709611Y-105428542D01*
X137906092Y-105533563D01*
X138119286Y-105598235D01*
X138341000Y-105620072D01*
X138562715Y-105598235D01*
X138775909Y-105533563D01*
X138972390Y-105428542D01*
X139144607Y-105287207D01*
X139285942Y-105114990D01*
X139390963Y-104918509D01*
X139455635Y-104705315D01*
X139472000Y-104539158D01*
X139472000Y-102928042D01*
X139455635Y-102761885D01*
X139390963Y-102548691D01*
X139285942Y-102352210D01*
X139144607Y-102179993D01*
X138972390Y-102038658D01*
X138775908Y-101933637D01*
X138562714Y-101868965D01*
X138341000Y-101847128D01*
X138119285Y-101868965D01*
X137906091Y-101933637D01*
X137709610Y-102038658D01*
X137537393Y-102179993D01*
X137396058Y-102352210D01*
X137291037Y-102548692D01*
X137226365Y-102761886D01*
X137210000Y-102928043D01*
X136932000Y-102928043D01*
X136932000Y-102928042D01*
X136915635Y-102761885D01*
X136850963Y-102548691D01*
X136745942Y-102352210D01*
X136604607Y-102179993D01*
X136432390Y-102038658D01*
X136235908Y-101933637D01*
X136022714Y-101868965D01*
X135801000Y-101847128D01*
X135579285Y-101868965D01*
X135366091Y-101933637D01*
X135169610Y-102038658D01*
X134997393Y-102179993D01*
X134856058Y-102352210D01*
X134751037Y-102548692D01*
X134686365Y-102761886D01*
X134670000Y-102928043D01*
X134392000Y-102928043D01*
X134392000Y-102928042D01*
X134375635Y-102761885D01*
X134310963Y-102548691D01*
X134205942Y-102352210D01*
X134064607Y-102179993D01*
X133892390Y-102038658D01*
X133695908Y-101933637D01*
X133482714Y-101868965D01*
X133261000Y-101847128D01*
X133039285Y-101868965D01*
X132826091Y-101933637D01*
X132629610Y-102038658D01*
X132457393Y-102179993D01*
X132316058Y-102352210D01*
X132211037Y-102548692D01*
X132146365Y-102761886D01*
X132130000Y-102928043D01*
X131852000Y-102928043D01*
X131852000Y-102928042D01*
X131835635Y-102761885D01*
X131770963Y-102548691D01*
X131665942Y-102352210D01*
X131524607Y-102179993D01*
X131352390Y-102038658D01*
X131155908Y-101933637D01*
X130942714Y-101868965D01*
X130721000Y-101847128D01*
X130499285Y-101868965D01*
X130286091Y-101933637D01*
X130089610Y-102038658D01*
X129917393Y-102179993D01*
X129874581Y-102232160D01*
X126149000Y-98506580D01*
X126149000Y-94163442D01*
X128955000Y-94163442D01*
X128955000Y-95774557D01*
X128971365Y-95940714D01*
X129036037Y-96153908D01*
X129141058Y-96350390D01*
X129282393Y-96522607D01*
X129454610Y-96663942D01*
X129651091Y-96768963D01*
X129864285Y-96833635D01*
X130086000Y-96855472D01*
X130307714Y-96833635D01*
X130520908Y-96768963D01*
X130717390Y-96663942D01*
X130889607Y-96522607D01*
X131030942Y-96350390D01*
X131135963Y-96153909D01*
X131200635Y-95940715D01*
X131217000Y-95774558D01*
X131217000Y-94163442D01*
X131495000Y-94163442D01*
X131495000Y-95774557D01*
X131511365Y-95940714D01*
X131576037Y-96153908D01*
X131681058Y-96350390D01*
X131822393Y-96522607D01*
X131994610Y-96663942D01*
X132191091Y-96768963D01*
X132404285Y-96833635D01*
X132626000Y-96855472D01*
X132847714Y-96833635D01*
X133060908Y-96768963D01*
X133257390Y-96663942D01*
X133429607Y-96522607D01*
X133570942Y-96350390D01*
X133675963Y-96153909D01*
X133740635Y-95940715D01*
X133757000Y-95774558D01*
X133757000Y-94163442D01*
X134035000Y-94163442D01*
X134035000Y-95774557D01*
X134051365Y-95940714D01*
X134116037Y-96153908D01*
X134221058Y-96350390D01*
X134362393Y-96522607D01*
X134534610Y-96663942D01*
X134731091Y-96768963D01*
X134944285Y-96833635D01*
X135166000Y-96855472D01*
X135387714Y-96833635D01*
X135600908Y-96768963D01*
X135797390Y-96663942D01*
X135969607Y-96522607D01*
X136110942Y-96350390D01*
X136215963Y-96153909D01*
X136280635Y-95940715D01*
X136297000Y-95774558D01*
X136297000Y-94163442D01*
X136280635Y-93997285D01*
X136215963Y-93784091D01*
X136110942Y-93587610D01*
X135969607Y-93415393D01*
X135797390Y-93274058D01*
X135600909Y-93169037D01*
X135387715Y-93104365D01*
X135166000Y-93082528D01*
X134944286Y-93104365D01*
X134731092Y-93169037D01*
X134534611Y-93274058D01*
X134362394Y-93415393D01*
X134221059Y-93587610D01*
X134116038Y-93784091D01*
X134051365Y-93997285D01*
X134035000Y-94163442D01*
X133757000Y-94163442D01*
X133740635Y-93997285D01*
X133675963Y-93784091D01*
X133570942Y-93587610D01*
X133429607Y-93415393D01*
X133257390Y-93274058D01*
X133060909Y-93169037D01*
X132847715Y-93104365D01*
X132626000Y-93082528D01*
X132404286Y-93104365D01*
X132191092Y-93169037D01*
X131994611Y-93274058D01*
X131822394Y-93415393D01*
X131681059Y-93587610D01*
X131576038Y-93784091D01*
X131511365Y-93997285D01*
X131495000Y-94163442D01*
X131217000Y-94163442D01*
X131200635Y-93997285D01*
X131135963Y-93784091D01*
X131030942Y-93587610D01*
X130889607Y-93415393D01*
X130717390Y-93274058D01*
X130520909Y-93169037D01*
X130307715Y-93104365D01*
X130086000Y-93082528D01*
X129864286Y-93104365D01*
X129651092Y-93169037D01*
X129454611Y-93274058D01*
X129282394Y-93415393D01*
X129141059Y-93587610D01*
X129036038Y-93784091D01*
X128971365Y-93997285D01*
X128955000Y-94163442D01*
X126149000Y-94163442D01*
X126149000Y-90254495D01*
X126272390Y-90188542D01*
X126444607Y-90047207D01*
X126585942Y-89874990D01*
X126690963Y-89678509D01*
X126755635Y-89465315D01*
X126772000Y-89299158D01*
X126772000Y-87688043D01*
X127050000Y-87688043D01*
X127050000Y-89299158D01*
X127066365Y-89465315D01*
X127131038Y-89678509D01*
X127236059Y-89874990D01*
X127377394Y-90047207D01*
X127549611Y-90188542D01*
X127746092Y-90293563D01*
X127959286Y-90358235D01*
X128181000Y-90380072D01*
X128402715Y-90358235D01*
X128615909Y-90293563D01*
X128812390Y-90188542D01*
X128984607Y-90047207D01*
X129125942Y-89874990D01*
X129230963Y-89678509D01*
X129295635Y-89465315D01*
X129312000Y-89299158D01*
X129312000Y-87688043D01*
X129590000Y-87688043D01*
X129590000Y-89299158D01*
X129606365Y-89465315D01*
X129671038Y-89678509D01*
X129776059Y-89874990D01*
X129917394Y-90047207D01*
X130089611Y-90188542D01*
X130286092Y-90293563D01*
X130499286Y-90358235D01*
X130721000Y-90380072D01*
X130942715Y-90358235D01*
X131155909Y-90293563D01*
X131352390Y-90188542D01*
X131524607Y-90047207D01*
X131665942Y-89874990D01*
X131770963Y-89678509D01*
X131835635Y-89465315D01*
X131852000Y-89299158D01*
X131852000Y-87688043D01*
X132130000Y-87688043D01*
X132130000Y-89299158D01*
X132146365Y-89465315D01*
X132211038Y-89678509D01*
X132316059Y-89874990D01*
X132457394Y-90047207D01*
X132629611Y-90188542D01*
X132826092Y-90293563D01*
X133039286Y-90358235D01*
X133261000Y-90380072D01*
X133482715Y-90358235D01*
X133695909Y-90293563D01*
X133892390Y-90188542D01*
X134064607Y-90047207D01*
X134205942Y-89874990D01*
X134310963Y-89678509D01*
X134375635Y-89465315D01*
X134392000Y-89299158D01*
X134392000Y-87688042D01*
X134375635Y-87521885D01*
X134335021Y-87387999D01*
X135618449Y-86104571D01*
X136721609Y-86104571D01*
X136156601Y-86669579D01*
X136022714Y-86628965D01*
X135801000Y-86607128D01*
X135579285Y-86628965D01*
X135366091Y-86693637D01*
X135169610Y-86798658D01*
X134997393Y-86939993D01*
X134856058Y-87112210D01*
X134751037Y-87308692D01*
X134686365Y-87521886D01*
X134670000Y-87688043D01*
X134670000Y-89299158D01*
X134686365Y-89465315D01*
X134751038Y-89678509D01*
X134856059Y-89874990D01*
X134997394Y-90047207D01*
X135169611Y-90188542D01*
X135366092Y-90293563D01*
X135579286Y-90358235D01*
X135801000Y-90380072D01*
X136022715Y-90358235D01*
X136235909Y-90293563D01*
X136432390Y-90188542D01*
X136604607Y-90047207D01*
X136745942Y-89874990D01*
X136850963Y-89678509D01*
X136915635Y-89465315D01*
X136932000Y-89299158D01*
X136932000Y-87688042D01*
X136915635Y-87521885D01*
X136875021Y-87387999D01*
X137650439Y-86612581D01*
X138285635Y-86612581D01*
X138119285Y-86628965D01*
X137906091Y-86693637D01*
X137709610Y-86798658D01*
X137537393Y-86939993D01*
X137396058Y-87112210D01*
X137291037Y-87308692D01*
X137226365Y-87521886D01*
X137210000Y-87688043D01*
X137210000Y-89299158D01*
X137226365Y-89465315D01*
X137291038Y-89678509D01*
X137396059Y-89874990D01*
X137537394Y-90047207D01*
X137709611Y-90188542D01*
X137906092Y-90293563D01*
X138119286Y-90358235D01*
X138341000Y-90380072D01*
X138562715Y-90358235D01*
X138775909Y-90293563D01*
X138964011Y-90193021D01*
X138964011Y-92242568D01*
X138061601Y-93144979D01*
X137927715Y-93104365D01*
X137706000Y-93082528D01*
X137484286Y-93104365D01*
X137271092Y-93169037D01*
X137074611Y-93274058D01*
X136902394Y-93415393D01*
X136761059Y-93587610D01*
X136656038Y-93784091D01*
X136591365Y-93997285D01*
X136575000Y-94163442D01*
X136575000Y-95774557D01*
X136591365Y-95940714D01*
X136656037Y-96153908D01*
X136761058Y-96350390D01*
X136902393Y-96522607D01*
X137074610Y-96663942D01*
X137271091Y-96768963D01*
X137484285Y-96833635D01*
X137706000Y-96855472D01*
X137927714Y-96833635D01*
X138140908Y-96768963D01*
X138337390Y-96663942D01*
X138509607Y-96522607D01*
X138650942Y-96350390D01*
X138755963Y-96153909D01*
X138820635Y-95940715D01*
X138837000Y-95774558D01*
X138837000Y-94163443D01*
X139115000Y-94163443D01*
X139115000Y-95774558D01*
X139131365Y-95940715D01*
X139196038Y-96153909D01*
X139301059Y-96350390D01*
X139442394Y-96522607D01*
X139614611Y-96663942D01*
X139811092Y-96768963D01*
X140024286Y-96833635D01*
X140246000Y-96855472D01*
X140467715Y-96833635D01*
X140680909Y-96768963D01*
X140877390Y-96663942D01*
X141049607Y-96522607D01*
X141190942Y-96350390D01*
X141295963Y-96153909D01*
X141360635Y-95940715D01*
X141377000Y-95774558D01*
X141377000Y-94163442D01*
X141360635Y-93997285D01*
X141295963Y-93784091D01*
X141190942Y-93587610D01*
X141049607Y-93415393D01*
X140877390Y-93274058D01*
X140680908Y-93169037D01*
X140467714Y-93104365D01*
X140246000Y-93082528D01*
X140024285Y-93104365D01*
X139811091Y-93169037D01*
X139614610Y-93274058D01*
X139442393Y-93415393D01*
X139301058Y-93587610D01*
X139196037Y-93784092D01*
X139131365Y-93997286D01*
X139115000Y-94163443D01*
X138837000Y-94163443D01*
X138837000Y-94163442D01*
X138820635Y-93997285D01*
X138780021Y-93863399D01*
X139813581Y-92829840D01*
X139832958Y-92813938D01*
X139870214Y-92768541D01*
X139896439Y-92736586D01*
X139943610Y-92648335D01*
X139944949Y-92643921D01*
X139972659Y-92552575D01*
X139980010Y-92477937D01*
X139980010Y-92477935D01*
X139982467Y-92452991D01*
X139980010Y-92428047D01*
X139980010Y-89928544D01*
X140077394Y-90047207D01*
X140249611Y-90188542D01*
X140375001Y-90255564D01*
X140375001Y-91261444D01*
X140372553Y-91286300D01*
X140382322Y-91385492D01*
X140411255Y-91480874D01*
X140411256Y-91480875D01*
X140458242Y-91568779D01*
X140521474Y-91645827D01*
X140540781Y-91661672D01*
X142153817Y-93274709D01*
X141982394Y-93415393D01*
X141841059Y-93587610D01*
X141736038Y-93784091D01*
X141671365Y-93997285D01*
X141655000Y-94163442D01*
X141655000Y-95774557D01*
X141671365Y-95940714D01*
X141736037Y-96153908D01*
X141841058Y-96350390D01*
X141982393Y-96522607D01*
X142154610Y-96663942D01*
X142351091Y-96768963D01*
X142564285Y-96833635D01*
X142786000Y-96855472D01*
X143007714Y-96833635D01*
X143220908Y-96768963D01*
X143417390Y-96663942D01*
X143589607Y-96522607D01*
X143730942Y-96350390D01*
X143835963Y-96153909D01*
X143900635Y-95940715D01*
X143917000Y-95774558D01*
X143917000Y-94163442D01*
X144195000Y-94163442D01*
X144195000Y-95774557D01*
X144211365Y-95940714D01*
X144276037Y-96153908D01*
X144381058Y-96350390D01*
X144522393Y-96522607D01*
X144694610Y-96663942D01*
X144891091Y-96768963D01*
X145104285Y-96833635D01*
X145326000Y-96855472D01*
X145547714Y-96833635D01*
X145760908Y-96768963D01*
X145957390Y-96663942D01*
X146129607Y-96522607D01*
X146270942Y-96350390D01*
X146375963Y-96153909D01*
X146440635Y-95940715D01*
X146457000Y-95774558D01*
X146457000Y-94163442D01*
X146440635Y-93997285D01*
X146375963Y-93784091D01*
X146270942Y-93587610D01*
X146129607Y-93415393D01*
X145957390Y-93274058D01*
X145760909Y-93169037D01*
X145547715Y-93104365D01*
X145326000Y-93082528D01*
X145104286Y-93104365D01*
X144891092Y-93169037D01*
X144694611Y-93274058D01*
X144522394Y-93415393D01*
X144381059Y-93587610D01*
X144276038Y-93784091D01*
X144211365Y-93997285D01*
X144195000Y-94163442D01*
X143917000Y-94163442D01*
X143900635Y-93997285D01*
X143835963Y-93784091D01*
X143730942Y-93587610D01*
X143589607Y-93415393D01*
X143417390Y-93274058D01*
X143292853Y-93207492D01*
X143294448Y-93191300D01*
X143284678Y-93092107D01*
X143255745Y-92996725D01*
X143208759Y-92908821D01*
X143145527Y-92831773D01*
X143126220Y-92815928D01*
X141387000Y-91076709D01*
X141387000Y-90255564D01*
X141512390Y-90188542D01*
X141684607Y-90047207D01*
X141825942Y-89874990D01*
X141930963Y-89678509D01*
X141995635Y-89465315D01*
X142012000Y-89299158D01*
X142012000Y-87688042D01*
X141995635Y-87521885D01*
X141930963Y-87308691D01*
X141830421Y-87120590D01*
X142471579Y-87120590D01*
X142371037Y-87308692D01*
X142306365Y-87521886D01*
X142290000Y-87688043D01*
X142290000Y-89299158D01*
X142306365Y-89465315D01*
X142371038Y-89678509D01*
X142476059Y-89874990D01*
X142617394Y-90047207D01*
X142789611Y-90188542D01*
X142986092Y-90293563D01*
X143199286Y-90358235D01*
X143421000Y-90380072D01*
X143642715Y-90358235D01*
X143855909Y-90293563D01*
X144052390Y-90188542D01*
X144224607Y-90047207D01*
X144365942Y-89874990D01*
X144470963Y-89678509D01*
X144535635Y-89465315D01*
X144552000Y-89299158D01*
X144552000Y-87688042D01*
X144535635Y-87521885D01*
X144470963Y-87308691D01*
X144370421Y-87120590D01*
X144619570Y-87120590D01*
X144886979Y-87387999D01*
X144846365Y-87521886D01*
X144830000Y-87688043D01*
X144830000Y-89299158D01*
X144846365Y-89465315D01*
X144911038Y-89678509D01*
X145016059Y-89874990D01*
X145157394Y-90047207D01*
X145329611Y-90188542D01*
X145526092Y-90293563D01*
X145739286Y-90358235D01*
X145961000Y-90380072D01*
X146182715Y-90358235D01*
X146395909Y-90293563D01*
X146592390Y-90188542D01*
X146764607Y-90047207D01*
X146861990Y-89928545D01*
X146861991Y-92694036D01*
X146859533Y-92718990D01*
X146869342Y-92818574D01*
X146898390Y-92914333D01*
X146945561Y-93002585D01*
X146972488Y-93035395D01*
X147009043Y-93079938D01*
X147028420Y-93095840D01*
X147219247Y-93286667D01*
X147062394Y-93415393D01*
X146921059Y-93587610D01*
X146816038Y-93784091D01*
X146751365Y-93997285D01*
X146735000Y-94163442D01*
X146735000Y-95774557D01*
X146751365Y-95940714D01*
X146816037Y-96153908D01*
X146921058Y-96350390D01*
X147062393Y-96522607D01*
X147234610Y-96663942D01*
X147357215Y-96729475D01*
X141784716Y-102301975D01*
X141684607Y-102179993D01*
X141512390Y-102038658D01*
X141315908Y-101933637D01*
X141102714Y-101868965D01*
X140881000Y-101847128D01*
X140659285Y-101868965D01*
X140446091Y-101933637D01*
X140249610Y-102038658D01*
X140077393Y-102179993D01*
X139936058Y-102352210D01*
X139831037Y-102548692D01*
X139766365Y-102761886D01*
X139750000Y-102928043D01*
X139750000Y-104539158D01*
X139766365Y-104705315D01*
X139831038Y-104918509D01*
X139936059Y-105114990D01*
X140077394Y-105287207D01*
X140249611Y-105428542D01*
X140446092Y-105533563D01*
X140659286Y-105598235D01*
X140881000Y-105620072D01*
X141102715Y-105598235D01*
X141315909Y-105533563D01*
X141504011Y-105433021D01*
X141504011Y-105442568D01*
X139249580Y-107697000D01*
X138734943Y-107697000D01*
X138709999Y-107694543D01*
X138685055Y-107697000D01*
X138685053Y-107697000D01*
X138610415Y-107704351D01*
X138514657Y-107733399D01*
X138514655Y-107733400D01*
X138426404Y-107780571D01*
X138381193Y-107817675D01*
X138349052Y-107844052D01*
X138333150Y-107863429D01*
X138061600Y-108134979D01*
X137927714Y-108094365D01*
X137706000Y-108072528D01*
X137484285Y-108094365D01*
X137271091Y-108159037D01*
X137074610Y-108264058D01*
X136902393Y-108405393D01*
X136761058Y-108577610D01*
X136656037Y-108774092D01*
X136591365Y-108987286D01*
X136575000Y-109153443D01*
X136575000Y-110764558D01*
X136591365Y-110930715D01*
X136656038Y-111143909D01*
X136761059Y-111340390D01*
X136902394Y-111512607D01*
X137074611Y-111653942D01*
X137271092Y-111758963D01*
X137484286Y-111823635D01*
X137706000Y-111845472D01*
X137927715Y-111823635D01*
X138140909Y-111758963D01*
X138337390Y-111653942D01*
X138509607Y-111512607D01*
X138650942Y-111340390D01*
X138755963Y-111143909D01*
X138820635Y-110930715D01*
X138837000Y-110764558D01*
X138837000Y-109153442D01*
X138820635Y-108987285D01*
X138780021Y-108853400D01*
X138920421Y-108713000D01*
X139228691Y-108713000D01*
X139196037Y-108774092D01*
X139131365Y-108987286D01*
X139115000Y-109153443D01*
X139115000Y-110764558D01*
X139131365Y-110930715D01*
X139196038Y-111143909D01*
X139301059Y-111340390D01*
X139442394Y-111512607D01*
X139614611Y-111653942D01*
X139811092Y-111758963D01*
X140024286Y-111823635D01*
X140246000Y-111845472D01*
X140467715Y-111823635D01*
X140680909Y-111758963D01*
X140877390Y-111653942D01*
X141049607Y-111512607D01*
X141190942Y-111340390D01*
X141295963Y-111143909D01*
X141360635Y-110930715D01*
X141377000Y-110764558D01*
X141377000Y-109153443D01*
X141655000Y-109153443D01*
X141655000Y-110764558D01*
X141671365Y-110930715D01*
X141736038Y-111143909D01*
X141841059Y-111340390D01*
X141982394Y-111512607D01*
X142154611Y-111653942D01*
X142351092Y-111758963D01*
X142564286Y-111823635D01*
X142786000Y-111845472D01*
X143007715Y-111823635D01*
X143220909Y-111758963D01*
X143417390Y-111653942D01*
X143589607Y-111512607D01*
X143730942Y-111340390D01*
X143835963Y-111143909D01*
X143900635Y-110930715D01*
X143917000Y-110764558D01*
X143917000Y-109153443D01*
X144195000Y-109153443D01*
X144195000Y-110764558D01*
X144211365Y-110930715D01*
X144276038Y-111143909D01*
X144381059Y-111340390D01*
X144522394Y-111512607D01*
X144694611Y-111653942D01*
X144891092Y-111758963D01*
X145104286Y-111823635D01*
X145326000Y-111845472D01*
X145547715Y-111823635D01*
X145760909Y-111758963D01*
X145957390Y-111653942D01*
X146129607Y-111512607D01*
X146270942Y-111340390D01*
X146375963Y-111143909D01*
X146440635Y-110930715D01*
X146457000Y-110764558D01*
X146457000Y-109153443D01*
X146735000Y-109153443D01*
X146735000Y-110764558D01*
X146751365Y-110930715D01*
X146816038Y-111143909D01*
X146921059Y-111340390D01*
X147062394Y-111512607D01*
X147234611Y-111653942D01*
X147431092Y-111758963D01*
X147644286Y-111823635D01*
X147866000Y-111845472D01*
X148087715Y-111823635D01*
X148300909Y-111758963D01*
X148497390Y-111653942D01*
X148669607Y-111512607D01*
X148810942Y-111340390D01*
X148915963Y-111143909D01*
X148980635Y-110930715D01*
X148997000Y-110764558D01*
X148997000Y-109153443D01*
X149275000Y-109153443D01*
X149275000Y-110764558D01*
X149291365Y-110930715D01*
X149356038Y-111143909D01*
X149461059Y-111340390D01*
X149602394Y-111512607D01*
X149774611Y-111653942D01*
X149971092Y-111758963D01*
X150184286Y-111823635D01*
X150406000Y-111845472D01*
X150627715Y-111823635D01*
X150840909Y-111758963D01*
X151037390Y-111653942D01*
X151209607Y-111512607D01*
X151350942Y-111340390D01*
X151455963Y-111143909D01*
X151520635Y-110930715D01*
X151537000Y-110764558D01*
X151537000Y-109153442D01*
X151520635Y-108987285D01*
X151455963Y-108774091D01*
X151350942Y-108577610D01*
X151209607Y-108405393D01*
X151037390Y-108264058D01*
X150840908Y-108159037D01*
X150627714Y-108094365D01*
X150406000Y-108072528D01*
X150184285Y-108094365D01*
X149971091Y-108159037D01*
X149774610Y-108264058D01*
X149602393Y-108405393D01*
X149461058Y-108577610D01*
X149356037Y-108774092D01*
X149291365Y-108987286D01*
X149275000Y-109153443D01*
X148997000Y-109153443D01*
X148997000Y-109153442D01*
X148980635Y-108987285D01*
X148915963Y-108774091D01*
X148810942Y-108577610D01*
X148669607Y-108405393D01*
X148497390Y-108264058D01*
X148300908Y-108159037D01*
X148087714Y-108094365D01*
X147866000Y-108072528D01*
X147644285Y-108094365D01*
X147431091Y-108159037D01*
X147234610Y-108264058D01*
X147062393Y-108405393D01*
X146921058Y-108577610D01*
X146816037Y-108774092D01*
X146751365Y-108987286D01*
X146735000Y-109153443D01*
X146457000Y-109153443D01*
X146457000Y-109153442D01*
X146440635Y-108987285D01*
X146375963Y-108774091D01*
X146270942Y-108577610D01*
X146129607Y-108405393D01*
X145957390Y-108264058D01*
X145760908Y-108159037D01*
X145547714Y-108094365D01*
X145326000Y-108072528D01*
X145104285Y-108094365D01*
X144891091Y-108159037D01*
X144694610Y-108264058D01*
X144522393Y-108405393D01*
X144381058Y-108577610D01*
X144276037Y-108774092D01*
X144211365Y-108987286D01*
X144195000Y-109153443D01*
X143917000Y-109153443D01*
X143917000Y-109153442D01*
X143900635Y-108987285D01*
X143835963Y-108774091D01*
X143730942Y-108577610D01*
X143589607Y-108405393D01*
X143417390Y-108264058D01*
X143220908Y-108159037D01*
X143007714Y-108094365D01*
X142786000Y-108072528D01*
X142564285Y-108094365D01*
X142351091Y-108159037D01*
X142154610Y-108264058D01*
X141982393Y-108405393D01*
X141841058Y-108577610D01*
X141736037Y-108774092D01*
X141671365Y-108987286D01*
X141655000Y-109153443D01*
X141377000Y-109153443D01*
X141377000Y-109153442D01*
X141360635Y-108987285D01*
X141358075Y-108978845D01*
X145108856Y-105228064D01*
X145157394Y-105287207D01*
X145329611Y-105428542D01*
X145526092Y-105533563D01*
X145739286Y-105598235D01*
X145961000Y-105620072D01*
X146182715Y-105598235D01*
X146395909Y-105533563D01*
X146592390Y-105428542D01*
X146764607Y-105287207D01*
X146905942Y-105114990D01*
X147010963Y-104918509D01*
X147075635Y-104705315D01*
X147092000Y-104539158D01*
X147092000Y-102928043D01*
X147370000Y-102928043D01*
X147370000Y-104539158D01*
X147386365Y-104705315D01*
X147451038Y-104918509D01*
X147556059Y-105114990D01*
X147697394Y-105287207D01*
X147869611Y-105428542D01*
X148066092Y-105533563D01*
X148279286Y-105598235D01*
X148501000Y-105620072D01*
X148722715Y-105598235D01*
X148935909Y-105533563D01*
X149132390Y-105428542D01*
X149304607Y-105287207D01*
X149445942Y-105114990D01*
X149550963Y-104918509D01*
X149615635Y-104705315D01*
X149632000Y-104539158D01*
X149632000Y-102928043D01*
X149910000Y-102928043D01*
X149910000Y-104539158D01*
X149926365Y-104705315D01*
X149991038Y-104918509D01*
X150096059Y-105114990D01*
X150237394Y-105287207D01*
X150409611Y-105428542D01*
X150606092Y-105533563D01*
X150819286Y-105598235D01*
X151041000Y-105620072D01*
X151262715Y-105598235D01*
X151475909Y-105533563D01*
X151672390Y-105428542D01*
X151844607Y-105287207D01*
X151985942Y-105114990D01*
X152090963Y-104918509D01*
X152155635Y-104705315D01*
X152172000Y-104539158D01*
X152172000Y-103860600D01*
X152196000Y-103860600D01*
X152196000Y-104610600D01*
X152247389Y-104878360D01*
X152350028Y-105130949D01*
X152499972Y-105358661D01*
X152691460Y-105552745D01*
X152917132Y-105705742D01*
X153168316Y-105811773D01*
X153239815Y-105825918D01*
X153454000Y-105703256D01*
X153454000Y-103860600D01*
X153708000Y-103860600D01*
X153708000Y-105703256D01*
X153922185Y-105825918D01*
X153993684Y-105811773D01*
X154244868Y-105705742D01*
X154470540Y-105552745D01*
X154662028Y-105358661D01*
X154811972Y-105130949D01*
X154914611Y-104878360D01*
X154966000Y-104610600D01*
X154966000Y-103860600D01*
X153708000Y-103860600D01*
X153454000Y-103860600D01*
X152196000Y-103860600D01*
X152172000Y-103860600D01*
X152172000Y-102928042D01*
X152164964Y-102856600D01*
X152196000Y-102856600D01*
X152196000Y-103606600D01*
X153454000Y-103606600D01*
X153454000Y-101763944D01*
X153708000Y-101763944D01*
X153708000Y-103606600D01*
X154966000Y-103606600D01*
X154966000Y-102856600D01*
X154914611Y-102588840D01*
X154811972Y-102336251D01*
X154662028Y-102108539D01*
X154470540Y-101914455D01*
X154244868Y-101761458D01*
X153993684Y-101655427D01*
X153922185Y-101641282D01*
X153708000Y-101763944D01*
X153454000Y-101763944D01*
X153239815Y-101641282D01*
X153168316Y-101655427D01*
X152917132Y-101761458D01*
X152691460Y-101914455D01*
X152499972Y-102108539D01*
X152350028Y-102336251D01*
X152247389Y-102588840D01*
X152196000Y-102856600D01*
X152164964Y-102856600D01*
X152155635Y-102761885D01*
X152090963Y-102548691D01*
X151985942Y-102352210D01*
X151844607Y-102179993D01*
X151672390Y-102038658D01*
X151475908Y-101933637D01*
X151262714Y-101868965D01*
X151041000Y-101847128D01*
X150819285Y-101868965D01*
X150606091Y-101933637D01*
X150409610Y-102038658D01*
X150237393Y-102179993D01*
X150096058Y-102352210D01*
X149991037Y-102548692D01*
X149926365Y-102761886D01*
X149910000Y-102928043D01*
X149632000Y-102928043D01*
X149632000Y-102928042D01*
X149615635Y-102761885D01*
X149550963Y-102548691D01*
X149445942Y-102352210D01*
X149304607Y-102179993D01*
X149132390Y-102038658D01*
X148935908Y-101933637D01*
X148722714Y-101868965D01*
X148501000Y-101847128D01*
X148279285Y-101868965D01*
X148066091Y-101933637D01*
X147869610Y-102038658D01*
X147697393Y-102179993D01*
X147556058Y-102352210D01*
X147451037Y-102548692D01*
X147386365Y-102761886D01*
X147370000Y-102928043D01*
X147092000Y-102928043D01*
X147092000Y-102928042D01*
X147075635Y-102761885D01*
X147010963Y-102548691D01*
X146905942Y-102352210D01*
X146764607Y-102179993D01*
X146592390Y-102038658D01*
X146395908Y-101933637D01*
X146182714Y-101868965D01*
X145961000Y-101847128D01*
X145739285Y-101868965D01*
X145526091Y-101933637D01*
X145337990Y-102034179D01*
X145337990Y-100903975D01*
X148375945Y-97866020D01*
X151481286Y-97866020D01*
X151506230Y-97868477D01*
X151531174Y-97866020D01*
X151531177Y-97866020D01*
X151605815Y-97858669D01*
X151701573Y-97829621D01*
X151789825Y-97782449D01*
X151867178Y-97718968D01*
X151883085Y-97699585D01*
X152002138Y-97580532D01*
X152078916Y-97580532D01*
X152218772Y-97552713D01*
X152350513Y-97498144D01*
X152469078Y-97418922D01*
X152569908Y-97318092D01*
X152649130Y-97199527D01*
X152703699Y-97067786D01*
X152731518Y-96927930D01*
X152731518Y-96834347D01*
X152946000Y-96855472D01*
X153167714Y-96833635D01*
X153380908Y-96768963D01*
X153577390Y-96663942D01*
X153749607Y-96522607D01*
X153890942Y-96350390D01*
X153995963Y-96153909D01*
X154060635Y-95940715D01*
X154077000Y-95774558D01*
X154077000Y-95096000D01*
X154101000Y-95096000D01*
X154101000Y-95846000D01*
X154152389Y-96113760D01*
X154255028Y-96366349D01*
X154404972Y-96594061D01*
X154596460Y-96788145D01*
X154822132Y-96941142D01*
X155073316Y-97047173D01*
X155144815Y-97061318D01*
X155359000Y-96938656D01*
X155359000Y-95096000D01*
X154101000Y-95096000D01*
X154077000Y-95096000D01*
X154077000Y-94163442D01*
X154069964Y-94092000D01*
X154101000Y-94092000D01*
X154101000Y-94842000D01*
X155359000Y-94842000D01*
X155359000Y-92999344D01*
X155144815Y-92876682D01*
X155073316Y-92890827D01*
X154822132Y-92996858D01*
X154596460Y-93149855D01*
X154404972Y-93343939D01*
X154255028Y-93571651D01*
X154152389Y-93824240D01*
X154101000Y-94092000D01*
X154069964Y-94092000D01*
X154060635Y-93997285D01*
X153995963Y-93784091D01*
X153890942Y-93587610D01*
X153749607Y-93415393D01*
X153577390Y-93274058D01*
X153380909Y-93169037D01*
X153167715Y-93104365D01*
X152946000Y-93082528D01*
X152724286Y-93104365D01*
X152680010Y-93117796D01*
X152680010Y-90301140D01*
X152691460Y-90312745D01*
X152917132Y-90465742D01*
X153168316Y-90571773D01*
X153239815Y-90585918D01*
X153454000Y-90463256D01*
X153454000Y-88620600D01*
X153708000Y-88620600D01*
X153708000Y-90463256D01*
X153922185Y-90585918D01*
X153993684Y-90571773D01*
X154244868Y-90465742D01*
X154470540Y-90312745D01*
X154662028Y-90118661D01*
X154811972Y-89890949D01*
X154914611Y-89638360D01*
X154966000Y-89370600D01*
X154966000Y-88620600D01*
X153708000Y-88620600D01*
X153454000Y-88620600D01*
X153434000Y-88620600D01*
X153434000Y-88366600D01*
X153454000Y-88366600D01*
X153454000Y-88346600D01*
X153708000Y-88346600D01*
X153708000Y-88366600D01*
X154966000Y-88366600D01*
X154966000Y-87616600D01*
X154914611Y-87348840D01*
X154821862Y-87120590D01*
X155171579Y-87120590D01*
X155071037Y-87308692D01*
X155006365Y-87521886D01*
X154990000Y-87688043D01*
X154990000Y-89299158D01*
X155006365Y-89465315D01*
X155071038Y-89678509D01*
X155176059Y-89874990D01*
X155317394Y-90047207D01*
X155489611Y-90188542D01*
X155611123Y-90253492D01*
X155620352Y-90347184D01*
X155649400Y-90442943D01*
X155696571Y-90531195D01*
X155729873Y-90571773D01*
X155760053Y-90608548D01*
X155779430Y-90624450D01*
X156109010Y-90954031D01*
X156109010Y-92979611D01*
X155898684Y-92890827D01*
X155827185Y-92876682D01*
X155613000Y-92999344D01*
X155613000Y-94842000D01*
X155633000Y-94842000D01*
X155633000Y-95096000D01*
X155613000Y-95096000D01*
X155613000Y-96938656D01*
X155827185Y-97061318D01*
X155898684Y-97047173D01*
X156109011Y-96958389D01*
X156109011Y-101551699D01*
X156106553Y-101576653D01*
X156114312Y-101655427D01*
X156116362Y-101676238D01*
X156134270Y-101735273D01*
X156145410Y-101771996D01*
X156189156Y-101853841D01*
X156121000Y-101847128D01*
X155899285Y-101868965D01*
X155686091Y-101933637D01*
X155489610Y-102038658D01*
X155317393Y-102179993D01*
X155176058Y-102352210D01*
X155071037Y-102548692D01*
X155006365Y-102761886D01*
X154990000Y-102928043D01*
X154990000Y-104539158D01*
X155006365Y-104705315D01*
X155071038Y-104918509D01*
X155176059Y-105114990D01*
X155317394Y-105287207D01*
X155489611Y-105428542D01*
X155686092Y-105533563D01*
X155899286Y-105598235D01*
X156121000Y-105620072D01*
X156342715Y-105598235D01*
X156555909Y-105533563D01*
X156752390Y-105428542D01*
X156924607Y-105287207D01*
X157021991Y-105168545D01*
X157021991Y-106399752D01*
X156933895Y-106340889D01*
X156802154Y-106286320D01*
X156662298Y-106258501D01*
X156519702Y-106258501D01*
X156379846Y-106286320D01*
X156248105Y-106340889D01*
X156129540Y-106420111D01*
X156075250Y-106474401D01*
X155197543Y-106474401D01*
X155172599Y-106471944D01*
X155147655Y-106474401D01*
X155147652Y-106474401D01*
X155073014Y-106481752D01*
X154977256Y-106510800D01*
X154889004Y-106557972D01*
X154811651Y-106621453D01*
X154795744Y-106640836D01*
X153301601Y-108134979D01*
X153167714Y-108094365D01*
X152946000Y-108072528D01*
X152724285Y-108094365D01*
X152511091Y-108159037D01*
X152314610Y-108264058D01*
X152142393Y-108405393D01*
X152001058Y-108577610D01*
X151896037Y-108774092D01*
X151831365Y-108987286D01*
X151815000Y-109153443D01*
X151815000Y-110764558D01*
X151831365Y-110930715D01*
X151896038Y-111143909D01*
X152001059Y-111340390D01*
X152142394Y-111512607D01*
X152314611Y-111653942D01*
X152511092Y-111758963D01*
X152724286Y-111823635D01*
X152946000Y-111845472D01*
X153167715Y-111823635D01*
X153380909Y-111758963D01*
X153577390Y-111653942D01*
X153749607Y-111512607D01*
X153890942Y-111340390D01*
X153995963Y-111143909D01*
X154060635Y-110930715D01*
X154077000Y-110764558D01*
X154077000Y-110086000D01*
X154101000Y-110086000D01*
X154101000Y-110836000D01*
X154152389Y-111103760D01*
X154255028Y-111356349D01*
X154404972Y-111584061D01*
X154596460Y-111778145D01*
X154822132Y-111931142D01*
X155073316Y-112037173D01*
X155144815Y-112051318D01*
X155359000Y-111928656D01*
X155359000Y-110086000D01*
X155613000Y-110086000D01*
X155613000Y-111928656D01*
X155827185Y-112051318D01*
X155898684Y-112037173D01*
X156149868Y-111931142D01*
X156375540Y-111778145D01*
X156567028Y-111584061D01*
X156716972Y-111356349D01*
X156819611Y-111103760D01*
X156871000Y-110836000D01*
X156871000Y-110086000D01*
X155613000Y-110086000D01*
X155359000Y-110086000D01*
X154101000Y-110086000D01*
X154077000Y-110086000D01*
X154077000Y-109153442D01*
X154060635Y-108987285D01*
X154020021Y-108853399D01*
X154216189Y-108657231D01*
X154152389Y-108814240D01*
X154101000Y-109082000D01*
X154101000Y-109832000D01*
X155359000Y-109832000D01*
X155359000Y-107989344D01*
X155613000Y-107989344D01*
X155613000Y-109832000D01*
X156871000Y-109832000D01*
X156871000Y-109082000D01*
X156819611Y-108814240D01*
X156716972Y-108561651D01*
X156567028Y-108333939D01*
X156375540Y-108139855D01*
X156149868Y-107986858D01*
X155898684Y-107880827D01*
X155827185Y-107866682D01*
X155613000Y-107989344D01*
X155359000Y-107989344D01*
X155144815Y-107866682D01*
X155073316Y-107880827D01*
X154933627Y-107939793D01*
X155383019Y-107490401D01*
X156075250Y-107490401D01*
X156129540Y-107544691D01*
X156248105Y-107623913D01*
X156379846Y-107678482D01*
X156519702Y-107706301D01*
X156662298Y-107706301D01*
X156802154Y-107678482D01*
X156933895Y-107623913D01*
X157021991Y-107565050D01*
X157021991Y-107684036D01*
X157019533Y-107708990D01*
X157026867Y-107783442D01*
X157029342Y-107808575D01*
X157040104Y-107844052D01*
X157058390Y-107904333D01*
X157105561Y-107992585D01*
X157153140Y-108050560D01*
X157169043Y-108069938D01*
X157188420Y-108085840D01*
X157379246Y-108276667D01*
X157222393Y-108405393D01*
X157081058Y-108577610D01*
X156976037Y-108774092D01*
X156911365Y-108987286D01*
X156895000Y-109153443D01*
X156895000Y-110764558D01*
X156911365Y-110930715D01*
X156976038Y-111143909D01*
X157081059Y-111340390D01*
X157222394Y-111512607D01*
X157394611Y-111653942D01*
X157591092Y-111758963D01*
X157804286Y-111823635D01*
X158026000Y-111845472D01*
X158247715Y-111823635D01*
X158460909Y-111758963D01*
X158657390Y-111653942D01*
X158829607Y-111512607D01*
X158958245Y-111355861D01*
X158963390Y-111372822D01*
X159010561Y-111461074D01*
X159041226Y-111498439D01*
X159074043Y-111538427D01*
X159093420Y-111554329D01*
X159720670Y-112181580D01*
X159736573Y-112200958D01*
X159755950Y-112216860D01*
X159813925Y-112264439D01*
X159902176Y-112311610D01*
X159902178Y-112311611D01*
X159997936Y-112340659D01*
X160072574Y-112348010D01*
X160072576Y-112348010D01*
X160097520Y-112350467D01*
X160122464Y-112348010D01*
X174650046Y-112348010D01*
X174674990Y-112350467D01*
X174699934Y-112348010D01*
X174699937Y-112348010D01*
X174774575Y-112340659D01*
X174870333Y-112311611D01*
X174958585Y-112264439D01*
X175035938Y-112200958D01*
X175051845Y-112181575D01*
X175450399Y-111783021D01*
X175584286Y-111823635D01*
X175806000Y-111845472D01*
X176027715Y-111823635D01*
X176240909Y-111758963D01*
X176437390Y-111653942D01*
X176609607Y-111512607D01*
X176750942Y-111340390D01*
X176855963Y-111143909D01*
X176920635Y-110930715D01*
X176937000Y-110764558D01*
X176937000Y-109153443D01*
X177215000Y-109153443D01*
X177215000Y-110764558D01*
X177231365Y-110930715D01*
X177296038Y-111143909D01*
X177401059Y-111340390D01*
X177542394Y-111512607D01*
X177714611Y-111653942D01*
X177911092Y-111758963D01*
X178124286Y-111823635D01*
X178346000Y-111845472D01*
X178567715Y-111823635D01*
X178780909Y-111758963D01*
X178977390Y-111653942D01*
X179149607Y-111512607D01*
X179290942Y-111340390D01*
X179395963Y-111143909D01*
X179460635Y-110930715D01*
X179477000Y-110764558D01*
X179477000Y-109153442D01*
X179460635Y-108987285D01*
X179395963Y-108774091D01*
X179290942Y-108577610D01*
X179149607Y-108405393D01*
X178977390Y-108264058D01*
X178780908Y-108159037D01*
X178567714Y-108094365D01*
X178346000Y-108072528D01*
X178124285Y-108094365D01*
X177911091Y-108159037D01*
X177714610Y-108264058D01*
X177542393Y-108405393D01*
X177401058Y-108577610D01*
X177296037Y-108774092D01*
X177231365Y-108987286D01*
X177215000Y-109153443D01*
X176937000Y-109153443D01*
X176937000Y-109153442D01*
X176920635Y-108987285D01*
X176855963Y-108774091D01*
X176750942Y-108577610D01*
X176609607Y-108405393D01*
X176437390Y-108264058D01*
X176240908Y-108159037D01*
X176027714Y-108094365D01*
X175806000Y-108072528D01*
X175584285Y-108094365D01*
X175371091Y-108159037D01*
X175174610Y-108264058D01*
X175002393Y-108405393D01*
X174861058Y-108577610D01*
X174756037Y-108774092D01*
X174691365Y-108987286D01*
X174675000Y-109153443D01*
X174675000Y-110764558D01*
X174691365Y-110930715D01*
X174731980Y-111064600D01*
X174464570Y-111332010D01*
X174215421Y-111332010D01*
X174315963Y-111143909D01*
X174380635Y-110930715D01*
X174397000Y-110764558D01*
X174397000Y-109153442D01*
X174380635Y-108987285D01*
X174315963Y-108774091D01*
X174210942Y-108577610D01*
X174069607Y-108405393D01*
X173897390Y-108264058D01*
X173700908Y-108159037D01*
X173487714Y-108094365D01*
X173266000Y-108072528D01*
X173044285Y-108094365D01*
X172831091Y-108159037D01*
X172634610Y-108264058D01*
X172462393Y-108405393D01*
X172321058Y-108577610D01*
X172216037Y-108774092D01*
X172151365Y-108987286D01*
X172135000Y-109153443D01*
X172135000Y-110764558D01*
X172151365Y-110930715D01*
X172216038Y-111143909D01*
X172316580Y-111332010D01*
X171675421Y-111332010D01*
X171775963Y-111143909D01*
X171840635Y-110930715D01*
X171857000Y-110764558D01*
X171857000Y-109153442D01*
X171840635Y-108987285D01*
X171775963Y-108774091D01*
X171670942Y-108577610D01*
X171529607Y-108405393D01*
X171357390Y-108264058D01*
X171160908Y-108159037D01*
X170947714Y-108094365D01*
X170726000Y-108072528D01*
X170504285Y-108094365D01*
X170291091Y-108159037D01*
X170094610Y-108264058D01*
X169922393Y-108405393D01*
X169781058Y-108577610D01*
X169676037Y-108774092D01*
X169611365Y-108987286D01*
X169595000Y-109153443D01*
X169595000Y-110764558D01*
X169611365Y-110930715D01*
X169676038Y-111143909D01*
X169776580Y-111332010D01*
X169135421Y-111332010D01*
X169235963Y-111143909D01*
X169300635Y-110930715D01*
X169317000Y-110764558D01*
X169317000Y-109153442D01*
X169300635Y-108987285D01*
X169260021Y-108853399D01*
X170544420Y-107569000D01*
X171298656Y-107569000D01*
X171323600Y-107571457D01*
X171348544Y-107569000D01*
X171348547Y-107569000D01*
X171423185Y-107561649D01*
X171518943Y-107532601D01*
X171607195Y-107485429D01*
X171684548Y-107421948D01*
X171700455Y-107402565D01*
X173545400Y-105557621D01*
X173679286Y-105598235D01*
X173901000Y-105620072D01*
X174122715Y-105598235D01*
X174335909Y-105533563D01*
X174532390Y-105428542D01*
X174704607Y-105287207D01*
X174845942Y-105114990D01*
X174950963Y-104918509D01*
X175015635Y-104705315D01*
X175032000Y-104539158D01*
X175032000Y-102928043D01*
X175310000Y-102928043D01*
X175310000Y-104539158D01*
X175326365Y-104705315D01*
X175391038Y-104918509D01*
X175496059Y-105114990D01*
X175637394Y-105287207D01*
X175809611Y-105428542D01*
X176006092Y-105533563D01*
X176219286Y-105598235D01*
X176441000Y-105620072D01*
X176662715Y-105598235D01*
X176875909Y-105533563D01*
X177072390Y-105428542D01*
X177244607Y-105287207D01*
X177385942Y-105114990D01*
X177490963Y-104918509D01*
X177555635Y-104705315D01*
X177572000Y-104539158D01*
X177572000Y-102928042D01*
X177555635Y-102761885D01*
X177490963Y-102548691D01*
X177385942Y-102352210D01*
X177244607Y-102179993D01*
X177072390Y-102038658D01*
X176875908Y-101933637D01*
X176662714Y-101868965D01*
X176441000Y-101847128D01*
X176219285Y-101868965D01*
X176006091Y-101933637D01*
X175809610Y-102038658D01*
X175637393Y-102179993D01*
X175496058Y-102352210D01*
X175391037Y-102548692D01*
X175326365Y-102761886D01*
X175310000Y-102928043D01*
X175032000Y-102928043D01*
X175032000Y-102928042D01*
X175015635Y-102761885D01*
X174950963Y-102548691D01*
X174845942Y-102352210D01*
X174704607Y-102179993D01*
X174532390Y-102038658D01*
X174335908Y-101933637D01*
X174122714Y-101868965D01*
X173901000Y-101847128D01*
X173679285Y-101868965D01*
X173466091Y-101933637D01*
X173269610Y-102038658D01*
X173097393Y-102179993D01*
X172956058Y-102352210D01*
X172851037Y-102548692D01*
X172786365Y-102761886D01*
X172770000Y-102928043D01*
X172770000Y-104539158D01*
X172786365Y-104705315D01*
X172826979Y-104839200D01*
X171113180Y-106553000D01*
X170358944Y-106553000D01*
X170334000Y-106550543D01*
X170309056Y-106553000D01*
X170309053Y-106553000D01*
X170234415Y-106560351D01*
X170138657Y-106589399D01*
X170050405Y-106636571D01*
X169973052Y-106700052D01*
X169957145Y-106719435D01*
X168541601Y-108134979D01*
X168407714Y-108094365D01*
X168186000Y-108072528D01*
X167964285Y-108094365D01*
X167751091Y-108159037D01*
X167554610Y-108264058D01*
X167382393Y-108405393D01*
X167241058Y-108577610D01*
X167136037Y-108774092D01*
X167071365Y-108987286D01*
X167055000Y-109153443D01*
X167055000Y-110764558D01*
X167071365Y-110930715D01*
X167136038Y-111143909D01*
X167236580Y-111332010D01*
X166595421Y-111332010D01*
X166695963Y-111143909D01*
X166760635Y-110930715D01*
X166777000Y-110764558D01*
X166777000Y-109153442D01*
X166760635Y-108987285D01*
X166720021Y-108853399D01*
X167753581Y-107819840D01*
X167772958Y-107803938D01*
X167816831Y-107750478D01*
X167836439Y-107726586D01*
X167883610Y-107638335D01*
X167884095Y-107636736D01*
X167912659Y-107542575D01*
X167920010Y-107467937D01*
X167920010Y-107467935D01*
X167922467Y-107442991D01*
X167920010Y-107418047D01*
X167920010Y-105168544D01*
X168017394Y-105287207D01*
X168189611Y-105428542D01*
X168386092Y-105533563D01*
X168599286Y-105598235D01*
X168821000Y-105620072D01*
X169042715Y-105598235D01*
X169255909Y-105533563D01*
X169452390Y-105428542D01*
X169624607Y-105287207D01*
X169765942Y-105114990D01*
X169870963Y-104918509D01*
X169935635Y-104705315D01*
X169952000Y-104539158D01*
X169952000Y-102928043D01*
X170230000Y-102928043D01*
X170230000Y-104539158D01*
X170246365Y-104705315D01*
X170311038Y-104918509D01*
X170416059Y-105114990D01*
X170557394Y-105287207D01*
X170729611Y-105428542D01*
X170926092Y-105533563D01*
X171139286Y-105598235D01*
X171361000Y-105620072D01*
X171582715Y-105598235D01*
X171795909Y-105533563D01*
X171992390Y-105428542D01*
X172164607Y-105287207D01*
X172305942Y-105114990D01*
X172410963Y-104918509D01*
X172475635Y-104705315D01*
X172492000Y-104539158D01*
X172492000Y-102928042D01*
X172475635Y-102761885D01*
X172410963Y-102548691D01*
X172305942Y-102352210D01*
X172164607Y-102179993D01*
X171992390Y-102038658D01*
X171795908Y-101933637D01*
X171582714Y-101868965D01*
X171361000Y-101847128D01*
X171139285Y-101868965D01*
X170926091Y-101933637D01*
X170729610Y-102038658D01*
X170557393Y-102179993D01*
X170416058Y-102352210D01*
X170311037Y-102548692D01*
X170246365Y-102761886D01*
X170230000Y-102928043D01*
X169952000Y-102928043D01*
X169952000Y-102928042D01*
X169935635Y-102761885D01*
X169870963Y-102548691D01*
X169765942Y-102352210D01*
X169624607Y-102179993D01*
X169452390Y-102038658D01*
X169255908Y-101933637D01*
X169042714Y-101868965D01*
X168868603Y-101851817D01*
X169658575Y-101061845D01*
X169677958Y-101045938D01*
X169741439Y-100968585D01*
X169788611Y-100880333D01*
X169817659Y-100784575D01*
X169825010Y-100709937D01*
X169825010Y-100709934D01*
X169827467Y-100684990D01*
X169825010Y-100660046D01*
X169825010Y-96403946D01*
X169922393Y-96522607D01*
X170094610Y-96663942D01*
X170291091Y-96768963D01*
X170504285Y-96833635D01*
X170726000Y-96855472D01*
X170947714Y-96833635D01*
X171160908Y-96768963D01*
X171357390Y-96663942D01*
X171529607Y-96522607D01*
X171670942Y-96350390D01*
X171775963Y-96153909D01*
X171840635Y-95940715D01*
X171857000Y-95774558D01*
X171857000Y-94163442D01*
X172135000Y-94163442D01*
X172135000Y-95774557D01*
X172151365Y-95940714D01*
X172216037Y-96153908D01*
X172321058Y-96350390D01*
X172462393Y-96522607D01*
X172634610Y-96663942D01*
X172831091Y-96768963D01*
X173044285Y-96833635D01*
X173266000Y-96855472D01*
X173487714Y-96833635D01*
X173700908Y-96768963D01*
X173897390Y-96663942D01*
X174069607Y-96522607D01*
X174210942Y-96350390D01*
X174315963Y-96153909D01*
X174380635Y-95940715D01*
X174397000Y-95774558D01*
X174397000Y-94163442D01*
X174675000Y-94163442D01*
X174675000Y-95774557D01*
X174691365Y-95940714D01*
X174756037Y-96153908D01*
X174861058Y-96350390D01*
X175002393Y-96522607D01*
X175174610Y-96663942D01*
X175371091Y-96768963D01*
X175584285Y-96833635D01*
X175806000Y-96855472D01*
X176027714Y-96833635D01*
X176240908Y-96768963D01*
X176437390Y-96663942D01*
X176609607Y-96522607D01*
X176750942Y-96350390D01*
X176855963Y-96153909D01*
X176920635Y-95940715D01*
X176937000Y-95774558D01*
X176937000Y-94163443D01*
X177215000Y-94163443D01*
X177215000Y-95774558D01*
X177231365Y-95940715D01*
X177296038Y-96153909D01*
X177401059Y-96350390D01*
X177542394Y-96522607D01*
X177714611Y-96663942D01*
X177911092Y-96768963D01*
X178124286Y-96833635D01*
X178346000Y-96855472D01*
X178567715Y-96833635D01*
X178780909Y-96768963D01*
X178977390Y-96663942D01*
X179149607Y-96522607D01*
X179290942Y-96350390D01*
X179395963Y-96153909D01*
X179460635Y-95940715D01*
X179477000Y-95774558D01*
X179477000Y-94163442D01*
X179460635Y-93997285D01*
X179395963Y-93784091D01*
X179290942Y-93587610D01*
X179149607Y-93415393D01*
X178977390Y-93274058D01*
X178780908Y-93169037D01*
X178567714Y-93104365D01*
X178346000Y-93082528D01*
X178124285Y-93104365D01*
X177911091Y-93169037D01*
X177714610Y-93274058D01*
X177542393Y-93415393D01*
X177401058Y-93587610D01*
X177296037Y-93784092D01*
X177231365Y-93997286D01*
X177215000Y-94163443D01*
X176937000Y-94163443D01*
X176937000Y-94163442D01*
X176920635Y-93997285D01*
X176855963Y-93784091D01*
X176750942Y-93587610D01*
X176609607Y-93415393D01*
X176437390Y-93274058D01*
X176240909Y-93169037D01*
X176027715Y-93104365D01*
X175806000Y-93082528D01*
X175584286Y-93104365D01*
X175371092Y-93169037D01*
X175174611Y-93274058D01*
X175002394Y-93415393D01*
X174861059Y-93587610D01*
X174756038Y-93784091D01*
X174691365Y-93997285D01*
X174675000Y-94163442D01*
X174397000Y-94163442D01*
X174380635Y-93997285D01*
X174315963Y-93784091D01*
X174210942Y-93587610D01*
X174069607Y-93415393D01*
X173897390Y-93274058D01*
X173700909Y-93169037D01*
X173487715Y-93104365D01*
X173266000Y-93082528D01*
X173044286Y-93104365D01*
X172831092Y-93169037D01*
X172634611Y-93274058D01*
X172462394Y-93415393D01*
X172321059Y-93587610D01*
X172216038Y-93784091D01*
X172151365Y-93997285D01*
X172135000Y-94163442D01*
X171857000Y-94163442D01*
X171840635Y-93997285D01*
X171775963Y-93784091D01*
X171670942Y-93587610D01*
X171529607Y-93415393D01*
X171357390Y-93274058D01*
X171160909Y-93169037D01*
X170947715Y-93104365D01*
X170775606Y-93087414D01*
X173545399Y-90317621D01*
X173679286Y-90358235D01*
X173901000Y-90380072D01*
X174122715Y-90358235D01*
X174335909Y-90293563D01*
X174532390Y-90188542D01*
X174704607Y-90047207D01*
X174845942Y-89874990D01*
X174950963Y-89678509D01*
X175015635Y-89465315D01*
X175032000Y-89299158D01*
X175032000Y-87688043D01*
X175310000Y-87688043D01*
X175310000Y-89299158D01*
X175326365Y-89465315D01*
X175391038Y-89678509D01*
X175496059Y-89874990D01*
X175637394Y-90047207D01*
X175809611Y-90188542D01*
X176006092Y-90293563D01*
X176219286Y-90358235D01*
X176441000Y-90380072D01*
X176662715Y-90358235D01*
X176875909Y-90293563D01*
X177072390Y-90188542D01*
X177244607Y-90047207D01*
X177385942Y-89874990D01*
X177490963Y-89678509D01*
X177555635Y-89465315D01*
X177572000Y-89299158D01*
X177572000Y-87688042D01*
X177555635Y-87521885D01*
X177490963Y-87308691D01*
X177385942Y-87112210D01*
X177244607Y-86939993D01*
X177072390Y-86798658D01*
X176875908Y-86693637D01*
X176662714Y-86628965D01*
X176441000Y-86607128D01*
X176219285Y-86628965D01*
X176006091Y-86693637D01*
X175809610Y-86798658D01*
X175637393Y-86939993D01*
X175496058Y-87112210D01*
X175391037Y-87308692D01*
X175326365Y-87521886D01*
X175310000Y-87688043D01*
X175032000Y-87688043D01*
X175032000Y-87688042D01*
X175015635Y-87521885D01*
X174950963Y-87308691D01*
X174845942Y-87112210D01*
X174704607Y-86939993D01*
X174532390Y-86798658D01*
X174335908Y-86693637D01*
X174122714Y-86628965D01*
X173901000Y-86607128D01*
X173679285Y-86628965D01*
X173466091Y-86693637D01*
X173269610Y-86798658D01*
X173097393Y-86939993D01*
X172956058Y-87112210D01*
X172851037Y-87308692D01*
X172786365Y-87521886D01*
X172770000Y-87688043D01*
X172770000Y-89299158D01*
X172786365Y-89465315D01*
X172826980Y-89599200D01*
X168999154Y-93427026D01*
X168989607Y-93415393D01*
X168817390Y-93274058D01*
X168620909Y-93169037D01*
X168407715Y-93104365D01*
X168186000Y-93082528D01*
X167964286Y-93104365D01*
X167751092Y-93169037D01*
X167562990Y-93269579D01*
X167562990Y-91220030D01*
X168465400Y-90317621D01*
X168599286Y-90358235D01*
X168821000Y-90380072D01*
X169042715Y-90358235D01*
X169255909Y-90293563D01*
X169452390Y-90188542D01*
X169624607Y-90047207D01*
X169765942Y-89874990D01*
X169870963Y-89678509D01*
X169935635Y-89465315D01*
X169952000Y-89299158D01*
X169952000Y-87688042D01*
X169935635Y-87521885D01*
X169870963Y-87308691D01*
X169770421Y-87120590D01*
X170019570Y-87120590D01*
X170286979Y-87387999D01*
X170246365Y-87521886D01*
X170230000Y-87688043D01*
X170230000Y-89299158D01*
X170246365Y-89465315D01*
X170311038Y-89678509D01*
X170416059Y-89874990D01*
X170557394Y-90047207D01*
X170729611Y-90188542D01*
X170926092Y-90293563D01*
X171139286Y-90358235D01*
X171361000Y-90380072D01*
X171582715Y-90358235D01*
X171795909Y-90293563D01*
X171992390Y-90188542D01*
X172164607Y-90047207D01*
X172305942Y-89874990D01*
X172410963Y-89678509D01*
X172475635Y-89465315D01*
X172492000Y-89299158D01*
X172492000Y-87688042D01*
X172475635Y-87521885D01*
X172410963Y-87308691D01*
X172305942Y-87112210D01*
X172164607Y-86939993D01*
X171992390Y-86798658D01*
X171795908Y-86693637D01*
X171582714Y-86628965D01*
X171361000Y-86607128D01*
X171139285Y-86628965D01*
X171005399Y-86669579D01*
X170606845Y-86271025D01*
X170590938Y-86251642D01*
X170513585Y-86188161D01*
X170425333Y-86140989D01*
X170329575Y-86111941D01*
X170254937Y-86104590D01*
X170254934Y-86104590D01*
X170229990Y-86102133D01*
X170205046Y-86104590D01*
X163297464Y-86104590D01*
X163272520Y-86102133D01*
X163247576Y-86104590D01*
X163247574Y-86104590D01*
X163172936Y-86111941D01*
X163077178Y-86140989D01*
X163077176Y-86140990D01*
X162988925Y-86188161D01*
X162934331Y-86232966D01*
X162911573Y-86251642D01*
X162895670Y-86271020D01*
X162268425Y-86898266D01*
X162249042Y-86914173D01*
X162185561Y-86991526D01*
X162138389Y-87079779D01*
X162133244Y-87096738D01*
X162004607Y-86939993D01*
X161832390Y-86798658D01*
X161710877Y-86733708D01*
X161706930Y-86693637D01*
X161701649Y-86640015D01*
X161672601Y-86544257D01*
X161625429Y-86456005D01*
X161561948Y-86378652D01*
X161542565Y-86362745D01*
X161450845Y-86271025D01*
X161434938Y-86251642D01*
X161357585Y-86188161D01*
X161269333Y-86140989D01*
X161173575Y-86111941D01*
X161098937Y-86104590D01*
X161098934Y-86104590D01*
X161073990Y-86102133D01*
X161049046Y-86104590D01*
X153137464Y-86104590D01*
X153112520Y-86102133D01*
X153087576Y-86104590D01*
X153087574Y-86104590D01*
X153012936Y-86111941D01*
X152917178Y-86140989D01*
X152917176Y-86140990D01*
X152828925Y-86188161D01*
X152774331Y-86232966D01*
X152751573Y-86251642D01*
X152735671Y-86271019D01*
X151944715Y-87061975D01*
X151844607Y-86939993D01*
X151672390Y-86798658D01*
X151475908Y-86693637D01*
X151262714Y-86628965D01*
X151041000Y-86607128D01*
X150819285Y-86628965D01*
X150606091Y-86693637D01*
X150409610Y-86798658D01*
X150237393Y-86939993D01*
X150137285Y-87061975D01*
X148330315Y-85255006D01*
X148314408Y-85235623D01*
X148237055Y-85172142D01*
X148148803Y-85124970D01*
X148053045Y-85095922D01*
X147978407Y-85088571D01*
X147978404Y-85088571D01*
X147953460Y-85086114D01*
X147928516Y-85088571D01*
X135432973Y-85088571D01*
X135408029Y-85086114D01*
X135383085Y-85088571D01*
X135383082Y-85088571D01*
X135308444Y-85095922D01*
X135212686Y-85124970D01*
X135124434Y-85172142D01*
X135047081Y-85235623D01*
X135031174Y-85255006D01*
X133616601Y-86669579D01*
X133482714Y-86628965D01*
X133261000Y-86607128D01*
X133039285Y-86628965D01*
X132826091Y-86693637D01*
X132629610Y-86798658D01*
X132457393Y-86939993D01*
X132316058Y-87112210D01*
X132211037Y-87308692D01*
X132146365Y-87521886D01*
X132130000Y-87688043D01*
X131852000Y-87688043D01*
X131852000Y-87688042D01*
X131835635Y-87521885D01*
X131770963Y-87308691D01*
X131665942Y-87112210D01*
X131524607Y-86939993D01*
X131352390Y-86798658D01*
X131155908Y-86693637D01*
X130942714Y-86628965D01*
X130721000Y-86607128D01*
X130499285Y-86628965D01*
X130286091Y-86693637D01*
X130089610Y-86798658D01*
X129917393Y-86939993D01*
X129776058Y-87112210D01*
X129671037Y-87308692D01*
X129606365Y-87521886D01*
X129590000Y-87688043D01*
X129312000Y-87688043D01*
X129312000Y-87688042D01*
X129295635Y-87521885D01*
X129230963Y-87308691D01*
X129125942Y-87112210D01*
X128984607Y-86939993D01*
X128812390Y-86798658D01*
X128615908Y-86693637D01*
X128402714Y-86628965D01*
X128181000Y-86607128D01*
X127959285Y-86628965D01*
X127746091Y-86693637D01*
X127549610Y-86798658D01*
X127377393Y-86939993D01*
X127236058Y-87112210D01*
X127131037Y-87308692D01*
X127066365Y-87521886D01*
X127050000Y-87688043D01*
X126772000Y-87688043D01*
X126772000Y-87688042D01*
X126755635Y-87521885D01*
X126690963Y-87308691D01*
X126585942Y-87112210D01*
X126444607Y-86939993D01*
X126272390Y-86798658D01*
X126075908Y-86693637D01*
X125862714Y-86628965D01*
X125641000Y-86607128D01*
X125419285Y-86628965D01*
X125206091Y-86693637D01*
X125009610Y-86798658D01*
X124837393Y-86939993D01*
X124696058Y-87112210D01*
X124591037Y-87308692D01*
X124526365Y-87521886D01*
X124510000Y-87688043D01*
X124232000Y-87688043D01*
X124232000Y-87688042D01*
X124215635Y-87521885D01*
X124150963Y-87308691D01*
X124045942Y-87112210D01*
X123904607Y-86939993D01*
X123732390Y-86798658D01*
X123535908Y-86693637D01*
X123322714Y-86628965D01*
X123101000Y-86607128D01*
X122879285Y-86628965D01*
X122666091Y-86693637D01*
X122469610Y-86798658D01*
X122297393Y-86939993D01*
X122156058Y-87112210D01*
X122051037Y-87308692D01*
X121986365Y-87521886D01*
X121970000Y-87688043D01*
X121692000Y-87688043D01*
X121692000Y-87688042D01*
X121675635Y-87521885D01*
X121610963Y-87308691D01*
X121505942Y-87112210D01*
X121364607Y-86939993D01*
X121192390Y-86798658D01*
X120995908Y-86693637D01*
X120782714Y-86628965D01*
X120561000Y-86607128D01*
X120339285Y-86628965D01*
X120126091Y-86693637D01*
X119929610Y-86798658D01*
X119757393Y-86939993D01*
X119616058Y-87112210D01*
X119511037Y-87308692D01*
X119446365Y-87521886D01*
X119430000Y-87688043D01*
X119152000Y-87688043D01*
X119152000Y-87688042D01*
X119135635Y-87521885D01*
X119070963Y-87308691D01*
X118965942Y-87112210D01*
X118824607Y-86939993D01*
X118652390Y-86798658D01*
X118455908Y-86693637D01*
X118242714Y-86628965D01*
X118021000Y-86607128D01*
X117799285Y-86628965D01*
X117586091Y-86693637D01*
X117389610Y-86798658D01*
X117217393Y-86939993D01*
X117076058Y-87112210D01*
X116971037Y-87308692D01*
X116906365Y-87521886D01*
X116890000Y-87688043D01*
X107542400Y-87688043D01*
X107542400Y-84720124D01*
X107563326Y-84506700D01*
X107622077Y-84312111D01*
X107717505Y-84132636D01*
X107845975Y-83975117D01*
X108002596Y-83845549D01*
X108181400Y-83748870D01*
X108375577Y-83688762D01*
X108588344Y-83666400D01*
X188456876Y-83666400D01*
X188670300Y-83687326D01*
M02*
