G04 #@! TF.GenerationSoftware,KiCad,Pcbnew,(5.1.4)-1*
G04 #@! TF.CreationDate,2020-10-13T18:20:07+11:00*
G04 #@! TF.ProjectId,27C160_Adapter,32374331-3630-45f4-9164-61707465722e,rev?*
G04 #@! TF.SameCoordinates,Original*
G04 #@! TF.FileFunction,Soldermask,Bot*
G04 #@! TF.FilePolarity,Negative*
%FSLAX46Y46*%
G04 Gerber Fmt 4.6, Leading zero omitted, Abs format (unit mm)*
G04 Created by KiCad (PCBNEW (5.1.4)-1) date 2020-10-13 18:20:07*
%MOMM*%
%LPD*%
G04 APERTURE LIST*
%ADD10O,1.600000X1.600000*%
%ADD11C,1.600000*%
%ADD12R,1.500000X1.050000*%
%ADD13O,1.500000X1.050000*%
%ADD14R,1.600000X1.600000*%
%ADD15O,1.500000X3.000000*%
G04 APERTURE END LIST*
D10*
X174498000Y-124460000D03*
D11*
X174498000Y-114300000D03*
D12*
X161925000Y-120015000D03*
D13*
X161925000Y-117475000D03*
X161925000Y-118745000D03*
D10*
X178308000Y-124460000D03*
D11*
X178308000Y-114300000D03*
D10*
X182118000Y-124460000D03*
D11*
X182118000Y-114300000D03*
D10*
X170688000Y-114300000D03*
D11*
X170688000Y-124460000D03*
D10*
X166878000Y-114300000D03*
D11*
X166878000Y-124460000D03*
D10*
X149098000Y-115062000D03*
X154178000Y-122682000D03*
X151638000Y-115062000D03*
X151638000Y-122682000D03*
X154178000Y-115062000D03*
D14*
X149098000Y-122682000D03*
D11*
X133604000Y-116499000D03*
X133604000Y-118999000D03*
X133604000Y-121499000D03*
X130404000Y-116499000D03*
X130404000Y-118999000D03*
D14*
X130404000Y-121499000D03*
D15*
X130086000Y-109959000D03*
X132626000Y-109959000D03*
X135166000Y-109959000D03*
X137706000Y-109959000D03*
X140246000Y-109959000D03*
X142786000Y-109959000D03*
X145326000Y-109959000D03*
X147866000Y-109959000D03*
X150406000Y-109959000D03*
X152946000Y-109959000D03*
X155486000Y-109959000D03*
X158026000Y-109959000D03*
X160566000Y-109959000D03*
X163106000Y-109959000D03*
X165646000Y-109959000D03*
X168186000Y-109959000D03*
X170726000Y-109959000D03*
X173266000Y-109959000D03*
X175806000Y-109959000D03*
X178346000Y-109959000D03*
X178346000Y-94969000D03*
X175806000Y-94969000D03*
X173266000Y-94969000D03*
X170726000Y-94969000D03*
X168186000Y-94969000D03*
X165646000Y-94969000D03*
X163106000Y-94969000D03*
X160566000Y-94969000D03*
X158026000Y-94969000D03*
X155486000Y-94969000D03*
X152946000Y-94969000D03*
X150406000Y-94969000D03*
X147866000Y-94969000D03*
X145326000Y-94969000D03*
X142786000Y-94969000D03*
X140246000Y-94969000D03*
X137706000Y-94969000D03*
X135166000Y-94969000D03*
X132626000Y-94969000D03*
X130086000Y-94969000D03*
X118021000Y-103733600D03*
X120561000Y-103733600D03*
X123101000Y-103733600D03*
X125641000Y-103733600D03*
X128181000Y-103733600D03*
X130721000Y-103733600D03*
X133261000Y-103733600D03*
X135801000Y-103733600D03*
X138341000Y-103733600D03*
X140881000Y-103733600D03*
X143421000Y-103733600D03*
X145961000Y-103733600D03*
X148501000Y-103733600D03*
X151041000Y-103733600D03*
X153581000Y-103733600D03*
X156121000Y-103733600D03*
X158661000Y-103733600D03*
X161201000Y-103733600D03*
X163741000Y-103733600D03*
X166281000Y-103733600D03*
X168821000Y-103733600D03*
X171361000Y-103733600D03*
X173901000Y-103733600D03*
X176441000Y-103733600D03*
X176441000Y-88493600D03*
X173901000Y-88493600D03*
X171361000Y-88493600D03*
X168821000Y-88493600D03*
X166281000Y-88493600D03*
X163741000Y-88493600D03*
X161201000Y-88493600D03*
X158661000Y-88493600D03*
X156121000Y-88493600D03*
X153581000Y-88493600D03*
X151041000Y-88493600D03*
X148501000Y-88493600D03*
X145961000Y-88493600D03*
X143421000Y-88493600D03*
X140881000Y-88493600D03*
X138341000Y-88493600D03*
X135801000Y-88493600D03*
X133261000Y-88493600D03*
X130721000Y-88493600D03*
X128181000Y-88493600D03*
X125641000Y-88493600D03*
X123101000Y-88493600D03*
X120561000Y-88493600D03*
X118021000Y-88493600D03*
M02*
